<?xml version="1.0" standalone="no"?>
<!DOCTYPE svg PUBLIC "-//W3C//DTD SVG 1.1//EN" "http://www.w3.org/Graphics/SVG/1.1/DTD/svg11.dtd" >
<svg xmlns="http://www.w3.org/2000/svg" xmlns:xlink="http://www.w3.org/1999/xlink" version="1.1">
<metadata>
Created by FontForge 20161003 at Fri Mar 30 07:50:31 2018
 By www-data
Copyright (c) 2011 by Henning Skibbe. All rights reserved.
</metadata>
<defs>
<font id="SVNHapticScript" horiz-adv-x="574" >
  <font-face 
    font-family="SVNHapticScript"
    font-weight="400"
    font-stretch="normal"
    units-per-em="1500"
    panose-1="0 0 5 0 0 0 0 0 0 0"
    ascent="964"
    descent="-536"
    x-height="492"
    cap-height="904"
    bbox="-545 -717.667 4738 1480"
    underline-thickness="50"
    underline-position="-150"
    unicode-range="U+0020-FB06"
  />
<missing-glyph horiz-adv-x="249" 
 />
    <glyph glyph-name="f_f" unicode="ff" horiz-adv-x="610" 
d="M844 886q11 -11 11 -27q0 -17 -10 -29.5t-24 -12.5q-12 0 -42 24q-32 23 -57 23q-75 0 -117 -168l-130 -532q58 -11 91 -11q54 0 88 28t58 93l12 31q20 0 28 -5q3 -4 3 -10q0 -8 -3 -17l-7 -21q-28 -82 -74.5 -121.5t-119.5 -39.5q-36 0 -92 8l-49 -200q94 -11 132 -11
q34 0 80 8q10 -24 10 -51q0 -33 -23.5 -51.5t-62.5 -18.5q-61 0 -160 30q-59 -202 -153 -302q-95 -101 -172 -101q-42 0 -46 40q81 23 148 110q65 87 118 288q-114 36 -161 45q-116 -363 -320 -363q-67 0 -107 35.5t-40 100.5q0 96 98 186q47 43 120 71t155 30l1 2l52 220
q-53 5 -74 4q-7 33 6.5 53.5t45.5 20.5q2 0 40 -2l65 271q37 159 107 223q69 63 167 63q49 0 97 -14q74 129 206 129q71 0 105 -29zM294 581l-87 -356q14 -3 91 -20q63 -16 68 -17l108 442q14 53 29 94q-41 25 -81 25q-88 0 -128 -168zM299 -84l50 202q-8 1 -20 3.5t-30.5 6
t-31.5 6.5q-18 3 -44 8.5t-35 7.5l-37 -154q-7 -30 -15 -57q61 -7 163 -23zM-210 -390q18 -21 47 -20.5t55 23.5q28 25 60.5 97.5t61.5 185.5q-101 -3 -171 -79q-71 -77 -71 -149q0 -38 18 -58z" />
    <glyph glyph-name="fi" unicode="fi" horiz-adv-x="611" 
d="M753 300q4 -5 4 -10q0 -6 -4 -17l-7 -21q-36 -102 -125 -184q-88 -82 -183 -82q-42 0 -65.5 19.5t-23.5 57.5q0 28 11 77q-35 -29 -85 -29q-42 0 -96 18l-34 -133l-15 -56q30 -3 90 -12q86 -11 107 -13q43 -4 91 -4q34 0 80 8q10 -19 10 -51q0 -33 -23.5 -51.5
t-62.5 -18.5q-52 0 -171 39q-119 41 -139 45q-117 -360 -319 -360q-67 0 -107 35.5t-40 100.5q0 96 98 186q47 43 120.5 71t155.5 30l1 2l55 219q-56 19 -83 23q3 70 51 70q16 0 52 -14l47 188q97 384 358 384q65 0 101.5 -28t36.5 -76q0 -58 -39 -109q-39 -52 -84 -52
q-26 0 -43 15q45 83 45 135q0 28 -14.5 43.5t-38.5 15.5q-125 0 -204 -307l-65 -258q63 -29 95 -29q33 0 57.5 24.5t45.5 82.5l7 19l34 120l6 20q8 33 26.5 46t60.5 13q40 0 40 -25q0 -19 -50 -174q-51 -153 -51 -200q0 -29 30 -29q49 0 117 62q66 60 98 144l13 35
q20 0 28 -5zM-170 -410q44 0 88 66t90 240q-100 -3 -172 -80q-71 -77 -71 -148q0 -38 17.5 -58t47.5 -20z" />
    <glyph glyph-name="fl" unicode="fl" horiz-adv-x="628" 
d="M770 300q4 -5 4 -10q0 -6 -4 -17l-7 -21q-36 -105 -119 -185q-82 -81 -177 -81q-46 0 -72 23.5t-26 63.5q0 32 7 68q-40 -45 -105 -45q-30 0 -92 18l-29 -118q-8 -30 -15 -57q52 -6 192 -28q158 -23 214 -23q34 0 80 8q10 -24 10 -51q0 -33 -23 -51.5t-62 -18.5
q-70 0 -223 50q-151 49 -204 60q-113 -363 -320 -363q-67 0 -106.5 35.5t-39.5 100.5q0 96 97 185q47 44 119.5 71.5t155.5 30.5l1 2l48 201q-39 11 -67 13q-7 70 44 70q13 0 41 -9l70 292q37 159 107 223q67 63 166 63q49 0 97 -14l9 36q10 42 28 58.5t56 16.5q43 0 43 -31
q0 -14 -90 -358q-91 -342 -91 -406q0 -35 33 -35q50 0 115 60q62 58 94 143l13 35q23 0 28 -5zM400 270l8 20l86 342l21 84q-52 33 -94 33q-86 0 -128 -168l-98 -402q66 -26 95 -26q34 0 60.5 27.5t49.5 89.5zM-211 -390q18 -21 47 -20.5t55 23.5q28 25 60.5 97.5
t61.5 185.5q-66 -1 -125 -42q-57 -39 -87 -90q-29 -52 -29 -96q0 -38 17 -58z" />
    <glyph glyph-name="f_f_i" unicode="ffi" horiz-adv-x="888" 
d="M1030 300q4 -4 4 -10q0 -10 -4 -17l-7 -21q-34 -101 -124 -184q-88 -82 -184 -82q-42 0 -65.5 19.5t-23.5 57.5q0 23 8 63q-41 -35 -107 -35q-25 0 -75 5l-39 -159q54 -3 169 -15q112 -12 159 -12q32 0 80 7q11 -24 11 -51q0 -32 -23 -49t-63 -17q-51 0 -171 35
q-124 36 -176 43q-72 -295 -181 -413q-96 -104 -202 -104q-71 0 -112.5 37.5t-41.5 101.5q0 27 4 46q-76 -40 -168 -40q-68 0 -104 22.5t-36 59.5q0 26 16 51q85 -43 182 -43q43 0 77 15t68 52q72 77 126 303l48 201q-51 5 -72 4q-9 74 52 74q1 0 39 -2l47 197
q75 313 284 313q30 0 68.5 -9.5t62.5 -21.5q92 95 227 95q63 0 100 -29t37 -78q0 -54 -39 -106t-84 -52q-25 0 -42 15q44 82 44 135q0 28 -14 43.5t-39 15.5q-60 0 -113 -70.5t-89 -219.5l-76 -310q46 -8 73 -8q52 0 79 27q25 25 51 94l6 16q1 3 16 54t20 69l5 20
q9 34 27.5 46.5t59.5 12.5q40 0 40 -25q0 -19 -50 -174q-51 -153 -51 -200q0 -29 30 -29q49 0 117 62q66 60 98 144l13 35q23 0 28 -5zM267 488l-65 -263q80 -20 157 -39l62 259q30 127 84 211q-61 46 -95 46q-91 0 -143 -214zM300 -64l43 179q-6 1 -15.5 3t-27 6t-31.5 7
q-19 4 -85 18l-41 -165q-13 -56 -33 -113q89 53 190 65zM47 -567q133 0 231 413l8 35q-117 -20 -214 -131q-97 -112 -97 -231q0 -41 20 -63.5t52 -22.5z" />
    <glyph glyph-name="f_f_l" unicode="ffl" horiz-adv-x="904" 
d="M1046 300q4 -4 4 -10q0 -10 -4 -17l-7 -21q-35 -104 -119 -188q-83 -83 -177 -83q-47 0 -73 23.5t-26 64.5q0 30 7 69q-44 -47 -119 -47q-42 0 -81 7l-39 -161q57 -3 181 -18q129 -14 172 -14q34 0 79 8q11 -25 11 -51q0 -32 -23 -49.5t-63 -17.5q-59 0 -183 37
q-134 39 -188 46q-72 -296 -180 -413q-97 -104 -203 -104q-71 0 -112.5 37.5t-41.5 101.5q0 27 4 46q-76 -40 -168 -40q-68 0 -103.5 22.5t-35.5 59.5q0 26 15 51q87 -43 182 -43q42 0 76 14.5t69.5 52.5t67 114t58.5 189l48 201q-51 5 -72 4q-9 74 53 74q3 0 8 -0.5t14 -1
t16 -0.5l47 197q73 307 285 307q46 0 91 -20q79 118 216 118q46 0 89 -12q9 36 27 50t54 14q42 0 42 -31q0 -16 -91 -361t-91 -407q0 -35 34 -35q49 0 114 62q62 59 95 145l13 35q23 0 28 -5zM678 274l5 14l86 342l36 142q-40 22 -87 22q-98 0 -138 -168l-113 -464
q45 -9 80 -9q49 0 77 26t54 95zM266 488l-65 -263q21 -4 86 -20q46 -11 71 -18l90 373q18 71 35 106q-39 30 -74 30q-91 0 -143 -208zM299 -64l43 181q-126 27 -159 33l-41 -166q-15 -64 -33 -113q94 55 190 65zM46 -567q132 0 231 413l8 35q-118 -20 -213 -131
q-97 -112 -97 -231q0 -41 19.5 -63.5t51.5 -22.5z" />
    <glyph glyph-name=".notdef" horiz-adv-x="249" 
 />
    <glyph glyph-name=".null" horiz-adv-x="0" 
 />
    <glyph glyph-name="nonmarkingreturn" horiz-adv-x="500" 
 />
    <glyph glyph-name="space" unicode=" " horiz-adv-x="328" 
 />
    <glyph glyph-name="exclam" unicode="!" horiz-adv-x="326" 
d="M309 784q45 0 45 -33q0 -6 -4 -21l-3 -10q-123 -364 -159 -516q-18 -5 -43 -5q-37 0 -37 34q-2 15 34 161q4 16 13.5 60t15.5 69q9 38 40 179l3 18q9 36 30.5 50t64.5 14zM158 -10q-30 -10 -63 -10q-59 0 -59 49q0 42 35 77q34 34 82 34q45 0 45 -33q0 -20 -19 -65
q-20 -50 -21 -52z" />
    <glyph glyph-name="quotedbl" unicode="&#x22;" horiz-adv-x="384" 
d="M387 784q54 0 54 -41q0 -23 -48 -123q-50 -104 -59 -137q-42 -1 -59 10t-17 37q0 37 32 147l12 37q12 41 30 55.5t55 14.5zM191 773q52 0 52 -42q0 -24 -42 -123q-41 -99 -52 -134q-41 -1 -59 11t-18 41q0 38 21 139l8 36q8 42 27.5 57t62.5 15z" />
    <glyph glyph-name="numbersign" unicode="#" horiz-adv-x="682" 
d="M659 445q8 -24 8 -38q0 -59 -72 -64l-75 -2l-43 -114l46 2q55 5 63 6q7 -18 7 -38q0 -28 -20 -44t-53 -14l-74 2q-50 -137 -55 -166q-15 -5 -32 -5q-45 0 -45 36q0 21 40 138l-114 3q-51 -155 -53 -172q-17 -6 -33 -6q-44 0 -44 37q0 21 39 143l-70 2q-25 0 -25 21
q0 20 9 31q8 9 31 11l76 3l36 114l-68 -2q-23 0 -23 21q0 40 33 43l79 7l45 143q17 56 81 56q34 0 34 -22q0 -5 -5 -23l-51 -145l117 11l42 124q22 63 87 63q32 0 32 -20q0 -13 -7 -30l-49 -128l34 3q48 3 72 13zM306 334l-40 -114l116 4l38 114z" />
    <glyph glyph-name="dollar" unicode="$" horiz-adv-x="579" 
d="M485 446q-16 0 -28 7t-12 18q0 8 16 40t16 59q0 33 -22 51.5t-59 18.5q-47 0 -79 -28.5t-32 -71.5q0 -21 7.5 -41t26 -42t30.5 -35.5t40 -39.5t37 -35q76 -74 76 -149q0 -82 -59.5 -136.5t-160.5 -67.5l-22 -116q-18 -7 -36 -8h-5q-25 0 -40.5 12t-15.5 33q0 9 3 20
l17 59q-73 10 -116 51t-43 98q0 63 36 111q36 47 80 47q23 0 40 -17q-47 -70 -47 -127q0 -50 34.5 -80.5t89.5 -30.5t91 33t36 83q0 33 -22 67.5t-54 65.5t-63.5 63t-53.5 70.5t-22 76.5q0 76 59 124q60 48 145 58l12 65q10 51 80 51q32 0 32 -22q0 -10 -6 -28l-19 -68
q52 -9 83 -37.5t31 -68.5q0 -43 -34 -87q-34 -46 -67 -46z" />
    <glyph glyph-name="percent" unicode="%" horiz-adv-x="1029" 
d="M856 381q48 0 79 -38t31 -105q0 -104 -63 -179q-65 -75 -163 -75q-71 0 -108.5 35t-37.5 101l1 13q-73 -23 -113 -49t-56 -67l-21 -58q-19 -51 -20 -64q-51 0 -74 21q-13 13 -13 35q0 23 15 58q176 411 272 665q-84 -98 -183 -132q-27 -69 -84 -109.5t-131 -40.5
q-70 0 -108.5 34.5t-38.5 97.5q0 65 40 123q39 57 92 81q7 4 13 4q8 0 12 -7q6 -5 6 -9q0 -3 -8 -14q-28 -31 -45 -76t-17 -90q0 -46 20 -71t55 -25q64 0 100 84h-7q-54 0 -83 25t-29 69q0 64 39 110q37 46 93 46q45 0 73 -33t28 -92q0 -31 -4 -51q78 32 141 105
q64 74 87 143q50 -5 66 -22q14 -14 14 -35q0 -19 -12 -48q-133 -314 -248 -618q43 24 136 50q19 61 70 110q50 47 98 47q23 0 36.5 -14t13.5 -36q0 -43 -32 -69.5t-100 -48.5q-2 -26 -2 -30q0 -50 19 -75.5t53 -25.5q51 0 83 56t32 132q0 100 -60 133q8 29 43 29zM246 642
q0 -32 18 -47.5t59 -15.5q5 32 5 52q0 93 -39 93q-17 0 -30 -24.5t-13 -57.5zM752 290q-15 0 -31 -25.5t-25 -62.5q70 27 70 72q0 16 -14 16z" />
    <glyph glyph-name="ampersand" unicode="&#x26;" horiz-adv-x="742" 
d="M720 440q0 -89 -43 -180t-118 -161q62 -95 62 -158q0 -56 -37 -93q-38 -38 -78 -38q-23 0 -41 19q33 46 33 95q0 40 -33 105q-100 -58 -208 -58q-107 0 -168 48t-61 128q0 88 74 159q31 30 68 59q15 12 85 61q-40 93 -40 161q0 87 62 144q61 57 152 57q68 0 103.5 -28.5
t35.5 -77.5q0 -51 -31 -92q-22 -28 -31 -40q-12 -15 -45 -42q-13 -11 -28 -23.5t-16 -13.5q-16 -12 -52 -40q51 -104 152 -262q87 132 87 323q30 10 58 10q25 0 41.5 -17.5t16.5 -44.5zM305 622q0 -52 35 -136q124 94 124 185q0 30 -16.5 48t-45.5 18q-40 0 -68.5 -33.5
t-28.5 -81.5zM163 165q0 -58 38 -94.5t103 -36.5q70 0 132 46q-108 188 -153 284q-120 -104 -120 -199z" />
    <glyph glyph-name="quotesingle" unicode="'" horiz-adv-x="232" 
d="M238 776q51 0 51 -45q0 -25 -48 -121q-47 -94 -58 -133q-41 -1 -58.5 10t-17.5 39q0 35 33 149l10 30q11 43 29.5 57t58.5 14z" />
    <glyph glyph-name="parenleft" unicode="(" horiz-adv-x="305" 
d="M442 799q-124 -153 -188 -336q-65 -186 -65 -363q0 -205 47 -370q-23 -13 -45 -13q-35 0 -56 41l-4 9q-21 44 -36.5 130.5t-15.5 193.5q0 196 65 379q64 181 172 308l11 13q30 36 62 36q29 0 53 -28z" />
    <glyph glyph-name="parenright" unicode=")" horiz-adv-x="298" 
d="M-130 -260q124 153 188 336q65 186 65 363q0 205 -47 370q23 13 45 13q35 0 56 -41l4 -9q21 -44 36.5 -130.5t15.5 -193.5q0 -198 -64 -378q-63 -179 -173 -309l-11 -13q-30 -36 -62 -36q-29 0 -53 28z" />
    <glyph glyph-name="asterisk" unicode="*" horiz-adv-x="371" 
d="M407 594q0 -11 -8.5 -17.5t-35.5 -14.5l-78 -22q72 -48 102 -63q-11 -51 -46 -51q-19 0 -44 25l-43 42q-9 -71 -11 -112q-24 -6 -35 -6q-42 0 -42 36q0 18 23 82l2 6q-81 -44 -97 -54q-29 26 -29 46q0 31 45 43l69 19l-59 39q-19 12 -25 19t-6 17q0 13 13 28t26 15
q11 0 22 -10q29 -29 64 -65l11 87q2 23 14 31.5t39 8.5q28 0 28 -21q0 -15 -31 -108l52 27q37 20 47 20q12 0 22.5 -16t10.5 -31z" />
    <glyph glyph-name="plus" unicode="+" horiz-adv-x="557" 
d="M73 266q-1 5 -1 19q0 64 64 64q3 0 117 -6q35 163 35 179q20 7 44 7q28 0 45 -13.5t17 -37.5q0 -14 -4 -25l-29 -111q57 -3 90 -3q39 0 65 6q4 -15 4 -31q0 -55 -55 -55q-24 0 -61 4q-42 3 -62 3q-32 -148 -32 -178q-20 -7 -42 -7q-30 0 -48 13.5t-18 38.5q0 9 4 25
l28 111q-19 1 -102 1q-44 0 -59 -4z" />
    <glyph glyph-name="comma" unicode="," horiz-adv-x="320" 
d="M187 138q56 0 56 -46q0 -37 -76 -189q-34 -66 -45 -94q-5 -1 -20 -1q-22 0 -35 11t-13 29q0 31 38 148q-10 29 -10 61q0 39 28 60t77 21z" />
    <glyph glyph-name="hyphen" unicode="-" horiz-adv-x="421" 
d="M386 334q4 -13 4 -30q0 -55 -68 -55q-14 0 -87 5q-59 4 -92 4q-35 0 -57 -2q-3 17 -3 29q0 53 67 53q24 0 92 -3q60 -4 88 -4q40 0 56 3z" />
    <glyph glyph-name="period" unicode="." horiz-adv-x="317" 
d="M206 -10q-33 -10 -64 -10q-58 0 -58 49q0 43 34 77t83 34q44 0 44 -33q0 -18 -18 -64q-20 -47 -21 -53z" />
    <glyph glyph-name="slash" unicode="/" horiz-adv-x="318" 
d="M347 831q43 -1 63 -20q14 -14 14 -35q0 -18 -12 -47q-177 -414 -286 -715q-19 -51 -20 -64q-47 -1 -71 19q-12 12 -12 34q0 23 15 58q196 457 276 675q30 78 33 95z" />
    <glyph glyph-name="zero" unicode="0" horiz-adv-x="595" 
d="M249 -21q-94 0 -145 50.5t-51 145.5q0 143 91 246t228 103q94 0 145.5 -50.5t51.5 -145.5q0 -143 -91 -246t-229 -103zM273 41q75 0 124 85q48 84 48 200q0 136 -96 136q-75 0 -123 -84q-49 -85 -49 -201q0 -136 96 -136z" />
    <glyph glyph-name="one" unicode="1" horiz-adv-x="359" 
d="M324 68q9 -27 9 -47q0 -44 -60 -44q-34 0 -118 14q-86 14 -132 14h-27q-15 0 -21.5 6t-6.5 22q0 41 49 41q22 0 80 -5q16 104 82 376q-21 -3 -43 -6t-30.5 -4t-9.5 -1q-25 0 -25 39q0 17 19 21l82 15q84 14 92 14q45 0 45 -39q0 -14 -9 -47l-12 -40q-81 -280 -94 -337
q28 -3 50 -3q49 0 80 11z" />
    <glyph glyph-name="two" unicode="2" horiz-adv-x="487" 
d="M429 46q13 -27 13 -55q0 -34 -21.5 -55.5t-53.5 -21.5q-49 0 -146 55q-98 55 -120 55q-15 0 -27 -23t-26 -23q-16 0 -28 13t-12 30q0 21 54 59l93 72q190 139 190 239q0 39 -21.5 61.5t-59.5 22.5q-42 0 -68 -25t-26 -65q0 -29 17 -65q16 -33 16 -39q0 -10 -11.5 -18
t-26.5 -8q-33 0 -67 36q-36 36 -36 87q0 66 66 110q65 44 160 44q86 0 133 -34t47 -95q0 -71 -77 -154q-76 -80 -266 -182q31 0 116 -15q83 -16 123 -16q35 0 65 10z" />
    <glyph glyph-name="three" unicode="3" horiz-adv-x="510" 
d="M259 474q-42 0 -69 -26t-27 -65q0 -18 7 -48t7 -31q0 -11 -11 -19t-26 -8q-31 0 -56 27t-25 68q0 70 69 115q68 44 162 44q86 0 134.5 -36.5t48.5 -99.5q0 -65 -54 -122q-54 -59 -123 -81q72 1 116 -36t44 -93q0 -109 -105 -184q-106 -74 -241 -74q-59 0 -90.5 17.5
t-31.5 47.5q0 20 13 39q71 -33 141 -33q79 0 133 48q54 50 54 124q0 46 -25.5 75t-69.5 30q-54 -16 -82 -16q-33 0 -33 25q0 18 17 32t41 14q26 0 53 -4q53 29 85.5 78t32.5 98q0 45 -23.5 69.5t-65.5 24.5z" />
    <glyph glyph-name="four" unicode="4" horiz-adv-x="453" 
d="M353 245q32 0 32 -25q0 -8 -6 -29l-37 -130q61 0 113 11q7 -24 7 -41q0 -24 -14.5 -32t-48.5 -6l-73 2q-21 -96 -26 -182q-21 -10 -59 -10q-27 0 -42.5 12t-15.5 34q0 15 39 148l-200 -4q-59 0 -59 40q0 32 83 129q33 38 84 127q51 88 92 192q9 24 25.5 33.5t51.5 9.5
q51 0 51 -37q0 -54 -101 -193q-99 -137 -207 -224l197 -11l31 128q8 32 27 45t56 13z" />
    <glyph glyph-name="five" unicode="5" horiz-adv-x="449" 
d="M204 446l-57 -201q126 3 193 -44.5t67 -137.5q0 -111 -100 -184t-239 -73q-125 0 -125 59q0 20 16 43q72 -32 135 -32q79 0 134 47q53 48 53 125q0 119 -155 137l-20 2q-36 3 -36 35q0 8 8 48l40 187q8 34 24 48.5t46 14.5q17 0 77 -3t93 -3q50 0 78 5q8 -21 8 -45
q0 -31 -17 -49.5t-49 -18.5q-51 0 -174 40z" />
    <glyph glyph-name="six" unicode="6" 
d="M183 343l5 -2q28 40 76.5 64.5t101.5 24.5q82 0 127.5 -44t45.5 -130q0 -113 -79 -195t-199 -82q-95 0 -148.5 57t-53.5 166q0 214 120 355q119 140 295 140q56 0 86.5 -16t30.5 -44q0 -21 -19 -50q-61 35 -133 35q-92 0 -160 -70t-96 -209zM184 165q0 -60 26 -94.5
t73 -34.5q61 0 98 55q37 53 37 138q0 61 -25 95.5t-70 34.5q-61 0 -100 -55t-39 -139z" />
    <glyph glyph-name="seven" unicode="7" horiz-adv-x="465" 
d="M466 510q14 0 23.5 -8.5t9.5 -22.5q0 -20 -29 -61l-37 -53q-241 -345 -258 -531q-19 -13 -58 -13q-35 0 -55 20.5t-20 57.5q0 98 169 285l216 258q-29 -15 -91 -15q-39 0 -105 7q-71 6 -96 6q-23 0 -31.5 -9t-8.5 -33q0 -21 -18 -21q-17 0 -29.5 21.5t-12.5 53.5
q0 46 29 76t78 30q36 0 135 -34q98 -34 133 -34q12 0 31 10t25 10z" />
    <glyph glyph-name="eight" unicode="8" horiz-adv-x="539" 
d="M225 533q0 -32 20 -60t50 -48t64.5 -45t64.5 -49.5t50 -63.5t20 -85q0 -96 -75 -154q-77 -59 -192 -59q-102 0 -160 43.5t-58 119.5q0 68 53 123t147 88q-94 70 -94 159q0 84 70 139q68 55 178 55q82 0 129 -36.5t47 -97.5t-48 -109t-82 -48q-16 0 -30 11q-5 5 -5 11
q0 8 7 18q50 56 50 106q0 43 -25.5 67t-73.5 24q-45 0 -76 -31t-31 -78zM259 28q55 0 94 36q38 36 38 87q0 30 -19.5 61.5t-42.5 48.5q-24 17 -65 44l-6 4t-5.5 3.5t-3.5 2.5q-55 -36 -86.5 -80.5t-31.5 -89.5q0 -52 36.5 -84.5t91.5 -32.5z" />
    <glyph glyph-name="nine" unicode="9" horiz-adv-x="583" 
d="M418 181l-5 2q-69 -95 -178 -95q-81 0 -129 45.5t-48 131.5q0 109 78 184t200 75q98 0 152.5 -57t54.5 -167q0 -214 -118 -354q-119 -140 -298 -140q-123 0 -123 58q0 22 19 47q72 -35 131 -35q104 0 172 76t92 229zM414 338q0 60 -26 95t-73 35q-57 0 -96 -54t-39 -128
q0 -62 27 -94t73 -32q53 0 94 50q40 49 40 128z" />
    <glyph glyph-name="colon" unicode=":" horiz-adv-x="306" 
d="M222 298q-28 -9 -60 -9q-58 0 -58 46q0 42 35 77t85 35q39 0 39 -31q0 -18 -19 -63q-21 -51 -22 -55zM160 -13q-28 -9 -60 -9q-58 0 -58 46q0 42 35 77t85 35q39 0 39 -31q0 -18 -19 -63q-21 -51 -22 -55z" />
    <glyph glyph-name="semicolon" unicode=";" horiz-adv-x="296" 
d="M243 273q-34 -9 -59 -9q-27 0 -42 13t-15 35q0 41 34 75q33 34 83 34q39 0 39 -31q0 -19 -19 -64q-19 -46 -21 -53zM144 124q49 0 49 -40q0 -39 -50 -151q-50 -108 -55 -124q-5 -1 -19 -1q-22 0 -35.5 9.5t-13.5 26.5q0 16 14 61q0 1 11 37.5t16 57.5q-9 28 -9 53
q0 35 24.5 53t67.5 18z" />
    <glyph glyph-name="less" unicode="&#x3c;" horiz-adv-x="465" 
d="M409 523q16 0 31 -18t15 -36q0 -14 -21 -29l-265 -190l198 -169q24 -21 24 -35q0 -16 -20 -36q-19 -20 -38 -20q-15 0 -35 17q-31 29 -89 83q-12 11 -62 57q-24 22 -35 33q-32 26 -44 34q-4 11 -4 26q0 31 31 56l287 216q16 11 27 11z" />
    <glyph glyph-name="equal" unicode="=" horiz-adv-x="489" 
d="M464 388q2 -24 2 -26q0 -69 -67 -69q-41 0 -128 10t-120 10q-36 0 -58 -5l-2 22q0 60 72 60q22 0 119 -5q95 -5 106 -5q50 0 76 8zM422 229l2 -26q0 -68 -64 -68q-36 0 -127 15t-125 15q-22 0 -57 -6q-1 5 -1 21q0 60 70 60q36 0 122 -9q81 -10 107 -10q44 0 73 8z" />
    <glyph glyph-name="greater" unicode="&#x3e;" horiz-adv-x="435" 
d="M80 -9q-15 0 -31 19t-16 35q0 13 22 29l265 190l-199 169q-24 23 -24 35q0 18 21 37q19 19 37 19q16 0 36 -17q27 -25 74.5 -69t59.5 -55q6 -6 18 -17t18 -17q36 -34 60 -49q4 -16 4 -26q0 -32 -32 -56l-287 -216q-16 -11 -26 -11z" />
    <glyph glyph-name="question" unicode="?" horiz-adv-x="366" 
d="M473 654q0 -25 -9.5 -51.5t-19.5 -44t-36 -46t-36 -38.5t-45.5 -41.5t-40.5 -36.5q-102 -95 -102 -189q-24 -6 -32 -6q-41 0 -41 41q0 20 7.5 42.5t15.5 38t28 41t29 36t36 39t33 35.5q80 87 80 165q0 46 -28 72.5t-75 26.5q-54 0 -90 -32.5t-36 -82.5q0 -45 26 -92l4 -8
q7 -13 7 -20q0 -10 -12.5 -20t-23.5 -10q-16 0 -35 12l-13 9q-25 16 -43 48t-18 65q0 83 74 134t191 51q94 0 149.5 -36.5t55.5 -101.5zM179 -11q-30 -10 -63 -10q-59 0 -59 48q0 43 34 77q33 35 81 35q44 0 44 -33q0 -16 -17 -61q-18 -46 -20 -56z" />
    <glyph glyph-name="at" unicode="@" horiz-adv-x="1058" 
d="M703 671q150 0 235 -63t85 -179q0 -105 -54 -200t-135 -149t-162 -54q-78 0 -78 59q0 36 36 143l-5 1q-39 -106 -84.5 -155t-105.5 -49q-49 0 -78 32t-29 89q0 56 23.5 113t63 103t98.5 75t125 29q20 0 39 -3q15 19 60 19q22 0 30 -5.5t8 -18.5q0 -14 -44 -160
q-44 -147 -44 -187q0 -26 24 -26q42 0 89 44t80 118q34 74 34 155q0 221 -251 221q-87 0 -174.5 -36.5t-156.5 -99.5q-70 -64 -111 -153t-41 -184q0 -123 74.5 -186t208.5 -63q65 0 111 17q6 -9 6 -19q0 -29 -45.5 -47.5t-118.5 -18.5q-154 0 -251 73q-98 74 -98 212
q0 118 53 223t144 178q90 72 204.5 112t234.5 40zM478 99q41 0 87 72t81 194l17 59q-5 1 -21 1q-60 0 -110 -42q-49 -42 -73 -100q-25 -57 -25 -116q0 -68 44 -68z" />
    <glyph glyph-name="A" unicode="A" horiz-adv-x="1060" 
d="M1202 300q3 -4 3 -10q0 -8 -3 -17l-7 -21q-35 -98 -121 -183q-89 -86 -192 -86q-116 0 -116 99q0 24 9 61q-4 1 -139 20q-90 -133 -179 -192.5t-187 -59.5q-76 0 -129 36q-52 37 -52 100q0 88 92 138t247 50q57 0 187 -8q143 209 260 521l6 17q17 47 88 47q55 0 55 -32
q0 -8 -8 -48l-102 -516q7 0 22 2t18 2q4 -13 4 -29q0 -51 -60 -55q-3 -20 -3 -31q0 -38 41 -38q58 0 128 64q69 63 97 139l13 35q23 0 28 -5zM674 223q56 -5 117 -6l4 15l87 414l-4 1q-103 -257 -204 -424zM337 1q107 0 239 172q-109 15 -170 15q-72 0 -117 -30t-45 -80
q0 -34 25 -55.5t68 -21.5z" />
    <glyph glyph-name="B" unicode="B" horiz-adv-x="1031" 
d="M729 397q113 -7 178 -59t65 -133q0 -139 -107 -217q-107 -77 -270 -77q-111 0 -168.5 41t-57.5 116q0 36 9 80q4 22 11 56q7 31 21 86q25 96 29 114q5 21 19.5 78t21.5 83q6 24 17 66.5t19.5 77t16.5 65.5q-161 -16 -246 -112q-85 -94 -85 -226q0 -51 13 -109.5
t25.5 -96.5t12.5 -39q0 -13 -14.5 -23t-32.5 -10q-39 0 -89 80q-49 79 -49 177q0 166 146 287q71 58 179.5 92t235.5 34q165 0 255.5 -57t90.5 -152q0 -87 -73 -148q-72 -60 -173 -74zM841 610q0 143 -180 165l-88 -357h35q112 0 173 55q60 55 60 137zM621 -37q90 0 151 62
q61 61 61 158q0 86 -54.5 135.5t-144.5 49.5q-44 0 -78 -7q-58 -231 -58 -289q0 -53 32.5 -81t90.5 -28z" />
    <glyph glyph-name="C" unicode="C" horiz-adv-x="718" 
d="M819 270l14 35q22 0 27 -5q4 -4 4 -10q0 -8 -3 -17l-8 -21q-29 -86 -95 -162.5t-166 -129.5q-103 -55 -215 -55q-142 0 -222 73t-80 209q0 119 60 241q60 120 149 206q90 87 192 140q104 54 189 54q68 0 105 -32.5t37 -88.5q0 -57 -33 -116q-35 -60 -73 -99l-8 -8
q-34 -37 -67 -37q-13 0 -26 10.5t-13 22.5q0 10 16 36l7 11q64 100 64 167q0 66 -59 66q-53 0 -120 -48q-70 -50 -128 -123q-61 -76 -101 -176q-42 -101 -42 -195q0 -98 57 -157q56 -59 148 -59q115 0 233 80q116 79 157 188z" />
    <glyph glyph-name="D" unicode="D" horiz-adv-x="1227" 
d="M673 832q243 0 380 -102q136 -103 136 -284q0 -117 -48 -220t-129 -171q-80 -67 -179.5 -105t-201.5 -38q-228 0 -228 164q0 58 30 185q27 119 137 513q-186 -19 -281 -129t-95 -256q0 -116 58 -242l6 -14q8 -19 8 -26q0 -11 -14.5 -21t-31.5 -10q-48 0 -111 87
q-64 85 -64 203q0 189 159 325q78 66 199.5 103.5t269.5 37.5zM669 -32q66 0 133 34.5t120 93.5q54 60 85.5 146.5t31.5 181.5q0 155 -88.5 247t-251.5 105q-111 -404 -138 -515q-28 -116 -28 -173t36 -88.5t100 -31.5z" />
    <glyph glyph-name="E" unicode="E" horiz-adv-x="653" 
d="M754 270l14 35q22 0 27 -5q4 -4 4 -10q0 -10 -4 -17l-7 -21q-48 -141 -174 -240q-128 -99 -294 -99q-125 0 -204 59q-78 60 -78 159q0 104 86 181q85 74 212 106q-73 12 -118.5 54.5t-45.5 102.5q0 111 111 189q112 77 256 77q84 0 127 -29.5t43 -83.5q0 -64 -54 -135
t-93 -71q-15 0 -24.5 7.5t-9.5 18.5q0 7 29 65q28 55 28 100q0 37 -22.5 58t-63.5 21q-79 0 -139 -63t-60 -141q0 -53 28 -92t74 -55q99 19 131 19q40 0 40 -35q0 -21 -16 -33.5t-45 -12.5q-41 0 -101 15q-101 -24 -161 -90q-61 -65 -61 -141q0 -74 51 -119t140 -45
q116 0 222 75q107 76 152 196z" />
    <glyph glyph-name="F" unicode="F" horiz-adv-x="774" 
d="M901 804q57 0 57 -46t-36 -80q-37 -35 -103 -35q-47 0 -101 10q-36 -49 -79 -223l-35 -143q86 0 115 -8q26 -8 26 -29q0 -47 -51 -47q-22 0 -107 17l-16 -64q-58 -227 -168 -311q-100 -75 -238 -75q-99 0 -159 28q-62 29 -62 75q0 40 39 68q58 -45 121 -73t114 -28
q80 0 129 58q48 57 86 222l22 97q-89 -21 -163 -58q-22 23 -22 50q0 22 15 36t60.5 23.5t123.5 9.5v1q-194 44 -319 137q-129 93 -129 206q0 96 82 148t215 52q68 0 223 -23q159 -24 223 -25q87 30 137 30zM478 320l21 93q44 188 142 258q-40 11 -116 37q-96 31 -134 40
q-53 13 -104 13q-59 0 -90.5 -30.5t-31.5 -84.5q0 -87 91 -178q89 -91 222 -148z" />
    <glyph glyph-name="G" unicode="G" horiz-adv-x="842" 
d="M1073 -83q14 -30 14 -60q0 -39 -28 -61.5t-74 -22.5q-71 0 -235 58q-77 28 -118 39q-85 -214 -175 -290q-82 -68 -173 -68q-74 0 -119 41.5t-45 109.5q0 119 105 201q106 83 299 83h22q20 64 59 216l-8 1q-47 -90 -125 -142q-80 -54 -162 -54q-109 0 -169 62.5t-60 177.5
q0 113 59 233q117 232 345 349q107 55 202 55q144 0 144 -111q0 -61 -44 -123q-45 -62 -82 -62q-18 0 -30.5 9.5t-12.5 23.5q0 8 15 55q14 48 14 78q0 64 -54 64q-52 0 -123 -50q-70 -50 -132 -128q-62 -75 -106 -180t-44 -199q0 -77 34.5 -119.5t95.5 -42.5q76 0 158 82
q83 81 120 205q29 13 61 13q62 0 62 -47q0 -2 -2 -18l-9 -36q-50 -197 -94 -320q17 -2 89 -12q58 -7 125 -13q44 -4 107 -4q35 0 94 7zM328 -420q48 0 97 70q47 69 103 240q-32 2 -37 2q-59 0 -108 -21t-77 -56q-54 -66 -54 -142q0 -45 20 -69t56 -24z" />
    <glyph glyph-name="H" unicode="H" horiz-adv-x="1081" 
d="M1182 270l13 35q23 0 28 -5q4 -5 4 -10q0 -6 -4 -17l-7 -21q-44 -128 -158 -220q-116 -92 -231 -92q-58 0 -89.5 26t-31.5 75t28 136l12 39q13 43 53 165q-33 -12 -51 -17l-36 -11l-63 -20q-92 -260 -193 -370q-102 -110 -220 -110q-78 0 -123.5 38.5t-45.5 103.5
q0 93 106 180q109 87 357 175l6 21l8 28q47 170 47 224q0 60 -52 60q-13 2 -33.5 -4.5t-49 -20t-34.5 -15.5q-7 -4 -17 -4q-12 0 -20 10.5t-8 24.5q0 18 21 25q99 36 194 36q69 0 99.5 -24.5t30.5 -74.5q0 -67 -38 -195l-4 -13l-10 -31q12 5 43 13l41 12q30 8 68 23
q87 239 163 337q75 98 159 98q40 0 62.5 -23.5t22.5 -63.5q0 -82 -74 -180q-73 -97 -220 -174q-33 -107 -63 -216l-13 -46q-23 -87 -23 -118q0 -41 45 -41q71 0 166 71q93 71 135 181zM1093 807q-14 0 -29 -19q-16 -21 -41 -84q-24 -59 -64 -185q152 110 154 259
q0 29 -20 29zM281 -71q37 0 68 25q30 24 74 106q43 83 86 222q-305 -128 -305 -275q0 -36 21.5 -57t55.5 -21z" />
    <glyph glyph-name="I" unicode="I" horiz-adv-x="731" 
d="M873 300q4 -5 4 -10q0 -6 -4 -17l-7 -21q-49 -142 -178 -235t-356 -157q-72 -48 -124 -48q-41 0 -41 37q0 69 105 85l46 8q29 36 55 114q22 70 61 249l33 157q45 219 130 310l-74 -17q-184 -43 -258 -106q-72 -61 -72 -155q0 -98 64 -216l7 -13q15 -23 15 -32
q0 -11 -12 -20.5t-25 -9.5q-50 0 -118 87q-68 88 -68 181q0 242 431 325l152 29q82 79 136 79q22 0 37.5 -15t15.5 -36t-27 -34.5t-101 -27.5q-37 -49 -58 -144l-52 -221q-86 -361 -188 -467q180 44 283.5 119.5t146.5 191.5l13 35q23 0 28 -5z" />
    <glyph glyph-name="J" unicode="J" horiz-adv-x="899" 
d="M1041 300q4 -5 4 -10q0 -6 -4 -17l-7 -21q-18 -54 -85 -99q-68 -47 -229 -105q-142 -571 -450 -571q-88 0 -143 48q-56 50 -56 122q0 231 534 419l69 329q39 183 105 305l-117 -21q-380 -68 -380 -286q0 -114 101 -247q19 -23 19 -33q0 -12 -12.5 -22.5t-26.5 -10.5
q-26 0 -63.5 24t-73.5 63q-38 40 -63 96.5t-25 111.5q0 136 131 231q132 95 416 134l132 19q77 104 149 104q21 0 34.5 -12.5t13.5 -32.5q0 -26 -35.5 -54t-96.5 -45l-146 -609q138 49 192 82t72 78l13 35q21 0 28 -5zM322 -437q59 0 103 38t86 133q41 94 80 266
q-207 -82 -295 -167q-87 -83 -87 -156q0 -51 32 -82.5t81 -31.5z" />
    <glyph glyph-name="K" unicode="K" horiz-adv-x="1099" 
d="M1241 300q4 -4 4 -10q0 -10 -4 -17l-7 -21q-48 -141 -127 -255q-41 -58 -89 -92t-95 -34q-52 0 -85 35q-35 36 -57 142q-23 104 -31 294q-42 -21 -54 -26q-97 -286 -210 -424t-260 -138q-86 0 -137.5 43.5t-51.5 110.5q0 108 129 208q131 102 413 208l11 38l22 78
q38 138 38 199q0 98 -110 98q-106 0 -180 -62q-75 -61 -75 -157q-1 -43 16 -92.5t34 -81.5t16 -37q0 -10 -11.5 -19.5t-25.5 -9.5q-41 0 -99 58q-29 28 -48 72.5t-19 91.5q0 86 63 154q64 69 162 103t212 34q104 0 151 -34.5t47 -100.5t-39 -191l-19 -61l-7 -23
q114 58 186 182q72 123 87 280q27 8 53 8q31 0 50.5 -18t19.5 -48q0 -99 -86 -212q-84 -111 -218 -196q37 -241 78 -315q20 -37 37.5 -50.5t43.5 -13.5q58 0 121 73t110 199l13 35q23 0 28 -5zM283 -160q145 0 277 422q-185 -80 -279.5 -166.5t-94.5 -161.5q0 -42 27 -68
t70 -26z" />
    <glyph glyph-name="L" unicode="L" horiz-adv-x="836" 
d="M877 -61q8 -30 8 -49q0 -92 -111 -92q-67 0 -178 37q-104 35 -356 142q-81 -57 -150 -57q-53 0 -53 46q0 37 30.5 64.5t74.5 27.5q41 0 95 -14q77 83 166 313l34 89q79 209 186.5 314t224.5 105q62 0 97.5 -32t35.5 -83q0 -73 -52 -159q-53 -87 -116 -143
q-64 -56 -98 -56q-12 0 -21.5 8t-9.5 18q0 9 23 41q135 173 135 283q0 52 -40 52q-34 0 -81 -59q-59 -72 -152 -283l-36 -81q-53 -120 -122 -218q-67 -96 -116 -127q357 -92 525 -92q35 0 57 5z" />
    <glyph glyph-name="M" unicode="M" horiz-adv-x="1427" 
d="M1024 825q39 0 39 -36q0 -32 -16 -106l-96 -471l3 -1q114 165 285 545q18 47 42.5 67.5t61.5 20.5q23 0 32 -7.5t9 -24.5q0 -15 -20 -104l-81 -394q-41 -207 -41 -225q0 -44 46 -44q56 0 133 71t108 154l13 35q23 0 28 -5q4 -5 4 -10q0 -6 -4 -17l-7 -21
q-37 -106 -136 -202q-97 -94 -205 -94q-113 0 -113 102q0 27 17 109q23 110 97 452l-4 1q-145 -317 -282 -524q-24 -70 -57.5 -110.5t-66.5 -40.5q-32 0 -32 27q0 30 24 89q50 203 101 523l-5 1q-169 -391 -296.5 -546.5t-271.5 -157.5q-104 0 -183 62q-78 61 -78 115
q0 17 13.5 32.5t28.5 15.5q8 0 32 -12l19 -11q113 -60 205 -60q43 0 81.5 15.5t88.5 58.5t107 120q128 176 271 503l9 35q9 38 31.5 54t65.5 16z" />
    <glyph glyph-name="N" unicode="N" horiz-adv-x="1139" 
d="M825 -25l-126 499l-45 -145q-78 -251 -165 -361q-89 -108 -203 -108q-85 0 -160 54q-75 56 -75 101q0 15 12 29.5t24 14.5q9 0 44 -16l13 -7q105 -47 170 -47q43 0 79 18.5t76 63.5q81 91 165 351l42 130q-23 69 -23 99q0 45 27 82q26 36 60 36q25 0 34.5 -21.5
t8.5 -80.5l134 -532l110 396q48 172 104 236q55 63 132 63q38 0 61 -19.5t23 -55.5q0 -27 -18 -64q-45 17 -84 17q-53 0 -91 -39.5t-65 -128.5l-149 -484q7 -52 7 -57q0 -42 -26 -76q-25 -33 -61 -33q-40 0 -40 38q0 9 5 47z" />
    <glyph glyph-name="O" unicode="O" horiz-adv-x="1077" 
d="M1178 270l14 35q31 1 31 -16q0 -5 -3 -16l-8 -21q-50 -142 -178 -227q-130 -87 -326 -88q-121 -85 -262 -85q-164 0 -259 92q-95 93 -95 261q0 95 27 186q27 90 65 153q38 60 73.5 97t56.5 37q7 0 15 -6t8 -12q0 -3 -7 -19t-22 -47.5t-25 -54.5q-22 -49 -38 -124
q-17 -82 -17 -160q0 -156 74 -245q73 -89 188 -89q56 0 110 26q-133 26 -205 118t-72 233q0 144 56 270q55 123 148 196q92 71 193 71q122 0 192 -86t70 -248q0 -142 -50 -270.5t-140 -222.5q142 10 242 78t144 184zM447 356q0 -148 63.5 -236.5t175.5 -107.5q68 73 108 193
q38 120 38 254q0 145 -42.5 227.5t-112.5 82.5q-86 0 -158 -123q-72 -124 -72 -290z" />
    <glyph glyph-name="P" unicode="P" horiz-adv-x="897" 
d="M972 595q0 -133 -132 -228q-134 -97 -338 -107q-57 -245 -57 -313q0 -4 2 -20q-27 -13 -59 -13q-34 0 -55 17t-21 47q0 58 70 325l124 477q-151 -17 -230 -102t-79 -221q0 -93 45 -182l3 -6q8 -18 8 -24q0 -13 -13 -24t-30 -11q-43 0 -96 71t-53 159q0 174 151 283
q149 109 387 109q173 0 273 -64t100 -173zM834 572q0 87 -54.5 142t-153.5 66l-93 -388l-20 -82q154 18 237.5 87.5t83.5 174.5z" />
    <glyph glyph-name="Q" unicode="Q" horiz-adv-x="998" 
d="M1151 -181q10 -30 10 -59q0 -48 -32 -73.5t-88 -25.5q-74 0 -176 36q-13 5 -35.5 13.5t-39 15t-29.5 11.5q-45 18 -144 60q-84 36 -169 70q-3 -1 -20.5 -7.5t-22.5 -8.5q-4 -1 -21 -6.5t-23 -7.5q-40 -10 -65 -10q-26 0 -40.5 12t-14.5 31q0 29 25.5 52.5t60.5 23.5
q55 0 119 -21q159 54 252 192t93 329q0 159 -58 250q-59 92 -163 92q-82 3 -159.5 -62.5t-124.5 -175.5t-45 -229q0 -127 66 -194q65 -69 166 -69q18 0 38 2.5t33 5.5l13 2q8 0 13 -7.5t5 -17.5q0 -15 -17 -23l-11 -5q-54 -23 -130 -23q-139 0 -231 79q-93 79 -93 225
q0 152 73 280q72 128 190 201q116 73 248 73q154 0 245 -93q91 -92 91 -278q0 -198 -112 -349q-113 -152 -294 -227q370 -92 517 -92q49 0 100 8z" />
    <glyph glyph-name="R" unicode="R" horiz-adv-x="862" 
d="M1004 300q4 -4 4 -10q0 -10 -4 -17l-7 -21q-53 -154 -137 -256q-85 -102 -179 -102q-177 0 -169 401q-41 -8 -41 29q0 27 19.5 49.5t40.5 22.5q27 0 33 -37q65 28 118 93q51 63 51 142q0 76 -48.5 124t-133.5 58q-5 -14 -12 -48q-5 -18 -30 -121q-8 -33 -25 -100.5
t-22 -89.5q-88 -351 -87 -427q-27 -13 -58 -13t-51.5 17.5t-20.5 44.5q0 19 7 54q9 42 21 86q6 22 17 63.5t19 72.5q15 55 24 91q21 80 30 116q5 18 9.5 36t9 35.5t6.5 24.5q6 22 18 68q15 58 27 87q-127 -20 -188 -95q-63 -76 -63 -178q0 -75 39 -147l4 -8q10 -16 10 -27
q0 -12 -11.5 -22t-27.5 -10q-50 0 -100 60q-50 59 -50 137q0 130 129 237q62 51 159.5 81.5t209.5 30.5q154 0 241.5 -56.5t87.5 -156.5q0 -111 -84 -196q-85 -85 -219 -117q32 -290 156 -290q63 0 127 66t110 188l14 35q22 0 27 -5z" />
    <glyph glyph-name="S" unicode="S" horiz-adv-x="787" 
d="M275 274q-73 -94 -73 -184q0 -65 47 -106.5t120 -41.5q84 0 139 52q55 54 55 134q0 20 -5 39.5t-17 40.5t-22 36.5t-30.5 38t-31 34t-35.5 36t-33 32.5q-96 96 -96 192q0 117 96 194q94 76 234 76q98 0 150.5 -38.5t52.5 -104.5q0 -57 -44 -116t-79 -59q-15 0 -28 8
t-13 19q0 8 19 50q19 41 19 80q0 44 -28 68.5t-80 24.5q-68 0 -114 -46q-47 -47 -47 -117q0 -18 5 -37t17.5 -40.5t22 -36t32 -39t31.5 -35t37 -38.5l34 -34q97 -101 97 -193q0 -121 -104 -204q-104 -82 -263 -82q-128 0 -201 55q-74 56 -74 145t55 154q56 65 104 64
q32 0 51 -21z" />
    <glyph glyph-name="T" unicode="T" horiz-adv-x="592" 
d="M501 720l-146 -598q-17 -73 -17 -106q0 -49 50 -49q75 0 166 88t139 215l13 35q23 0 28 -5q3 -4 3 -10q0 -8 -3 -17l-7 -21q-53 -150 -162 -255q-111 -105 -236 -105q-66 0 -100.5 27t-34.5 78q0 58 27 163l139 529q-168 -147 -308 -147q-71 0 -115 34t-44 90
q0 78 77.5 126.5t212.5 48.5q59 0 270 -20q209 -20 267 -20q71 0 98 7q12 -30 12 -54q0 -36 -25.5 -55.5t-70.5 -19.5q-74 0 -233 41zM18 694q0 -31 24 -49.5t65 -18.5q55 0 126 33t143 92q-137 34 -219 34q-67 0 -103 -25.5t-36 -65.5z" />
    <glyph glyph-name="U" unicode="U" horiz-adv-x="924" 
d="M1066 300q4 -5 4 -10t-4 -17l-7 -21q-31 -88 -123 -153q-94 -65 -219 -65q-56 0 -101 12q-143 -122 -308 -122q-107 0 -170.5 52t-63.5 146q0 72 41 186q39 108 81 211q40 96 40 139q0 37 -38 37q-25 0 -76 -21q-53 -21 -64 -21q-12 0 -21.5 11t-9.5 25q0 17 21 24
q31 12 98 24q68 11 116 11q112 0 112 -89q0 -39 -38 -139q-39 -100 -78 -207t-39 -164q0 -73 40.5 -113.5t112.5 -40.5q100 0 182 78q-96 61 -96 210q0 121 50 253q49 128 131 216q81 86 163 86q55 0 85 -33.5t30 -98.5q0 -134 -65 -306q-64 -169 -176 -295q37 -14 77 -14
q93 0 168 51t104 128l13 35q21 0 28 -5zM776 695q0 46 -14.5 62.5t-38 -0.5t-48.5 -63q-38 -68 -68 -182q-29 -111 -29 -207q0 -101 40 -154q75 111 117 268q41 159 41 276z" />
    <glyph glyph-name="V" unicode="V" horiz-adv-x="801" 
d="M357 644q0 -68 -49 -283t-49 -295q0 -56 40 -56q59 -3 140.5 85.5t143.5 226.5q43 91 70 217q27 125 27 252q0 4 -2 66q30 8 60 8q93 0 93 -107q0 -143 -56 -296q-58 -155 -142 -265q-84 -113 -190 -186q-103 -73 -195 -73q-61 0 -93.5 28t-32.5 81q0 75 49 298
q48 225 48 288q0 47 -45 47q-30 0 -79 -20t-59 -20q-12 0 -20.5 11.5t-8.5 26.5q0 18 26 26q112 34 207 34q117 0 117 -94z" />
    <glyph glyph-name="W" unicode="W" horiz-adv-x="1137" 
d="M1279 300q4 -5 4 -10t-4 -17l-7 -21q-31 -92 -117 -163q-85 -70 -206 -70q-69 0 -118 24q-143 -147 -267 -147q-122 0 -122 116q0 74 19 156q-59 -120 -121 -180t-140 -60q-53 0 -83 30.5t-30 87.5q0 76 68 300t68 287q0 47 -44 47q-30 0 -79 -20t-59 -20q-13 0 -21 11
t-8 27q0 19 25 26q115 34 200 34q124 0 124 -98q0 -71 -70 -288q-71 -221 -71 -292q0 -50 39 -50q38 0 97 74q55 69 119 211q71 515 191 515q38 0 38 -55q0 -62 -29 -176q-28 -111 -66 -202q-16 -69 -27 -164q-11 -101 -11 -166q0 -74 52 -74q63 0 150 113q-59 65 -59 182
q0 115 40 245q40 132 111 229q70 97 148 97q49 0 75.5 -33.5t26.5 -95.5q0 -150 -63 -311q-63 -162 -163 -288q39 -30 96 -30q85 0 154 54q67 54 99 135l13 35q23 0 28 -5zM823 296q0 -61 15 -109q63 110 104 248q40 135 40 266q0 70 -19 70q-34 0 -87 -176
q-53 -177 -53 -299z" />
    <glyph glyph-name="X" unicode="X" horiz-adv-x="770" 
d="M912 300q4 -4 4 -10q0 -10 -4 -17l-7 -21q-55 -159 -139 -254q-82 -93 -163 -93q-64 0 -103 42q-38 43 -73 153l-66 212q-179 -209 -188 -434q-31 -4 -47 -4q-101 0 -101 89q0 83 87 186q85 103 233 213l-86 275q-15 49 -31 69t-37 20q-16 0 -52 -17q-35 -18 -45 -18
q-12 0 -20 9.5t-8 23.5q0 16 18 23q87 38 161 38q56 0 91.5 -33t61.5 -117l64 -203q97 103 137 200q42 101 49 215l32 2q101 0 101 -78q0 -77 -80 -180q-82 -104 -223 -210l68 -214q28 -91 54 -123q24 -33 56 -33q49 0 108 67t107 192l13 35q23 0 28 -5z" />
    <glyph glyph-name="Y" unicode="Y" horiz-adv-x="819" 
d="M961 300q4 -5 4 -10q0 -6 -4 -17l-7 -21q-83 -239 -261 -239q-43 0 -96 15q-164 -524 -403 -524q-82 0 -129.5 51t-47.5 143q0 181 115 309q114 129 279 129q41 0 110 -12q28 111 73 318l-7 4q-36 -129 -117 -202q-83 -74 -181 -74q-64 0 -102.5 32.5t-38.5 90.5
q0 50 29 129q23 64 58 146q28 66 28 93q0 44 -43 44q-27 0 -78 -20t-61 -20q-13 0 -21.5 11.5t-8.5 27.5q0 18 24 26q105 30 199 30q67 0 94.5 -22.5t27.5 -71.5q0 -43 -56 -176q-57 -134 -57 -178q0 -30 18 -46.5t49 -16.5q83 0 153 111q61 99 102 301l20 98q13 72 104 72
q42 0 42 -42q0 -17 -5 -39l-92 -423q-26 -118 -54 -221q58 -9 92 -9q143 0 208 173l13 35q23 0 28 -5zM236 -420q31 0 56.5 17t58.5 62q71 99 152 400q-77 23 -115 23q-105 0 -168 -108q-64 -106 -64 -253q0 -70 21 -105.5t59 -35.5z" />
    <glyph glyph-name="Z" unicode="Z" horiz-adv-x="688" 
d="M634 724q9 16 14 54q5 35 12 56q8 21 32 21q25 0 48 -17.5t23 -38.5q0 -37 -38 -76q-2 -3 -11.5 -13t-18 -20t-15.5 -17q-9 -9 -35 -37t-35 -37l-406 -434l2 -4q29 3 78 -20q46 -23 90 -51q43 -29 95 -53q51 -25 91 -25q68 0 122.5 59.5t106.5 198.5l14 35q22 0 27 -5
q4 -4 4 -10q0 -8 -3 -17l-5 -16q-61 -190 -139.5 -290t-168.5 -100q-33 0 -65 14t-61.5 41.5t-50.5 51.5t-46 57q-69 89 -103 89q-13 0 -21 -14q-3 -9 -3 -24q0 -5 1.5 -26t1.5 -27q0 -55 -42 -55q-30 0 -54 18.5t-24 42.5q0 41 70 124q69 82 332 359l151 159l-3 3
q-24 -2 -29 -2q-56 0 -155 31t-130 31q-59 0 -59 -83q0 -24 -29 -24q-24 0 -42 32t-18 88q0 58 31 96t79 38q39 0 92 -25q54 -26 98 -57q42 -29 100 -56q53 -25 95 -25z" />
    <glyph glyph-name="bracketleft" unicode="[" horiz-adv-x="302" 
d="M446 772q-1 -18 -8 -24.5t-25 -6.5l-63 1q-23 0 -28 -23l-208 -906q-2 -6 -2 -11q0 -16 21 -18l64 -5q21 -1 21 -20q-1 -19 -8 -26t-26 -8l-88 -5q-100 -4 -100 70q0 18 6 40l206 899q20 84 94 84q12 0 27 -3l90 -14q27 -4 27 -24z" />
    <glyph glyph-name="backslash" unicode="\" horiz-adv-x="379" 
d="M-10 812q42 24 70 24q26 0 41.5 -16.5t25.5 -52.5q1 -7 21 -72q15 -55 23 -78q7 -23 21 -73q15 -52 26 -86q4 -14 26 -84q14 -50 32 -99q47 -141 75 -222q22 -64 34 -86q-36 -30 -69 -30q-29 0 -46 18.5t-29 62.5q-103 364 -214 697q-24 72 -37 97z" />
    <glyph glyph-name="bracketright" unicode="]" horiz-adv-x="300" 
d="M-127 -239q0 18 7.5 24.5t25.5 6.5l63 -1q22 0 27 23l209 906q1 3 1 11q0 17 -21 18l-63 5q-21 2 -21 20q1 19 7.5 26t25.5 8l89 5q99 5 99 -70q0 -12 -5 -40l-206 -899q-19 -84 -94 -84q-13 0 -27 3l-90 14q-16 2 -21.5 7.5t-5.5 16.5z" />
    <glyph glyph-name="asciicircum" unicode="^" horiz-adv-x="494" 
d="M363 391l-62 190l-162 -200q-21 -27 -36 -29t-28 12q-16 10 -15 22t22 41l153 205q45 57 90 57q60 0 85 -76l8 -22q32 -95 52 -162q13 -45 24 -66q-30 -27 -65 -27q-48 0 -66 55z" />
    <glyph glyph-name="underscore" unicode="_" horiz-adv-x="524" 
d="M508 1q2 -24 2 -26q0 -71 -70 -71q-41 0 -188 9q-140 10 -194 10q-35 0 -57 -7q-1 6 -1 24q0 36 16.5 51.5t52.5 15.5q52 0 182 -7t180 -7q56 0 77 8z" />
    <glyph glyph-name="grave" unicode="`" horiz-adv-x="280" 
d="M239 559q-29 0 -60 36l-27 34q-38 48 -69 81q43 40 80 40t61 -47l16 -29l46 -88q-22 -27 -47 -27z" />
    <glyph glyph-name="a" unicode="a" 
d="M716 300q4 -4 4 -10q0 -8 -3 -17l-8 -21q-35 -101 -122 -181q-88 -82 -171 -82q-41 0 -63 19t-22 52q0 44 41 155l-6 2q-45 -119 -96 -173.5t-117 -54.5q-54 0 -86 35.5t-32 99.5q0 87 44 168t123 135q80 55 178 55q22 0 41 -3q17 35 75 35q24 0 33 -6t9 -21
q0 -19 -51 -188q-52 -168 -52 -203q0 -29 25 -29q50 0 118 60q65 59 97 143l14 35q20 0 27 -5zM202 72q44 0 97 81q52 78 91 216l18 66q-5 1 -23 1q-49 0 -94.5 -26.5t-75.5 -70.5q-62 -91 -62 -191q0 -76 49 -76z" />
    <glyph glyph-name="b" unicode="b" horiz-adv-x="598" 
d="M740 300q4 -4 4 -10q0 -10 -4 -17l-7 -21q-28 -86 -121 -149q-91 -61 -216 -61q-6 0 -32 2q-86 -59 -171 -59q-132 0 -132 119q0 46 23 149l27 111q13 56 39 159q9 36 24.5 100.5t22.5 93.5l16 67q7 31 24 43t58 12q42 0 42 -32q0 -24 -41 -168q-49 -174 -82 -303
q-41 -162 -41 -226q0 -65 53 -65q33 0 69 21q-53 35 -53 114q0 110 68 211q67 100 146 100q47 0 74.5 -28t27.5 -78q0 -69 -35 -146t-95 -140h4q96 0 167.5 47.5t101.5 127.5l11 31q21 2 28 -5zM415 427q-30 0 -60 -75q-31 -75 -31 -148q0 -57 31 -82q38 49 61 117t23 135
q0 53 -24 53z" />
    <glyph glyph-name="c" unicode="c" horiz-adv-x="454" 
d="M332 490q48 0 73 -22t25 -61q0 -49 -36 -95q-36 -47 -66 -47q-14 0 -24.5 7.5t-10.5 17.5q0 7 16 45q15 39 15 65q0 28 -24 28q-46 0 -94 -87q-48 -89 -48 -170q0 -111 110 -111q85 0 171 62q85 62 116 148l14 35q22 0 27 -5q4 -4 4 -10q0 -8 -3 -17l-5 -15
q-40 -111 -141 -193q-104 -83 -227 -83q-90 0 -138.5 41.5t-48.5 122.5q0 74 44 156q44 80 114 134q71 54 137 54z" />
    <glyph glyph-name="d" unicode="d" horiz-adv-x="577" 
d="M719 300q4 -4 4 -10q0 -8 -3 -17l-8 -21q-35 -101 -120 -182q-87 -81 -172 -81q-88 0 -88 74q0 47 40 152l-6 2q-45 -119 -96 -173.5t-117 -54.5q-54 0 -86 35.5t-32 99.5q0 87 44 168t123 135q80 55 178 55q18 0 35 -3l72 309q6 29 23.5 40t56.5 11q41 0 41 -30
q0 -8 -3 -17l-165 -660q-5 -18 -5 -31q0 -34 29 -34q52 0 118 60q64 58 96 143l14 35q22 0 27 -5zM202 72q48 0 105 94q57 95 93 251l4 18l-19 1q-49 0 -94.5 -26.5t-75.5 -70.5q-62 -91 -62 -191q0 -76 49 -76z" />
    <glyph glyph-name="e" unicode="e" horiz-adv-x="490" 
d="M632 300q4 -4 4 -10q0 -9 -4 -17l-7 -21q-34 -102 -147 -185t-241 -83q-91 0 -143 42.5t-52 124.5q-3 75 43 155.5t119.5 133t144.5 50.5q51 0 80.5 -24t29.5 -66q0 -76 -78 -133q-79 -58 -217 -67l-1 -16q0 -122 122 -122q88 0 182 62q93 63 124 146l14 35q22 0 27 -5z
M308 418q-41 0 -82 -53t-56 -122q81 8 127 52q45 43 45 88q0 35 -34 35z" />
    <glyph glyph-name="f" unicode="f" horiz-adv-x="322" 
d="M421 789q-77 0 -117 -168l-101 -415q84 -31 118 -31q67 0 103 99l12 31q23 0 28 -5q4 -4 4 -10q0 -9 -4 -17l-7 -21q-24 -70 -60 -101.5t-90 -31.5q-41 0 -121 21l-35 -144q-5 -22 -15 -56q30 -3 91 -12q86 -11 107 -13q43 -4 91 -4q34 0 80 8q10 -24 10 -51
q0 -33 -23 -51.5t-62 -18.5q-54 0 -172 39q-116 40 -139 45q-115 -360 -319 -360q-67 0 -106.5 35.5t-39.5 100.5q0 96 97 185q47 44 119.5 71.5t155.5 30.5l1 2l54 223q-63 16 -81 19q3 70 51 70q13 0 48 -12l74 308q67 285 264 285q28 0 53.5 -7t35.5 -16q10 -10 10 -22
q0 -20 -9 -33t-23 -13q-9 0 -35 20t-48 20zM-163 -410q31 0 56.5 24.5t56.5 91.5t64 190q-66 -1 -125 -42q-57 -39 -87 -90q-29 -52 -29 -96q0 -37 17.5 -57.5t46.5 -20.5z" />
    <glyph glyph-name="g" unicode="g" horiz-adv-x="551" 
d="M825 -81q10 -24 10 -51q0 -33 -23.5 -51.5t-62.5 -18.5q-53 0 -197 39q-130 37 -178 47q-53 -182 -135 -272t-183 -90q-67 0 -106.5 35.5t-39.5 100.5q0 96 98 186q47 43 120.5 71t155.5 30q15 52 48 152q33 96 39 118l-5 2q-45 -119 -96 -173.5t-117 -54.5
q-55 0 -87 35.5t-32 100.5q0 86 44 167t123 135q80 55 178 55q27 0 44 -4q17 23 70 23q23 0 32 -6t9 -21q0 -14 -31 -126q-8 -26 -28 -98l-36 -129l-49 -180q6 0 25 -2t58 -6t76 -8q142 -14 196 -14q34 0 80 8zM201 72q45 0 97 81q52 78 91 216l19 66q-5 1 -23 1
q-68 0 -123 -46q-54 -45 -82 -112q-28 -65 -28 -130q0 -76 49 -76zM93 -410q46 0 87 65q40 65 87 231l3 10q-67 -3 -124 -42q-58 -39 -87 -90q-29 -52 -29 -96q0 -37 17 -57.5t46 -20.5z" />
    <glyph glyph-name="h" unicode="h" horiz-adv-x="607" 
d="M435 493q49 0 78 -28t29 -76q0 -47 -36 -155q-37 -108 -37 -141q0 -29 28 -29q45 0 113 62q66 60 98 144l13 35q23 0 28 -5q4 -5 4 -10q0 -6 -4 -17l-7 -21q-36 -103 -123 -184q-88 -82 -179 -82q-42 0 -65.5 19.5t-23.5 57.5q0 41 35 154q35 111 35 149q0 44 -38 44
q-57 0 -121 -100q-65 -101 -99 -262l-3 -14l-8 -37q-32 -8 -50 -8q-62 0 -62 50q0 21 19 92q4 13 8 29.5t10 39.5t10 38q5 20 47 195q30 131 66 297l12 55q6 31 24.5 43.5t59.5 12.5q43 0 43 -35q0 -46 -151 -530q-17 -56 -27 -87l5 -2q56 156 122 231t147 75z" />
    <glyph glyph-name="i" unicode="i" horiz-adv-x="303" 
d="M293 571q-36 -9 -60 -9q-28 0 -43.5 13t-15.5 35q0 38 32 72q32 32 78 32q44 0 44 -34q0 -19 -16 -58q-18 -46 -19 -51zM41 63q0 55 51 228q31 104 35 122l5 20q9 33 27.5 46t60.5 13q40 0 40 -25q0 -19 -50 -174q-51 -153 -51 -200q0 -29 30 -29q48 0 116 62
q67 62 99 144l13 35q22 0 27 -5q4 -4 4 -10q0 -8 -3 -17l-7 -21q-36 -102 -125 -184q-88 -82 -183 -82q-89 0 -89 77z" />
    <glyph glyph-name="j" unicode="j" horiz-adv-x="300" 
d="M235 562q-29 0 -44.5 13t-15.5 35q0 39 33 72q32 32 77 32q44 0 44 -34q0 -19 -16 -58q-18 -46 -19 -51q-36 -9 -59 -9zM502 -81q10 -21 10 -51q0 -33 -23 -51.5t-62 -18.5q-55 0 -172 40q-118 40 -140 45q-53 -179 -135.5 -270t-183.5 -91q-67 0 -106 35.5t-39 100.5
q0 99 103 190t267 97l116 488q8 34 26.5 46.5t61.5 12.5q40 0 40 -30q0 -24 -30 -137q-17 -60 -26 -93q-17 -62 -33 -120l-46 -172q24 -3 124 -15q114 -14 168 -14q34 0 80 8zM-166 -410q98 0 175 306q-98 -4 -169 -80q-70 -74 -70 -148q0 -38 17 -58t47 -20z" />
    <glyph glyph-name="k" unicode="k" horiz-adv-x="547" 
d="M341 210q14 -92 37.5 -132.5t60.5 -40.5q48 0 110 65q60 64 99 168l13 35q23 0 28 -5q4 -4 4 -10q0 -9 -4 -17l-7 -21q-44 -126 -123 -223q-79 -99 -165 -99q-68 0 -97 67.5t-21 208.5q-27 0 -27 23q0 19 16 39t34 20q29 0 33 -39q32 21 50 52t18 62q0 47 -38 47
q-50 0 -105 -100q-58 -102 -92 -258l-13 -63q-27 -6 -46 -6q-67 0 -67 56q0 22 16 79q14 50 58 224q41 162 87 377l15 69q7 32 24.5 44t59.5 12q40 0 40 -31q0 -53 -177 -624l5 -2q57 161 116 234.5t133 73.5q46 0 74.5 -27.5t28.5 -72.5q0 -60 -47.5 -110.5t-130.5 -74.5z
" />
    <glyph glyph-name="l" unicode="l" horiz-adv-x="385" 
d="M527 300q4 -4 4 -10q0 -10 -4 -17l-7 -21q-34 -100 -141 -186q-106 -85 -214 -85q-110 0 -110 100q0 69 73 325l10 36q120 418 276 418q42 0 66.5 -25.5t24.5 -71.5q0 -127 -101 -282q-86 -133 -220 -285q-10 -44 -10 -90q0 -45 45 -45q65 0 151 63q84 62 116 146l13 35
q23 0 28 -5zM248 469l-10 -43q-19 -83 -35 -145q87 126 140 252q53 129 53 217q0 37 -20 37q-54 0 -128 -318z" />
    <glyph glyph-name="m" unicode="m" horiz-adv-x="859" 
d="M437 189l5 -2q60 168 113 235q56 71 132 71q48 0 77 -28t29 -76t-37 -159t-37 -142q0 -29 27 -29q47 0 114 64q69 66 100 147l13 35q23 0 28 -5q4 -5 4 -10q0 -6 -4 -17l-7 -21q-36 -103 -124 -187t-180 -84q-42 0 -65.5 19.5t-23.5 57.5t35 152t35 154q0 46 -35 46
q-51 0 -103 -97t-88 -257l-3 -14q-8 -33 -22.5 -45t-43.5 -12q-64 0 -64 39q0 20 44 149t44 189q0 48 -38 48q-49 0 -104 -97q-56 -98 -93 -263l-4 -16q-3 -15 -9 -43q-31 -7 -50 -7q-62 0 -62 49q0 16 11 51q16 49 34 119q22 84 42 208l3 22q5 32 24 44.5t59 12.5
q36 0 36 -23q0 -16 -26 -94q-22 -61 -61 -184l5 -2q60 168 113 235q54 71 130 71q39 0 62 -23.5t23 -60.5q0 -21 -6 -53q-4 -15 -17 -62q-10 -31 -23 -69q-9 -25 -12 -36z" />
    <glyph glyph-name="n" unicode="n" horiz-adv-x="608" 
d="M709 270l13 35q20 0 28 -5q4 -4 4 -10q0 -9 -4 -17l-7 -21q-34 -101 -123 -184q-88 -82 -180 -82q-42 0 -65.5 19.5t-23.5 57.5q0 41 35 154q35 111 35 150q0 43 -38 43q-55 0 -120 -99q-65 -101 -99 -263l-3 -14l-9 -43q-31 -7 -50 -7q-62 0 -62 49q0 16 11 51
q16 49 34 119q22 84 42 208l3 22q5 32 24 44.5t59 12.5q36 0 36 -23q0 -16 -26 -94q-22 -61 -61 -184l5 -2q56 158 121.5 232t146.5 74q49 0 78 -28t29 -76q0 -46 -36 -154q-37 -108 -37 -142q0 -29 27 -29q47 0 115 62q66 60 98 144z" />
    <glyph glyph-name="o" unicode="o" horiz-adv-x="607" 
d="M749 300q4 -5 4 -10q0 -6 -4 -17l-7 -21q-29 -85 -113 -141q-86 -58 -204 -59q-86 -76 -193 -76q-86 0 -137 45.5t-51 122.5q0 120 84 222q85 103 190 137q15 5 27 5q11 0 19 -7t8 -15q0 -9 -22 -22q-71 -41 -125 -129q-55 -88 -55 -171q0 -59 26 -90.5t70 -31.5
q34 0 69 24q-86 35 -86 136q0 89 67 175q68 86 139 86q46 0 74 -32t28 -91q0 -125 -78 -229q83 8 144 50t85 109l13 35q23 0 28 -5zM408 390q-26 0 -52 -53q-27 -54 -27 -111q0 -79 56 -106q55 85 55 199q0 71 -32 71z" />
    <glyph glyph-name="p" unicode="p" horiz-adv-x="607" 
d="M749 300q4 -4 4 -10q0 -10 -4 -17l-7 -21q-21 -59 -84 -91t-171 -48q-37 -67 -92.5 -105.5t-115.5 -38.5q-37 0 -60.5 18t-23.5 48q0 70 87 98q51 16 118 23q26 78 26 160q0 94 -41 94q-55 0 -123 -113q-68 -115 -104 -282q-52 -236 -69 -329q-16 -85 -14 -134
q-21 -10 -57 -10q-31 0 -49.5 15t-18.5 43t14 87q9 39 18 75q1 5 11 46t18 73q6 26 19 79.5t19 79.5q10 40 27 122q16 80 33 162q18 90 21 103q9 37 29 51t60 14q34 0 34 -21q0 -26 -51 -166q-22 -58 -40 -116l5 -2q56 157 120.5 231.5t143.5 74.5q56 0 86.5 -35.5
t30.5 -103.5q0 -98 -33 -184q84 12 131 34.5t62 65.5l13 35q23 0 28 -5zM299 32q39 0 75 65q-100 -13 -100 -44q0 -21 25 -21z" />
    <glyph glyph-name="q" unicode="q" horiz-adv-x="580" 
d="M722 300q4 -4 4 -10q0 -10 -4 -17l-7 -21q-18 -51 -56.5 -101t-69.5 -76.5t-80 -64.5q-96 -74 -117 -128q-1 -5 -32 -162q-28 -132 -24 -184q-27 -9 -51 -9q-33 0 -52 15.5t-19 44.5q0 45 79 336l45 171q15 59 34 121l-6 2q-45 -119 -96 -173.5t-117 -54.5
q-54 0 -86 35.5t-32 99.5q0 87 44 168t123 135q80 55 178 55q20 0 47 -4q16 22 64 22q24 0 33.5 -6t9.5 -21q0 -4 -58 -229q-38 -152 -55 -229q29 23 71 52q28 19 76 55q33 25 65 65t48 83l14 35q22 0 27 -5zM202 72q44 0 97 81q52 78 91 216l19 66q-5 1 -24 1
q-49 0 -94.5 -26.5t-75.5 -70.5q-62 -91 -62 -191q0 -76 49 -76z" />
    <glyph glyph-name="r" unicode="r" horiz-adv-x="450" 
d="M192 63q0 46 34 148t34 136q0 22 -10.5 31.5t-36.5 9.5q-12 0 -42 -2q-11 -63 -28 -112l-8 -23q-5 -11 -12 -11q-5 0 -16 4q-14 6 -8 20l4 12q19 46 27 111q-61 0 -61 50q0 35 23 70q23 33 47 33q23 0 32 -22.5t6 -76.5q63 22 110 22q44 0 69 -24t25 -68q0 -40 -35 -142
q-36 -102 -36 -136q0 -29 27 -29q47 0 115 62q66 60 98 144l14 35q22 0 27 -5q4 -4 4 -10q0 -8 -3 -17l-8 -21q-35 -104 -122 -184q-88 -82 -181 -82q-42 0 -65.5 19.5t-23.5 57.5z" />
    <glyph glyph-name="s" unicode="s" horiz-adv-x="433" 
d="M575 300q4 -4 4 -10q0 -9 -4 -17l-7 -21q-15 -44 -61 -69t-125 -40q3 -14 3 -25q0 -70 -55 -113q-55 -45 -140 -45q-54 0 -86.5 23t-32.5 59q0 51 43.5 77.5t135.5 42.5q-15 33 -40 83q-32 63 -46 111q-4 -28 -25 -93l-6 -17q-5 -11 -13 -11t-14 3q-12 3 -12 11q0 4 3 10
l5 13q12 31 26 119l2 16q6 48 34 75t72 27q32 0 32 -24q0 -10 -21 -23q-21 -15 -21 -31q0 -28 63 -118q64 -96 80 -131q142 25 165 88l14 36q21 0 27 -6zM266 84q0 22 -4 37q-54 -10 -79.5 -25.5t-25.5 -41.5q0 -20 13.5 -31.5t35.5 -11.5q29 0 44.5 20t15.5 53z" />
    <glyph glyph-name="t" unicode="t" horiz-adv-x="334" 
d="M476 300q4 -5 4 -10t-4 -17l-7 -21q-34 -103 -129 -184q-94 -82 -200 -82q-42 0 -65.5 19.5t-23.5 57.5q0 28 11 74l80 297q-12 1 -54 1l-2 18q0 35 36 35h35l20 74q9 37 25.5 50.5t54.5 13.5q22 0 31 -6t9 -21q0 -8 -3 -22l-25 -90q47 1 87 7q4 -12 4 -28q0 -39 -41 -39
q-8 0 -34 0.5t-32 0.5l-74 -266q-13 -48 -13 -69q0 -29 30 -29q61 0 135 62q72 60 104 144l13 35q23 0 28 -5z" />
    <glyph glyph-name="u" unicode="u" horiz-adv-x="596" 
d="M697 270l13 35q20 0 28 -5q3 -4 3 -10q0 -8 -3 -17l-7 -21q-34 -99 -121 -184q-88 -85 -176 -85q-42 0 -64 19.5t-22 55.5q0 37 44 157l-5 2q-89 -230 -235 -230q-49 0 -79.5 27.5t-30.5 77.5q0 49 24 125q13 46 28 94q10 33 35 120q9 35 27 48t57 13q42 0 42 -29
q0 -10 -12 -52l-7 -18q0 -1 -13 -37q-12 -34 -15 -45q-1 -3 -3 -8.5t-5 -15t-6 -17.5q-2 -6 -14 -46q-23 -91 -21 -108q0 -46 39 -46q52 0 115 88q64 90 107 259l6 20q8 32 25 43.5t59 11.5q45 0 37 -38l-2 -9q-7 -30 -47 -165q-47 -162 -47 -190q0 -29 30 -29q50 0 118 65
t98 144z" />
    <glyph glyph-name="v" unicode="v" horiz-adv-x="610" 
d="M752 300q4 -4 4 -10q0 -10 -4 -17l-4 -13q-31 -94 -116 -159q-84 -66 -183 -66q-63 0 -104 25q-103 -81 -192 -81t-89 84q0 51 17 139q9 46 15 72q3 16 17 78q12 54 13 55l6 24q12 61 84 61q41 0 41 -32q0 -18 -40 -163t-40 -202q0 -35 35 -35q45 0 92 40q-20 35 -20 79
q0 70 30 152q30 81 83 144q52 61 106 61q77 0 77 -93q0 -71 -49 -162q-49 -92 -127 -169q25 -19 69 -19q69 0 140 50q69 48 98 127l14 35q22 0 27 -5zM457 458q-23 0 -55 -96q-32 -98 -32 -163q0 -4 2 -26q45 60 72 129.5t27 125.5q0 30 -14 30z" />
    <glyph glyph-name="w" unicode="w" horiz-adv-x="820" 
d="M962 300q4 -4 4 -10q0 -8 -3 -17l-5 -13q-32 -92 -120 -156q-89 -64 -192 -64q-41 0 -74 14q-95 -80 -178 -80q-88 0 -92 88q-73 -73 -145 -73q-91 0 -91 94q0 97 62 316l6 21q10 38 32.5 54.5t63.5 16.5q34 0 34 -29q0 -12 -21 -72q-21 -57 -43 -141q-22 -78 -22 -140
q0 -41 30 -41q47 0 98 66q16 121 43 217l8 25q20 70 50.5 104t65.5 34t35 -35q0 -57 -84 -269q-18 -85 -18 -118q0 -44 35 -44q39 0 89 41q-22 31 -22 87q0 62 25 136t72 132q47 57 99 57q32 0 50 -21.5t18 -61.5q0 -74 -39 -156q-42 -85 -103 -152q20 -12 49 -12
q69 0 142 49q71 48 100 123l14 35q22 0 27 -5zM657 433q-16 0 -40 -86q-25 -85 -25 -151q0 -18 3 -31q74 115 74 241q0 27 -12 27z" />
    <glyph glyph-name="x" unicode="x" horiz-adv-x="548" 
d="M690 300q4 -5 4 -10q0 -6 -4 -17l-7 -21q-40 -116 -115 -194q-77 -80 -157 -80q-46 0 -75 23.5t-48 75.5l-37 105q-51 -62 -79 -138.5t-30 -146.5q-28 -7 -49 -7q-70 0 -70 64q0 49 58 123q57 74 155 146l-64 182q-8 -75 -37 -151q-5 -12 -14 -12q-4 0 -16 4q-11 5 -7 18
l4 10q27 74 29 152q-22 -2 -29 -2q-29 0 -29 17q0 21 45 43q43 22 79 22q27 0 44 -14t30 -49l65 -177q49 68 73.5 144t22.5 141q17 3 35 3q77 0 77 -56q0 -100 -193 -274l26 -71q20 -51 38.5 -71.5t43.5 -20.5q41 0 98 57q57 58 92 152l13 35q23 0 28 -5z" />
    <glyph glyph-name="y" unicode="y" horiz-adv-x="583" 
d="M797 -82q11 -24 11 -51q0 -32 -23.5 -51t-62.5 -19q-55 0 -174 40q-135 45 -139 46q-51 -179 -134 -270t-185 -91q-66 0 -105 36t-39 100q0 102 98 190q101 92 275 97q40 137 86 270l-5 2q-88 -231 -225 -231q-51 0 -82.5 27t-31.5 75q0 47 43 199q23 81 36 139
q9 39 27 52t58 13q42 0 42 -27q0 -14 -44 -158t-44 -191q0 -46 39 -46q54 0 113.5 91t102.5 258l4 16q9 35 27 48t59 13q25 0 34 -9t4 -30l-3 -17q-1 -7 -9 -33q-2 -7 -6 -21.5t-10.5 -39t-12.5 -47.5q-33 -121 -54 -200l-42 -158q8 -1 124 -15q114 -14 169 -14q33 0 79 7z
M128 -410q46 0 88 65q40 64 87 232l2 9q-101 -5 -170 -75q-70 -70 -70 -153q0 -38 17 -58t46 -20z" />
    <glyph glyph-name="z" unicode="z" horiz-adv-x="461" 
d="M623 -65q34 -10 34 -38q0 -58 -46 -116q-47 -59 -117 -59t-135 69q-65 68 -181 271q-14 26 -27 26q-12 0 -16 -19.5t-3.5 -42.5t-8 -42.5t-27.5 -19.5q-23 0 -40 13t-17 32q0 22 22 48q26 31 120 131q110 116 188 200l-2 3q-20 2 -75 23q-57 22 -87 22q-36 0 -36 -58
q0 -14 -5.5 -19t-19.5 -5q-16 0 -29.5 26t-13.5 63q0 54 23.5 85t65.5 31q27 2 72.5 -29.5t86 -63.5t56.5 -31q9 11 17 38.5t17.5 45t27.5 14.5q21 0 37.5 -12t16.5 -29q4 -13 -28 -47q-4 -4 -21.5 -20.5t-22.5 -21.5l-10 -11q-23 -22 -244 -260l1 -2q120 -150 198 -210
t132 -60q52 0 97 75z" />
    <glyph glyph-name="braceleft" unicode="{" horiz-adv-x="357" 
d="M82 326q26 -2 27 -2q42 0 63 22.5t28 75.5l30 230q11 86 46 122t92 36q28 0 56.5 -9.5t38.5 -20.5q6 -6 6 -15q0 -12 -12 -27q-26 2 -27 2q-31 0 -48.5 -18t-27.5 -60l-56 -237q-15 -63 -44.5 -93t-84.5 -40q39 -12 56 -34t17 -61q0 -27 -10 -73l-65 -263q-4 -15 -4 -31
q0 -26 18 -35.5t59 -7.5q12 -31 -2 -45q-24 -21 -84 -21q-53 0 -84 25t-31 73q0 34 20 96l80 241q13 36 13 58q0 23 -13 35t-28 14t-28 9.5t-13 21.5q0 12 12 32z" />
    <glyph glyph-name="bar" unicode="|" horiz-adv-x="294" 
d="M-17 -244l142 599l88 404q8 36 24 49.5t52 13.5q43 0 43 -33q0 -11 -1 -14q0 -1 -5 -21.5t-16.5 -72t-24.5 -105.5q-47 -194 -60 -255q-83 -352 -129 -565h-113z" />
    <glyph glyph-name="braceright" unicode="}" horiz-adv-x="323" 
d="M285 207q-26 2 -27 2q-41 0 -62 -23t-28 -75l-31 -231q-11 -86 -46 -122t-92 -36q-29 0 -57 9.5t-38 20.5q-6 6 -6 15q0 12 12 27q26 -2 28 -2q31 0 48.5 18t27.5 60l55 237q16 64 45 93.5t85 39.5q-39 12 -56.5 34t-17.5 61q0 24 11 73l64 263q4 15 4 31q0 26 -18 35.5
t-59 7.5q-5 15 -5 26q0 12 7 19q26 21 85 21q53 0 83.5 -25t30.5 -72q0 -35 -20 -97l-80 -241q-13 -36 -13 -58q0 -23 13 -34.5t28 -14t28 -10t13 -21.5q0 -13 -12 -31z" />
    <glyph glyph-name="asciitilde" unicode="~" horiz-adv-x="589" 
d="M177 272q-25 0 -37.5 -13t-16.5 -44q-52 -7 -52 49q0 50 29.5 79t78.5 29q36 0 127 -20t119 -20q25 0 37.5 13t16.5 44q28 3 42.5 -10.5t14.5 -46.5q0 -54 -28.5 -83.5t-82.5 -29.5q-43 0 -132 27q-90 26 -116 26z" />
    <glyph glyph-name="uni00A0" unicode="&#xa0;" horiz-adv-x="400" 
 />
    <glyph glyph-name="exclamdown" unicode="&#xa1;" horiz-adv-x="288" 
d="M153 485q30 10 64 10q58 0 58 -49q0 -42 -34 -76q-35 -35 -83 -35q-44 0 -44 33q-2 13 18 62.5t21 54.5zM2 -309q-44 0 -44 33q0 9 3 21l4 10q123 371 158 516q20 5 43 5q37 0 37 -34q0 -19 -14 -81q-6 -32 -18 -80q-12 -50 -30 -130q-33 -146 -40 -178l-4 -18
q-9 -36 -30.5 -50t-64.5 -14z" />
    <glyph glyph-name="cent" unicode="&#xa2;" horiz-adv-x="515" 
d="M460 134q14 -9 14 -22q0 -19 -38 -49l-10 -8q-64 -47 -139 -59l-21 -118q-18 -7 -37 -8h-5q-58 0 -58 47q0 2 1.5 9.5t1.5 10.5l18 60q-130 22 -130 158q0 102 82 208q83 108 180 133l12 63q11 56 83 56q32 0 32 -22q0 -12 -5 -29l-20 -70q56 -23 56 -82q0 -50 -37 -102
q-38 -53 -61 -53q-14 0 -27 7.5t-13 18.5q0 7 16 52t16 76q0 16 -9 26t-23 10q-48 4 -104.5 -93t-53.5 -177q0 -56 27 -85.5t77 -29.5q81 0 175 72z" />
    <glyph glyph-name="currency" unicode="&#xa4;" horiz-adv-x="744" 
 />
    <glyph glyph-name="yen" unicode="&#xa5;" horiz-adv-x="549" 
d="M622 693q21 -12 -6 -51l-236 -357l42 -1q36 0 72 4q4 -13 4 -28q0 -51 -64 -51q-18 0 -108 8l-5 -5l-8 -44q66 -6 83 -6q55 0 70 4q3 -13 3 -25q0 -52 -60 -52q-39 0 -108 10q-13 -81 -13 -122q-30 -10 -56 -10q-57 0 -57 51q0 11 3 23l14 74q-83 11 -111 11
q-27 0 -36 -1q-2 18 -2 20q0 44 52 44q33 0 110 -9l5 26l-8 25q-51 6 -93 6q-3 0 -8.5 -0.5t-15.5 -1t-18 -0.5q-3 12 -3 22q0 43 52 43q28 0 66 -3l-102 334q-6 20 -6 32q0 19 13 27t45 8q30 0 43.5 -9t18.5 -33l93 -373l229 375q13 23 28 31.5t43 8.5q25 0 35 -5z" />
    <glyph glyph-name="brokenbar" unicode="&#xa6;" horiz-adv-x="285" 
d="M326 773l-81 -346h-112q2 7 28 132q15 69 27 133q3 16 6 30.5t5 22.5t2 9q9 38 28.5 53t55.5 15q43 0 43 -34q0 -7 -2 -15zM94 -244h-117l104 443h111q-33 -139 -98 -443z" />
    <glyph glyph-name="section" unicode="&#xa7;" horiz-adv-x="583" 
d="M503 532q-15 0 -25 6.5t-10 15.5q0 5 13 40t13 63q0 31 -21.5 50t-59.5 19q-54 0 -90.5 -31.5t-36.5 -79.5q0 -20 8 -38.5t30 -40t33.5 -32t47 -37t42.5 -31.5q87 -69 87 -142q0 -85 -92 -142q14 -26 14 -57q0 -85 -76 -143q-76 -57 -193 -57q-85 0 -136.5 35.5
t-51.5 101.5q0 48 32 85q32 35 66 35q22 0 35 -10q-26 -58 -26 -96q0 -43 30 -69t74 -26q60 0 98.5 33.5t38.5 83.5q0 20 -9 39t-29.5 39t-35 32t-47 35t-43.5 31q-89 65 -89 145q0 46 28.5 84t73.5 60q-12 25 -12 57q0 81 78 135q77 54 179 54q70 0 113 -29t43 -80
q0 -50 -33 -94q-35 -44 -61 -44zM430 270q0 32 -30.5 64t-96.5 82q-58 42 -82 75q-28 -28 -28 -65q0 -30 22.5 -61t55.5 -55q9 -7 33 -24.5t39 -28.5q42 -33 64 -56q23 32 23 69z" />
    <glyph glyph-name="dieresis" unicode="&#xa8;" horiz-adv-x="415" 
d="M397 580q-43 -8 -54 -8q-51 0 -51 43q0 36 32 70q32 33 74 33q34 0 34 -27q0 -18 -16 -59q-18 -46 -19 -52zM204 568q-46 -13 -75.5 -4.5t-29.5 38.5q0 37 32 71q31 33 74 33q34 0 34 -28q0 -17 -16 -58q-18 -49 -19 -52z" />
    <glyph glyph-name="copyright" unicode="&#xa9;" horiz-adv-x="698" 
d="M719 631q0 -138 -100 -232q-101 -96 -268 -96q-134 0 -208.5 61t-74.5 169q0 137 108 236q107 98 277 98q129 0 197.5 -63t68.5 -173zM155 551q0 -93 60 -149q59 -57 156 -57q121 0 192 80q69 79 69 193q0 100 -50 154t-147 54q-125 0 -202 -81q-78 -83 -78 -194z
M442 574q-20 0 -20 14q0 4 17 40q16 33 16 61q0 39 -31 39q-38 0 -69 -52q-32 -53 -32 -113q0 -45 22.5 -69t62.5 -24q47 0 87 34q11 -11 11 -21q0 -23 -39 -45q-41 -23 -86 -23q-60 0 -97.5 34t-37.5 98q0 85 61 152t135 67q38 0 58.5 -20t20.5 -54q0 -36 -30 -77
q-32 -41 -49 -41z" />
    <glyph glyph-name="ordfeminine" unicode="&#xaa;" horiz-adv-x="449" 
d="M432 776q38 0 38 -22q0 -8 -14 -59l-4 -14q-47 -164 -47 -233q0 -33 1 -41q-14 -8 -45 -8q-51 0 -51 41q0 24 32 123l-4 2q-33 -87 -69.5 -125.5t-89.5 -38.5q-43 0 -68 28t-25 78q0 96 70 172q69 76 175 76q16 0 39 -4q16 25 62 25zM216 464q33 0 66 53.5t62 154.5
l12 41q-5 1 -26 1q-72 0 -112 -57q-41 -59 -41 -129q0 -64 39 -64z" />
    <glyph glyph-name="guillemotleft" unicode="&#xab;" horiz-adv-x="443" 
d="M275 420l-119 -145l71 -137q6 -16 6 -18q0 -8 -10 -17q-13 -9 -22 -9q-11 0 -22 11q-76 88 -99 121q-21 28 -21 47q0 25 29 51l146 136q22 21 44 -1q17 -14 -3 -39zM420 390l-96 -121l51 -114q4 -11 4 -16q0 -10 -10 -17q-10 -10 -22 -10q-11 0 -20 11q-59 72 -75 99
q-17 26 -17 44q0 22 25 47l118 115q14 11 22 11t22 -12q14 -16 -2 -37z" />
    <glyph glyph-name="registered" unicode="&#xae;" horiz-adv-x="737" 
d="M451 868q128 0 213 -62q84 -62 84 -171q0 -108 -81 -201t-157 -93q-48 0 -72.5 41t-30.5 141q-3 -1 -10 -1q-23 0 -23 19q0 24 21.5 35.5t34.5 -11.5q43 43 43 96q0 32 -23 50.5t-65 19.5q-44 -278 -44 -331q-9 -4 -25 -4q-48 0 -48 37q0 13 56 290q-30 0 -30 17
q0 38 101 38q66 0 108.5 -27t42.5 -76q0 -46 -24 -77.5t-77 -62.5q33 -83 53 -109t43 -26q43 0 82 65q38 65 38 144q0 99 -64 159t-169 60q-133 0 -205 -81t-72 -196q0 -100 64 -158.5t173 -57.5q3 -7 3 -14q0 -22 -67 -22q-116 0 -186 64q-71 63 -71 165q0 145 104 243
q103 97 280 97z" />
    <glyph glyph-name="overscore" unicode="&#xaf;" horiz-adv-x="333" 
d="M332 682q6 -22 6 -39q0 -59 -69 -59q-13 0 -60 5t-68 5q-20 0 -44 -3q-2 12 -2 25q0 60 68 60q10 0 42.5 -0.5t41.5 -0.5q54 0 85 7z" />
    <glyph glyph-name="degree" unicode="&#xb0;" horiz-adv-x="428" 
d="M284 775q72 0 116 -31t44 -87q0 -74 -59 -121q-59 -48 -153 -48q-72 0 -116 31t-44 87q0 74 59 122q59 47 153 47zM276 730q-48 0 -79 -36q-32 -38 -32 -85q0 -37 20.5 -56.5t54.5 -19.5q47 0 80 37q32 37 32 84q0 37 -21 56.5t-55 19.5z" />
    <glyph glyph-name="plusminus" unicode="&#xb1;" horiz-adv-x="570" 
d="M75 303q-1 5 -1 19q0 63 64 63q7 0 121 -6q22 101 27 143q20 7 46 7q63 0 63 -51q0 -15 -4 -26l-19 -75q120 -6 160 4q4 -21 4 -30q0 -55 -56 -55q-23 0 -62 4t-65 4q-25 -113 -25 -142q-20 -7 -45 -7q-66 0 -66 51q0 9 4 25l19 75q-19 1 -106 1q-44 0 -59 -4zM475 108
q2 -24 2 -25q0 -67 -71 -67q-38 0 -152 8q-99 7 -143 7q-43 0 -58 -3q-1 6 -1 24q0 32 15.5 44t53.5 12q44 0 136 -4t140 -4q49 0 78 8z" />
    <glyph glyph-name="twosuperior" unicode="&#xb2;" horiz-adv-x="412" 
d="M394 441q5 -20 5 -32q0 -27 -14.5 -43.5t-41.5 -16.5q-29 0 -96 36q-68 35 -89 35q-14 0 -24 -16q-12 -17 -25 -17q-14 0 -24 9t-10 23q0 17 33 42l79 55q70 49 100 85t30 71q0 29 -16 46.5t-44 17.5q-30 0 -49 -18.5t-19 -46.5q0 -20 9 -43q8 -26 8 -28q0 -8 -8 -14.5
t-17 -6.5q-26 0 -50 26q-24 25 -24 59q0 50 48 83t122 33q65 0 102.5 -26t37.5 -71q0 -52 -50 -105q-51 -52 -183 -117q27 0 91 -11q62 -12 89 -12q15 0 30 3z" />
    <glyph glyph-name="threesuperior" unicode="&#xb3;" horiz-adv-x="414" 
d="M258 736q-27 0 -44 -15t-17 -38q0 -10 4 -28t4 -20q0 -8 -8.5 -13.5t-18.5 -5.5q-19 0 -37 19.5t-18 42.5q0 43 44 71.5t112 28.5q60 0 92.5 -22t32.5 -64q0 -35 -25.5 -66t-67.5 -47q84 -11 84 -75q0 -61 -60 -100t-147 -39q-103 0 -103 48q0 15 17 35q52 -33 102 -33
q44 0 69.5 21t25.5 57q0 38 -31 60q-37 -22 -58 -22q-15 0 -24 9.5t-9 22.5q0 30 79 26q58 36 58 94q0 24 -15 38.5t-41 14.5z" />
    <glyph glyph-name="acute" unicode="&#xb4;" horiz-adv-x="275" 
d="M119 559q-59 41 8 100l37 29q34 27 76 66q43 -36 43 -73q0 -39 -46 -61l-35 -18q-17 -9 -36.5 -18.5t-30.5 -15.5t-16 -9z" />
    <glyph glyph-name="mu" unicode="&#xb5;" horiz-adv-x="589" 
d="M393 215l-5 2q-89 -230 -210 -230q-34 0 -54 14q-1 -9 -8 -51t-8 -50q-50 -272 -45 -350q-30 -11 -71 -11q-63 0 -63 59q-3 31 42 194q3 10 12.5 45.5t15.5 59.5q18 66 30 114q38 146 58 222q32 119 48 184l3 14q9 36 27.5 48.5t58.5 12.5t40 -25q0 -11 -12 -50
q-4 -17 -31 -99q-24 -75 -39 -127q-17 -59 -17 -83q0 -46 43 -46q53 0 113 96t102 268l3 12q8 33 25.5 44.5t59.5 11.5q39 0 39 -26q0 -12 -7 -39q-79 -282 -79 -383q0 -46 24 -84q-12 -24 -57 -24q-35 0 -57.5 21t-22.5 62q0 45 42 194z" />
    <glyph glyph-name="paragraph" unicode="&#xb6;" horiz-adv-x="504" 
d="M480 717q37 0 37 -29q0 -12 -30 -135l-7 -29q-141 -583 -145 -645q-30 -3 -31 -3q-62 0 -62 47q0 36 21 139l124 591q8 38 27.5 51t65.5 13zM314 643l-13 -53l-18 -72q-4 -15 -11 -44.5t-10 -41.5q-8 -35 -15 -71q-7 -38 -7 -64q0 -12 1 -15q-17 -4 -45 -4
q-70 0 -113.5 37.5t-43.5 107.5q0 49 26.5 98.5t67.5 84.5q89 75 155 75q28 0 28 -25q0 -1 -0.5 -2.5t-1 -4.5t-0.5 -6z" />
    <glyph glyph-name="middot" unicode="&#xb7;" horiz-adv-x="335" 
d="M223 231q-33 -10 -64 -10q-58 0 -58 49q0 43 34 77t83 34q44 0 44 -33q0 -18 -18 -64q-20 -47 -21 -53z" />
    <glyph glyph-name="cedilla" unicode="&#xb8;" horiz-adv-x="274" 
d="M163 12h41q-22 -37 -22 -48q0 -6 23.5 -31t23.5 -48q0 -47 -43 -75t-98 -28q-40 0 -40 28v4q1 3 1 5q93 13 93 61q0 12 -10.5 36.5t-10.5 29.5q0 20 42 66z" />
    <glyph glyph-name="onesuperior" unicode="&#xb9;" horiz-adv-x="383" 
d="M358 447q5 -22 5 -29q0 -37 -44 -37q-27 0 -107 11q-74 10 -106 10q-29 0 -29 22q0 34 44 34q6 0 60 -2q2 12 59 261l-52 -9q-3 -1 -9 -1q-23 0 -23 31q0 13 16 17l74 14q48 8 62 8q36 0 36 -32q0 -13 -6 -32l-7 -22q-61 -219 -66 -241q53 -4 75 -4q15 0 18 1z" />
    <glyph glyph-name="ordmasculine" unicode="&#xba;" horiz-adv-x="468" 
d="M483 546q0 -7 -6 -13q-18 -18 -65 -30q-75 -101 -185 -101q-68 0 -105.5 33.5t-37.5 93.5q0 86 57 160q57 73 140 105q7 4 14 4q8 0 14 -12q1 -2 1 -5l1 -2q0 -9 -12 -16q-56 -39 -88.5 -100.5t-32.5 -124.5q0 -41 19 -63t53 -22q44 0 80 43q-45 5 -69.5 31t-24.5 68
q0 63 48 119t101 56q38 0 61 -25.5t23 -71.5q0 -66 -28 -123q25 7 35 13q7 -7 7 -17zM306 611q0 -60 52 -67q22 48 22 105q0 68 -27 68q-19 0 -33 -33q-14 -36 -14 -73z" />
    <glyph glyph-name="guillemotright" unicode="&#xbb;" horiz-adv-x="414" 
d="M274 142l119 145l-71 138q-6 11 -6 17q0 9 10 17.5t22 8.5q11 0 22 -11q78 -91 99 -120q20 -31 20 -48q0 -26 -28 -51l-147 -136q-11 -11 -22 -11q-10 0 -21 12q-8 8 -8 16q0 9 11 23zM129 172l96 121l-51 114q-4 7 -4 16t9 17q11 10 22 10t20 -11q62 -76 77 -99
q16 -25 16 -44q0 -22 -25 -47l-118 -115q-14 -11 -22 -11q-9 0 -22 12q-14 16 2 37z" />
    <glyph glyph-name="onequarter" unicode="&#xbc;" horiz-adv-x="927" 
d="M653 776q0 -14 -11 -47q-177 -414 -286 -715q-19 -51 -20 -64q-51 -1 -71 19q-13 12 -13 34q0 23 15 58q194 445 277 675q30 78 33 95q43 -1 62 -20q14 -14 14 -35zM332 418q0 -37 -43 -37q-27 0 -107 11q-74 10 -106 10q-29 0 -29 22q0 34 44 34q6 0 60 -2q2 12 59 261
l-52 -9q-3 -1 -9 -1q-23 0 -23 31q0 14 16 17l74 14q48 8 62 8q36 0 36 -32q0 -10 -7 -32l-6 -22q-5 -19 -15.5 -56.5t-15.5 -54.5q-20 -72 -24 -86l-12 -44q53 -4 76 -4q14 0 17 1q5 -17 5 -29zM855 121q5 -13 5 -31q0 -33 -45 -30l-57 4q-16 -61 -17 -90q-18 -6 -37 -6
q-21 0 -33 9t-12 24q-1 2 18 67h-114q-47 0 -47 33q0 19 16 39q12 16 52 78q38 58 75 142q13 33 57 33q38 0 38 -20q0 -33 -60 -117q-63 -88 -116 -135l112 -5l26 100q10 39 59 39q24 0 24 -21q0 -8 -2 -18l-29 -99q35 -1 87 4z" />
    <glyph glyph-name="onehalf" unicode="&#xbd;" horiz-adv-x="915" 
d="M652 776q0 -19 -11 -47q-177 -414 -286 -715q-19 -51 -20 -64q-51 -1 -71 19q-13 13 -13 34q0 23 15 58q194 445 277 675q30 78 33 95q44 -1 62 -20q14 -14 14 -35zM337 418q0 -37 -43 -37q-27 0 -107 11q-74 10 -106 10q-29 0 -29 22q0 34 43 34q5 0 61 -2q2 12 59 261
l-52 -9q-3 -1 -9 -1q-23 0 -23 31q0 14 16 17l74 14q48 8 62 8q36 0 36 -32q0 -10 -7 -32l-6 -22q-5 -19 -15.5 -56.5t-15.5 -54.5q-20 -72 -24 -86l-12 -44q53 -4 76 -4q14 0 17 1q5 -17 5 -29zM811 39q15 0 30 3q4 -21 4 -32q0 -28 -14.5 -44t-40.5 -16q-28 0 -96 35
q-68 36 -90 36q-14 0 -24 -16q-10 -17 -24 -17t-24 9t-10 23q0 18 33 41l79 56q69 49 99 85t30 71q0 29 -15.5 46.5t-43.5 17.5q-30 0 -49.5 -18.5t-19.5 -46.5q0 -20 9 -43q9 -24 9 -29q0 -7 -8.5 -13.5t-16.5 -6.5q-26 0 -50 26t-24 59q0 50 48 83t122 33q64 0 102 -27
t38 -70q0 -52 -51 -105t-183 -117q28 0 92 -11q62 -12 89 -12z" />
    <glyph glyph-name="threequarters" unicode="&#xbe;" horiz-adv-x="940" 
d="M610 831q44 -2 62 -20q14 -14 14 -35q0 -18 -12 -47q-161 -374 -285 -715q-19 -51 -20 -64q-48 -1 -72 19q-12 12 -12 34q0 23 15 58q209 485 277 675q30 78 33 95zM249 736q-27 0 -44 -15t-17 -38q0 -10 4 -28t4 -20q0 -8 -8.5 -13.5t-18.5 -5.5q-19 0 -37 19.5
t-18 42.5q0 43 44 71.5t112 28.5q60 0 92.5 -22t32.5 -64q0 -35 -25.5 -66t-67.5 -47q84 -11 84 -75q0 -61 -60 -100t-147 -39q-103 0 -103 48q0 15 17 35q53 -33 102 -33q44 0 69.5 21t25.5 57q0 38 -31 60q-37 -22 -58 -22q-15 0 -24 9.5t-9 22.5q0 30 79 26q58 36 58 94
q0 24 -15 38.5t-41 14.5zM742 247q14 8 38 8q25 0 25 -21q0 -8 -3 -18l-29 -99q35 -1 87 4q6 -13 6 -31q0 -33 -45 -30l-58 4q-16 -61 -17 -90q-17 -6 -37 -6t-32.5 9t-12.5 24q-1 4 1.5 13.5t8 27t8.5 26.5h-114q-47 0 -47 33q0 19 16 39q12 16 52 78q38 58 75 142
q14 33 58 33q37 0 37 -20q0 -33 -60 -117q-63 -88 -116 -135l113 -5l26 100q6 21 20 31z" />
    <glyph glyph-name="questiondown" unicode="&#xbf;" horiz-adv-x="378" 
d="M227 488q30 10 64 10q58 0 58 -48q0 -42 -33 -77t-81 -35q-44 0 -44 33q0 17 17 62q13 35 19 55zM-66 -177q0 19 5.5 38.5t11.5 34.5t21 35l24 32t30.5 32.5t30.5 29t33.5 30t30.5 27.5q102 93 102 188q17 6 31 6q41 0 41 -41q0 -20 -7.5 -42.5t-15 -38t-28 -41.5
t-29 -35.5t-35.5 -39t-32 -34.5q-81 -88 -81 -166q0 -47 27.5 -73t75.5 -26q54 0 90 32.5t36 82.5q0 45 -26 92l-5 8q-7 15 -7 20q0 10 12.5 20t23.5 10q16 0 35 -12l13 -9q25 -16 43 -48t18 -65q0 -83 -74 -134q-73 -51 -191 -51q-94 0 -149 36.5t-55 101.5z" />
    <glyph glyph-name="Agrave" unicode="&#xc0;" horiz-adv-x="1060" 
d="M909 915l-37 30q-66 54 -90 73q42 58 89 58q33 0 64 -43l23 -28q7 -8 37 -49q22 -30 29 -37q-19 -37 -56 -37q-26 0 -59 33zM1202 300q3 -4 3 -10q0 -8 -3 -17l-7 -21q-35 -98 -121 -183q-89 -86 -192 -86q-116 0 -116 99q0 24 9 61q-4 1 -139 20q-90 -133 -179 -192.5
t-187 -59.5q-76 0 -129 36q-52 37 -52 100q0 88 92 138t247 50q57 0 187 -8q143 209 260 521l6 17q17 47 88 47q55 0 55 -32q0 -8 -8 -48l-102 -516q7 0 22 2t18 2q4 -13 4 -29q0 -51 -60 -55q-3 -20 -3 -31q0 -38 41 -38q58 0 128 64q69 63 97 139l13 35q23 0 28 -5z
M674 223q56 -5 117 -6l4 15l87 414l-4 1q-103 -257 -204 -424zM337 1q107 0 239 172q-109 15 -170 15q-72 0 -117 -30t-45 -80q0 -34 25 -55.5t68 -21.5z" />
    <glyph glyph-name="Aacute" unicode="&#xc1;" horiz-adv-x="1060" 
d="M932 856q-26 24 -26 47q0 31 42 63l43 28q41 27 88 67q42 -40 42 -79q0 -46 -54 -68l-39 -17q-17 -7 -41 -17t-37 -15t-18 -9zM1202 300q3 -4 3 -10q0 -8 -3 -17l-7 -21q-35 -98 -121 -183q-89 -86 -192 -86q-116 0 -116 99q0 24 9 61q-4 1 -139 20q-90 -133 -179 -192.5
t-187 -59.5q-76 0 -129 36q-52 37 -52 100q0 88 92 138t247 50q57 0 187 -8q143 209 260 521l6 17q17 47 88 47q55 0 55 -32q0 -8 -8 -48l-102 -516q7 0 22 2t18 2q4 -13 4 -29q0 -51 -60 -55q-3 -20 -3 -31q0 -38 41 -38q58 0 128 64q69 63 97 139l13 35q23 0 28 -5z
M674 223q56 -5 117 -6l4 15l87 414l-4 1q-103 -257 -204 -424zM337 1q107 0 239 172q-109 15 -170 15q-72 0 -117 -30t-45 -80q0 -34 25 -55.5t68 -21.5z" />
    <glyph glyph-name="Acircumflex" unicode="&#xc2;" horiz-adv-x="1060" 
d="M977 927l-106 -69q-23 -15 -39 -7t-18 25q0 13 26 37l104 98q32 27 58 27q29 0 49 -29l10 -15q30 -44 44 -66q6 -9 12 -18.5t9.5 -14.5t4.5 -7q-15 -30 -47 -30q-21 0 -62 32zM1202 300q3 -4 3 -10q0 -8 -3 -17l-7 -21q-35 -98 -121 -183q-89 -86 -192 -86
q-116 0 -116 99q0 24 9 61q-4 1 -139 20q-90 -133 -179 -192.5t-187 -59.5q-76 0 -129 36q-52 37 -52 100q0 88 92 138t247 50q57 0 187 -8q143 209 260 521l6 17q17 47 88 47q55 0 55 -32q0 -8 -8 -48l-102 -516q7 0 22 2t18 2q4 -13 4 -29q0 -51 -60 -55q-3 -20 -3 -31
q0 -38 41 -38q58 0 128 64q69 63 97 139l13 35q23 0 28 -5zM674 223q56 -5 117 -6l4 15l87 414l-4 1q-103 -257 -204 -424zM337 1q107 0 239 172q-109 15 -170 15q-72 0 -117 -30t-45 -80q0 -34 25 -55.5t68 -21.5z" />
    <glyph glyph-name="Atilde" unicode="&#xc3;" horiz-adv-x="1060" 
d="M852 863q-25 1 -34 12t-3 41q9 40 39.5 62t71.5 18q25 -3 66 -20q36 -17 54 -19q35 -4 56 40q25 -1 34 -12t3 -39q-8 -39 -40 -62.5t-74 -19.5q-22 3 -61 20q-37 17 -58 19q-36 5 -54 -40zM1202 300q3 -4 3 -10q0 -8 -3 -17l-7 -21q-35 -98 -121 -183q-89 -86 -192 -86
q-116 0 -116 99q0 24 9 61q-4 1 -139 20q-90 -133 -179 -192.5t-187 -59.5q-76 0 -129 36q-52 37 -52 100q0 88 92 138t247 50q57 0 187 -8q143 209 260 521l6 17q17 47 88 47q55 0 55 -32q0 -8 -8 -48l-102 -516q7 0 22 2t18 2q4 -13 4 -29q0 -51 -60 -55q-3 -20 -3 -31
q0 -38 41 -38q58 0 128 64q69 63 97 139l13 35q23 0 28 -5zM674 223q56 -5 117 -6l4 15l87 414l-4 1q-103 -257 -204 -424zM337 1q107 0 239 172q-109 15 -170 15q-72 0 -117 -30t-45 -80q0 -34 25 -55.5t68 -21.5z" />
    <glyph glyph-name="Adieresis" unicode="&#xc4;" horiz-adv-x="1060" 
d="M1062 868q-51 0 -51 42q0 37 32 71q32 32 74 32q34 0 34 -27q0 -19 -16 -58q-18 -46 -19 -52q-32 -8 -54 -8zM855 845q-51 0 -51 42q0 39 31 71q32 32 74 32q35 0 35 -27q0 -15 -17 -60q-4 -11 -9 -24t-7.5 -18.5t-2.5 -7.5q-30 -8 -53 -8zM1202 300q3 -4 3 -10
q0 -8 -3 -17l-7 -21q-35 -98 -121 -183q-89 -86 -192 -86q-116 0 -116 99q0 24 9 61q-4 1 -139 20q-90 -133 -179 -192.5t-187 -59.5q-76 0 -129 36q-52 37 -52 100q0 88 92 138t247 50q57 0 187 -8q143 209 260 521l6 17q17 47 88 47q55 0 55 -32q0 -8 -8 -48l-102 -516
q7 0 22 2t18 2q4 -13 4 -29q0 -51 -60 -55q-3 -20 -3 -31q0 -38 41 -38q58 0 128 64q69 63 97 139l13 35q23 0 28 -5zM674 223q56 -5 117 -6l4 15l87 414l-4 1q-103 -257 -204 -424zM337 1q107 0 239 172q-109 15 -170 15q-72 0 -117 -30t-45 -80q0 -34 25 -55.5t68 -21.5z
" />
    <glyph glyph-name="Aring" unicode="&#xc5;" horiz-adv-x="1060" 
d="M971 842q-49 0 -77.5 22t-28.5 61q0 58 47 96q46 36 113 36q49 0 77.5 -21.5t28.5 -60.5q0 -60 -47 -96q-46 -37 -113 -37zM1015 1015q-29 0 -48 -26t-19 -62q0 -43 34 -43q28 0 47.5 26t19.5 62q0 43 -34 43zM1202 300q3 -4 3 -10q0 -8 -3 -17l-7 -21q-35 -98 -121 -183
q-89 -86 -192 -86q-116 0 -116 99q0 24 9 61q-4 1 -139 20q-90 -133 -179 -192.5t-187 -59.5q-76 0 -129 36q-52 37 -52 100q0 88 92 138t247 50q57 0 187 -8q143 209 260 521l6 17q17 47 88 47q55 0 55 -32q0 -8 -8 -48l-102 -516q7 0 22 2t18 2q4 -13 4 -29q0 -51 -60 -55
q-3 -20 -3 -31q0 -38 41 -38q58 0 128 64q69 63 97 139l13 35q23 0 28 -5zM674 223q56 -5 117 -6l4 15l87 414l-4 1q-103 -257 -204 -424zM337 1q107 0 239 172q-109 15 -170 15q-72 0 -117 -30t-45 -80q0 -34 25 -55.5t68 -21.5z" />
    <glyph glyph-name="AE" unicode="&#xc6;" horiz-adv-x="1349" 
d="M1491 300q4 -4 4 -10q0 -8 -3 -17l-8 -21q-48 -142 -171 -240q-125 -99 -287 -99q-130 0 -200 58t-70 160v14q-22 2 -140 19q-90 -133 -179 -193t-187 -60q-76 0 -129 36q-53 38 -53 100q0 88 92 138t247 50q57 0 187 -8q143 209 260 521l6 17q18 47 84 47q57 0 57 -32
v-9q97 56 216 56q77 0 118.5 -30t41.5 -81q0 -66 -45 -128q-47 -62 -87 -62q-17 0 -30 8t-13 19q0 8 26 57t26 89q0 37 -21.5 58t-62.5 21q-76 0 -138 -59q-62 -60 -62 -138q0 -50 34 -84.5t93 -49.5q109 18 131 18q23 0 32 -8.5t9 -30.5q0 -42 -63 -42q-38 0 -99 14
q-80 -18 -137.5 -68t-76.5 -114l41 4q4 -13 4 -29q-2 -45 -52 -51q8 -65 58 -103t132 -38q118 0 224 75q105 73 150 196l14 35q22 0 27 -5zM769 217l92 429l-3 1q-103 -257 -204 -424q54 -5 115 -6zM1039 422q-59 9 -99 36l-17 -84q52 30 116 48zM317 1q107 0 239 172
q-98 15 -171 15q-72 0 -117 -30t-45 -80q0 -34 25 -55.5t69 -21.5z" />
    <glyph glyph-name="Ccedilla" unicode="&#xc7;" horiz-adv-x="718" 
d="M860 300q4 -4 4 -10q0 -8 -3 -17l-8 -21q-29 -86 -95 -162.5t-166 -129.5q-103 -55 -215 -55h-17q-20 -32 -20 -44q0 -8 27.5 -36t27.5 -55q0 -53 -50 -86q-52 -32 -113 -32q-46 0 -46 32l2 10q106 15 106 70q0 13 -12 42t-12 34q0 21 42 69q-113 16 -175 87.5t-62 190.5
t60 241q114 227 341 346q104 54 189 54q68 0 105 -32.5t37 -88.5q0 -57 -33 -116q-35 -60 -73 -99l-8 -8q-34 -37 -67 -37q-13 0 -26 10.5t-13 22.5q0 10 16 36l7 11q64 100 64 167q0 66 -59 66q-53 0 -120 -48q-70 -50 -128 -123q-61 -76 -101 -176q-42 -101 -42 -195
q0 -98 57 -157q56 -59 148 -59q115 0 233 80q116 79 157 188l14 35q22 0 27 -5z" />
    <glyph glyph-name="Egrave" unicode="&#xc8;" horiz-adv-x="653" 
d="M602 930q-19 -37 -56 -37q-26 0 -59 33l-37 30q-74 62 -90 73q42 58 89 58q33 0 64 -43l23 -28q7 -8 37 -49q22 -30 29 -37zM754 270l14 35q22 0 27 -5q4 -4 4 -10q0 -10 -4 -17l-7 -21q-48 -141 -174 -240q-128 -99 -294 -99q-125 0 -204 59q-78 60 -78 159
q0 104 86 181q85 74 212 106q-73 12 -118.5 54.5t-45.5 102.5q0 111 111 189q112 77 256 77q84 0 127 -29.5t43 -83.5q0 -64 -54 -135t-93 -71q-15 0 -24.5 7.5t-9.5 18.5q0 7 29 65q28 55 28 100q0 37 -22.5 58t-63.5 21q-79 0 -139 -63t-60 -141q0 -53 28 -92t74 -55
q99 19 131 19q40 0 40 -35q0 -21 -16 -33.5t-45 -12.5q-41 0 -101 15q-101 -24 -161 -90q-61 -65 -61 -141q0 -74 51 -119t140 -45q116 0 222 75q107 76 152 196z" />
    <glyph glyph-name="Eacute" unicode="&#xc9;" horiz-adv-x="653" 
d="M445 924q0 32 42 63l43 28q41 27 88 67q42 -40 42 -79q0 -45 -54 -68l-39 -17q-17 -7 -41 -17t-37 -15t-18 -9q-26 24 -26 47zM754 270l14 35q22 0 27 -5q4 -4 4 -10q0 -10 -4 -17l-7 -21q-48 -141 -174 -240q-128 -99 -294 -99q-125 0 -204 59q-78 60 -78 159
q0 104 86 181q85 74 212 106q-73 12 -118.5 54.5t-45.5 102.5q0 111 111 189q112 77 256 77q84 0 127 -29.5t43 -83.5q0 -64 -54 -135t-93 -71q-15 0 -24.5 7.5t-9.5 18.5q0 7 29 65q28 55 28 100q0 37 -22.5 58t-63.5 21q-79 0 -139 -63t-60 -141q0 -53 28 -92t74 -55
q99 19 131 19q40 0 40 -35q0 -21 -16 -33.5t-45 -12.5q-41 0 -101 15q-101 -24 -161 -90q-61 -65 -61 -141q0 -74 51 -119t140 -45q116 0 222 75q107 76 152 196z" />
    <glyph glyph-name="Ecircumflex" unicode="&#xca;" horiz-adv-x="653" 
d="M578 911l-45 37l-106 -69q-23 -15 -39 -7t-18 25q0 13 26 37l104 98q32 27 58 27q29 0 49 -29l10 -15q30 -44 44 -66q6 -9 12 -18.5t9.5 -14.5t4.5 -7q-15 -30 -47 -30q-21 0 -62 32zM754 270l14 35q22 0 27 -5q4 -4 4 -10q0 -10 -4 -17l-7 -21q-48 -141 -174 -240
q-128 -99 -294 -99q-125 0 -204 59q-78 60 -78 159q0 104 86 181q85 74 212 106q-73 12 -118.5 54.5t-45.5 102.5q0 111 111 189q112 77 256 77q84 0 127 -29.5t43 -83.5q0 -64 -54 -135t-93 -71q-15 0 -24.5 7.5t-9.5 18.5q0 7 29 65q28 55 28 100q0 37 -22.5 58t-63.5 21
q-79 0 -139 -63t-60 -141q0 -53 28 -92t74 -55q99 19 131 19q40 0 40 -35q0 -21 -16 -33.5t-45 -12.5q-41 0 -101 15q-101 -24 -161 -90q-61 -65 -61 -141q0 -74 51 -119t140 -45q116 0 222 75q107 76 152 196z" />
    <glyph glyph-name="Edieresis" unicode="&#xcb;" horiz-adv-x="653" 
d="M658 903q-32 -8 -54 -8q-51 0 -51 42q0 37 32 71q32 32 74 32q34 0 34 -27q0 -19 -16 -58q-18 -46 -19 -52zM450 880q-30 -8 -53 -8q-51 0 -51 42q0 39 31 71q32 32 74 32q35 0 35 -27q0 -15 -17 -60q-4 -11 -9 -24t-7.5 -18.5t-2.5 -7.5zM754 270l14 35q22 0 27 -5
q4 -4 4 -10q0 -10 -4 -17l-7 -21q-48 -141 -174 -240q-128 -99 -294 -99q-125 0 -204 59q-78 60 -78 159q0 104 86 181q85 74 212 106q-73 12 -118.5 54.5t-45.5 102.5q0 111 111 189q112 77 256 77q84 0 127 -29.5t43 -83.5q0 -64 -54 -135t-93 -71q-15 0 -24.5 7.5
t-9.5 18.5q0 7 29 65q28 55 28 100q0 37 -22.5 58t-63.5 21q-79 0 -139 -63t-60 -141q0 -53 28 -92t74 -55q99 19 131 19q40 0 40 -35q0 -21 -16 -33.5t-45 -12.5q-41 0 -101 15q-101 -24 -161 -90q-61 -65 -61 -141q0 -74 51 -119t140 -45q116 0 222 75q107 76 152 196z
" />
    <glyph glyph-name="Igrave" unicode="&#xcc;" horiz-adv-x="731" 
d="M547 913l-37 30q-66 54 -90 73q42 58 89 58q33 0 64 -43l23 -28q7 -8 37 -49q22 -30 29 -37q-19 -37 -56 -37q-26 0 -59 33zM873 300q4 -5 4 -10q0 -6 -4 -17l-7 -21q-49 -142 -178 -235t-356 -157q-72 -48 -124 -48q-41 0 -41 37q0 69 105 85l46 8q29 36 55 114
q22 70 61 249l33 157q45 219 130 310l-74 -17q-184 -43 -258 -106q-72 -61 -72 -155q0 -98 64 -216l7 -13q15 -23 15 -32q0 -11 -12 -20.5t-25 -9.5q-50 0 -118 87q-68 88 -68 181q0 242 431 325l152 29q82 79 136 79q22 0 37.5 -15t15.5 -36t-27 -34.5t-101 -27.5
q-37 -49 -58 -144l-52 -221q-86 -361 -188 -467q180 44 283.5 119.5t146.5 191.5l13 35q23 0 28 -5z" />
    <glyph glyph-name="Iacute" unicode="&#xcd;" horiz-adv-x="731" 
d="M522 849q-26 24 -26 47q0 32 42 63l43 28q41 27 88 67q42 -40 42 -79q0 -46 -54 -68l-39 -17q-17 -7 -41 -17t-37 -15t-18 -9zM873 300q4 -5 4 -10q0 -6 -4 -17l-7 -21q-49 -142 -178 -235t-356 -157q-72 -48 -124 -48q-41 0 -41 37q0 69 105 85l46 8q29 36 55 114
q22 70 61 249l33 157q45 219 130 310l-74 -17q-184 -43 -258 -106q-72 -61 -72 -155q0 -98 64 -216l7 -13q15 -23 15 -32q0 -11 -12 -20.5t-25 -9.5q-50 0 -118 87q-68 88 -68 181q0 242 431 325l152 29q82 79 136 79q22 0 37.5 -15t15.5 -36t-27 -34.5t-101 -27.5
q-37 -49 -58 -144l-52 -221q-86 -361 -188 -467q180 44 283.5 119.5t146.5 191.5l13 35q23 0 28 -5z" />
    <glyph glyph-name="Icircumflex" unicode="&#xce;" horiz-adv-x="731" 
d="M478 952l-106 -69q-23 -15 -39 -7t-18 25q0 13 26 37l104 98q31 27 58 27q29 0 49 -29l10 -15q30 -44 44 -66q6 -9 12 -18.5t9.5 -14.5t4.5 -7q-15 -30 -47 -30q-21 0 -62 32zM873 300q4 -5 4 -10q0 -6 -4 -17l-7 -21q-49 -142 -178 -235t-356 -157q-72 -48 -124 -48
q-41 0 -41 37q0 69 105 85l46 8q29 36 55 114q22 70 61 249l33 157q45 219 130 310l-74 -17q-184 -43 -258 -106q-72 -61 -72 -155q0 -98 64 -216l7 -13q15 -23 15 -32q0 -11 -12 -20.5t-25 -9.5q-50 0 -118 87q-68 88 -68 181q0 242 431 325l152 29q82 79 136 79
q22 0 37.5 -15t15.5 -36t-27 -34.5t-101 -27.5q-37 -49 -58 -144l-52 -221q-86 -361 -188 -467q180 44 283.5 119.5t146.5 191.5l13 35q23 0 28 -5z" />
    <glyph glyph-name="Idieresis" unicode="&#xcf;" horiz-adv-x="731" 
d="M587 916q-51 0 -51 42q0 37 32 71q32 32 74 32q34 0 34 -27q0 -19 -16 -58q-18 -46 -19 -52q-32 -8 -54 -8zM380 893q-51 0 -51 42q0 39 31 71q32 32 74 32q35 0 35 -27q0 -15 -17 -60q-4 -11 -9 -24t-7.5 -18.5t-2.5 -7.5q-30 -8 -53 -8zM873 300q4 -5 4 -10
q0 -6 -4 -17l-7 -21q-49 -142 -178 -235t-356 -157q-72 -48 -124 -48q-41 0 -41 37q0 69 105 85l46 8q29 36 55 114q22 70 61 249l33 157q45 219 130 310l-74 -17q-184 -43 -258 -106q-72 -61 -72 -155q0 -98 64 -216l7 -13q15 -23 15 -32q0 -11 -12 -20.5t-25 -9.5
q-50 0 -118 87q-68 88 -68 181q0 242 431 325l152 29q82 79 136 79q22 0 37.5 -15t15.5 -36t-27 -34.5t-101 -27.5q-37 -49 -58 -144l-52 -221q-86 -361 -188 -467q180 44 283.5 119.5t146.5 191.5l13 35q23 0 28 -5z" />
    <glyph glyph-name="Eth" unicode="&#xd0;" horiz-adv-x="1227" 
d="M673 832q243 0 380 -102q136 -103 136 -284q0 -117 -48 -220t-129 -171q-80 -67 -179.5 -105t-201.5 -38q-228 0 -228 164q0 77 52 276q-45 3 -71 3q-34 0 -56 -2q-4 12 -4 28q0 26 16 38t52 12q3 0 13 -0.5t30 -1t40 -0.5l95 345q-186 -19 -281 -129t-95 -256
q0 -116 58 -242l6 -14q8 -19 8 -26q0 -11 -14.5 -21t-31.5 -10q-48 0 -111 87q-64 85 -64 203q0 189 159 325q78 66 199.5 103.5t269.5 37.5zM669 -32q66 0 133 34.5t120 93.5q54 60 85.5 146.5t31.5 181.5q0 155 -88.5 247t-251.5 105l-96 -351l59 -1q35 0 57 2
q3 -15 3 -29q0 -55 -68 -55q-24 0 -72 3q-49 -186 -49 -257q0 -57 36 -88.5t100 -31.5z" />
    <glyph glyph-name="Ntilde" unicode="&#xd1;" horiz-adv-x="1139" 
d="M914 896q-35 0 -44 -46q-25 -2 -36 8t-11 40q0 40 25 66t66 26q30 0 70 -13q39 -13 57 -13q20 0 30.5 10.5t15.5 35.5q25 2 36 -8t11 -38q0 -40 -26.5 -67t-67.5 -27q-26 0 -65 13q-40 13 -61 13zM825 -25l-126 499l-45 -145q-78 -251 -165 -361q-89 -108 -203 -108
q-85 0 -160 54q-75 56 -75 101q0 15 12 29.5t24 14.5q9 0 44 -16l13 -7q105 -47 170 -47q43 0 79 18.5t76 63.5q81 91 165 351l42 130q-23 69 -23 99q0 45 27 82q26 36 60 36q25 0 34.5 -21.5t8.5 -80.5l134 -532l110 396q48 172 104 236q55 63 132 63q38 0 61 -19.5
t23 -55.5q0 -27 -18 -64q-45 17 -84 17q-53 0 -91 -39.5t-65 -128.5l-149 -484q7 -52 7 -57q0 -42 -26 -76q-25 -33 -61 -33q-40 0 -40 38q0 9 5 47z" />
    <glyph glyph-name="Ograve" unicode="&#xd2;" horiz-adv-x="1077" 
d="M609 922l-37 30q-66 54 -90 73q42 58 89 58q33 0 64 -43l23 -28q7 -8 37 -49q22 -30 29 -37q-19 -37 -56 -37q-26 0 -59 33zM1178 270l14 35q31 1 31 -16q0 -5 -3 -16l-8 -21q-50 -142 -178 -227q-130 -87 -326 -88q-121 -85 -262 -85q-164 0 -259 92q-95 93 -95 261
q0 95 27 186q27 90 65 153q38 60 73.5 97t56.5 37q7 0 15 -6t8 -12q0 -3 -7 -19t-22 -47.5t-25 -54.5q-22 -49 -38 -124q-17 -82 -17 -160q0 -156 74 -245q73 -89 188 -89q56 0 110 26q-133 26 -205 118t-72 233q0 144 56 270q55 123 148 196q92 71 193 71q122 0 192 -86
t70 -248q0 -142 -50 -270.5t-140 -222.5q142 10 242 78t144 184zM447 356q0 -148 63.5 -236.5t175.5 -107.5q68 73 108 193q38 120 38 254q0 145 -42.5 227.5t-112.5 82.5q-86 0 -158 -123q-72 -124 -72 -290z" />
    <glyph glyph-name="Oacute" unicode="&#xd3;" horiz-adv-x="1077" 
d="M639 874q-26 24 -26 47q0 31 42 63l43 28q41 27 88 67q42 -41 42 -79q0 -46 -54 -68l-39 -17q-17 -7 -41 -17t-37 -15t-18 -9zM1178 270l14 35q31 1 31 -16q0 -5 -3 -16l-8 -21q-50 -142 -178 -227q-130 -87 -326 -88q-121 -85 -262 -85q-164 0 -259 92q-95 93 -95 261
q0 95 27 186q27 90 65 153q38 60 73.5 97t56.5 37q7 0 15 -6t8 -12q0 -3 -7 -19t-22 -47.5t-25 -54.5q-22 -49 -38 -124q-17 -82 -17 -160q0 -156 74 -245q73 -89 188 -89q56 0 110 26q-133 26 -205 118t-72 233q0 144 56 270q55 123 148 196q92 71 193 71q122 0 192 -86
t70 -248q0 -142 -50 -270.5t-140 -222.5q142 10 242 78t144 184zM447 356q0 -148 63.5 -236.5t175.5 -107.5q68 73 108 193q38 120 38 254q0 145 -42.5 227.5t-112.5 82.5q-86 0 -158 -123q-72 -124 -72 -290z" />
    <glyph glyph-name="Ocircumflex" unicode="&#xd4;" horiz-adv-x="1077" 
d="M677 948l-106 -69q-24 -15 -39 -7.5t-18 25.5q0 13 26 37l104 98q32 27 58 27q29 0 49 -29l10 -15q30 -44 44 -66q6 -9 12 -18.5t9.5 -14.5t4.5 -7q-15 -30 -47 -30q-21 0 -62 32zM1178 270l14 35q31 1 31 -16q0 -5 -3 -16l-8 -21q-50 -142 -178 -227q-130 -87 -326 -88
q-121 -85 -262 -85q-164 0 -259 92q-95 93 -95 261q0 95 27 186q27 90 65 153q38 60 73.5 97t56.5 37q7 0 15 -6t8 -12q0 -3 -7 -19t-22 -47.5t-25 -54.5q-22 -49 -38 -124q-17 -82 -17 -160q0 -156 74 -245q73 -89 188 -89q56 0 110 26q-133 26 -205 118t-72 233
q0 144 56 270q55 123 148 196q92 71 193 71q122 0 192 -86t70 -248q0 -142 -50 -270.5t-140 -222.5q142 10 242 78t144 184zM447 356q0 -148 63.5 -236.5t175.5 -107.5q68 73 108 193q38 120 38 254q0 145 -42.5 227.5t-112.5 82.5q-86 0 -158 -123q-72 -124 -72 -290z" />
    <glyph glyph-name="Otilde" unicode="&#xd5;" horiz-adv-x="1077" 
d="M1178 270l14 35q31 1 31 -16q0 -5 -3 -16l-8 -21q-50 -142 -178 -227q-130 -87 -326 -88q-121 -85 -262 -85q-164 0 -259 92q-95 93 -95 261q0 95 27 186q27 90 65 153q38 60 73.5 97t56.5 37q7 0 15 -6t8 -12q0 -3 -7 -19t-22 -47.5t-25 -54.5q-22 -49 -38 -124
q-17 -82 -17 -160q0 -156 74 -245q73 -89 188 -89q56 0 110 26q-133 26 -205 118t-72 233q0 144 56 270q55 123 148 196q92 71 193 71q122 0 192 -86t70 -248q0 -142 -50 -270.5t-140 -222.5q142 10 242 78t144 184zM447 356q0 -148 63.5 -236.5t175.5 -107.5q68 73 108 193
q38 120 38 254q0 145 -42.5 227.5t-112.5 82.5q-86 0 -158 -123q-72 -124 -72 -290zM562 883q-25 1 -34 12t-3 41q9 40 39.5 62t71.5 18q25 -3 66 -20q36 -17 54 -19q35 -4 56 40q25 -1 34 -12t3 -39q-8 -39 -40 -62.5t-74 -19.5q-22 3 -61 20q-37 17 -58 19q-36 5 -54 -40z
" />
    <glyph glyph-name="Odieresis" unicode="&#xd6;" horiz-adv-x="1077" 
d="M766 893q-51 0 -51 42q0 37 32 71q32 32 74 32q34 0 34 -27q0 -19 -16 -58q-18 -46 -19 -52q-32 -8 -54 -8zM559 870q-51 0 -51 42q0 39 31 71q32 32 74 32q35 0 35 -27q0 -15 -17 -60q-4 -11 -9 -24t-7.5 -18.5t-2.5 -7.5q-30 -8 -53 -8zM1178 270l14 35q31 1 31 -16
q0 -5 -3 -16l-8 -21q-50 -142 -178 -227q-130 -87 -326 -88q-121 -85 -262 -85q-164 0 -259 92q-95 93 -95 261q0 95 27 186q27 90 65 153q38 60 73.5 97t56.5 37q7 0 15 -6t8 -12q0 -3 -7 -19t-22 -47.5t-25 -54.5q-22 -49 -38 -124q-17 -82 -17 -160q0 -156 74 -245
q73 -89 188 -89q56 0 110 26q-133 26 -205 118t-72 233q0 144 56 270q55 123 148 196q92 71 193 71q122 0 192 -86t70 -248q0 -142 -50 -270.5t-140 -222.5q142 10 242 78t144 184zM447 356q0 -148 63.5 -236.5t175.5 -107.5q68 73 108 193q38 120 38 254q0 145 -42.5 227.5
t-112.5 82.5q-86 0 -158 -123q-72 -124 -72 -290z" />
    <glyph glyph-name="Oslash" unicode="&#xd8;" horiz-adv-x="1062" 
d="M885 844l-19 -33q140 -77 140 -301q0 -172 -72 -322q-73 -150 -202 -241q-129 -90 -282 -90q-65 0 -125 17l-32 -57q-42 -76 -50 -99q-46 8 -60 26q-11 14 -11 29q0 23 27 67l44 71q-150 95 -150 315q0 83 27 167q27 85 64 142t73 93t56 36q9 0 18 -5.5t9 -12.5
q0 -6 -17 -42l-11 -20q-27 -56 -51 -147t-24 -179q0 -153 70 -241l96 164q-62 73 -62 178q0 121 52 231q51 111 143 182q91 70 199 70q25 0 47 -3l15 26q15 24 45 90q42 -11 55 -30q9 -12 9 -25q0 -20 -21 -56zM479 394q0 -43 7 -72l257 447q-24 8 -44 8q-53 3 -105.5 -55
t-84.5 -149t-30 -179zM498 -76q100 -2 183.5 75t129 204.5t43.5 270.5q0 156 -48 236l-281 -481q44 -58 134 -73q1 -4 1 -15q0 -42 -65 -42q-70 0 -127 30l-97 -170q56 -35 127 -35z" />
    <glyph glyph-name="Ugrave" unicode="&#xd9;" horiz-adv-x="924" 
d="M558 873l-37 30q-66 54 -90 73q42 58 89 58q33 0 64 -43l23 -28q7 -8 37 -49q22 -30 29 -37q-19 -37 -56 -37q-26 0 -59 33zM1066 300q4 -5 4 -10t-4 -17l-7 -21q-31 -88 -123 -153q-94 -65 -219 -65q-56 0 -101 12q-143 -122 -308 -122q-107 0 -170.5 52t-63.5 146
q0 72 41 186q39 108 81 211q40 96 40 139q0 37 -38 37q-25 0 -76 -21q-53 -21 -64 -21q-12 0 -21.5 11t-9.5 25q0 17 21 24q31 12 98 24q68 11 116 11q112 0 112 -89q0 -39 -38 -139q-39 -100 -78 -207t-39 -164q0 -73 40.5 -113.5t112.5 -40.5q100 0 182 78q-96 61 -96 210
q0 121 50 253q49 128 131 216q81 86 163 86q55 0 85 -33.5t30 -98.5q0 -134 -65 -306q-64 -169 -176 -295q37 -14 77 -14q93 0 168 51t104 128l13 35q21 0 28 -5zM776 695q0 46 -14.5 62.5t-38 -0.5t-48.5 -63q-38 -68 -68 -182q-29 -111 -29 -207q0 -101 40 -154
q75 111 117 268q41 159 41 276z" />
    <glyph glyph-name="Uacute" unicode="&#xda;" horiz-adv-x="924" 
d="M500 835q-26 24 -26 47q0 32 42 63l43 28q41 27 88 67q42 -40 42 -79q0 -45 -54 -68l-39 -17q-17 -7 -41 -17t-37 -15t-18 -9zM1066 300q4 -5 4 -10t-4 -17l-7 -21q-31 -88 -123 -153q-94 -65 -219 -65q-56 0 -101 12q-143 -122 -308 -122q-107 0 -170.5 52t-63.5 146
q0 72 41 186q39 108 81 211q40 96 40 139q0 37 -38 37q-25 0 -76 -21q-53 -21 -64 -21q-12 0 -21.5 11t-9.5 25q0 17 21 24q31 12 98 24q68 11 116 11q112 0 112 -89q0 -39 -38 -139q-39 -100 -78 -207t-39 -164q0 -73 40.5 -113.5t112.5 -40.5q100 0 182 78q-96 61 -96 210
q0 121 50 253q49 128 131 216q81 86 163 86q55 0 85 -33.5t30 -98.5q0 -134 -65 -306q-64 -169 -176 -295q37 -14 77 -14q93 0 168 51t104 128l13 35q21 0 28 -5zM776 695q0 46 -14.5 62.5t-38 -0.5t-48.5 -63q-38 -68 -68 -182q-29 -111 -29 -207q0 -101 40 -154
q75 111 117 268q41 159 41 276z" />
    <glyph glyph-name="Ucircumflex" unicode="&#xdb;" horiz-adv-x="924" 
d="M565 939l-106 -69q-23 -15 -39 -7t-18 25q0 13 26 37l104 98q32 27 58 27q29 0 49 -29l10 -15q30 -44 44 -66q6 -9 12 -18.5t9.5 -14.5t4.5 -7q-15 -30 -47 -30q-21 0 -62 32zM1066 300q4 -5 4 -10t-4 -17l-7 -21q-31 -88 -123 -153q-94 -65 -219 -65q-56 0 -101 12
q-143 -122 -308 -122q-107 0 -170.5 52t-63.5 146q0 72 41 186q39 108 81 211q40 96 40 139q0 37 -38 37q-25 0 -76 -21q-53 -21 -64 -21q-12 0 -21.5 11t-9.5 25q0 17 21 24q31 12 98 24q68 11 116 11q112 0 112 -89q0 -39 -38 -139q-39 -100 -78 -207t-39 -164
q0 -73 40.5 -113.5t112.5 -40.5q100 0 182 78q-96 61 -96 210q0 121 50 253q49 128 131 216q81 86 163 86q55 0 85 -33.5t30 -98.5q0 -134 -65 -306q-64 -169 -176 -295q37 -14 77 -14q93 0 168 51t104 128l13 35q21 0 28 -5zM776 695q0 46 -14.5 62.5t-38 -0.5t-48.5 -63
q-38 -68 -68 -182q-29 -111 -29 -207q0 -101 40 -154q75 111 117 268q41 159 41 276z" />
    <glyph glyph-name="Udieresis" unicode="&#xdc;" horiz-adv-x="924" 
d="M651 877q-51 0 -51 42q0 37 32 71q32 32 74 32q34 0 34 -27q0 -19 -16 -58q-18 -46 -19 -52q-32 -8 -54 -8zM444 854q-51 0 -51 42q0 39 31 71q32 32 74 32q35 0 35 -27q0 -15 -17 -60q-4 -11 -9 -24t-7.5 -18.5t-2.5 -7.5q-30 -8 -53 -8zM1066 300q4 -5 4 -10t-4 -17
l-7 -21q-31 -88 -123 -153q-94 -65 -219 -65q-56 0 -101 12q-143 -122 -308 -122q-107 0 -170.5 52t-63.5 146q0 72 41 186q39 108 81 211q40 96 40 139q0 37 -38 37q-25 0 -76 -21q-53 -21 -64 -21q-12 0 -21.5 11t-9.5 25q0 17 21 24q31 12 98 24q68 11 116 11
q112 0 112 -89q0 -39 -38 -139q-39 -100 -78 -207t-39 -164q0 -73 40.5 -113.5t112.5 -40.5q100 0 182 78q-96 61 -96 210q0 121 50 253q49 128 131 216q81 86 163 86q55 0 85 -33.5t30 -98.5q0 -134 -65 -306q-64 -169 -176 -295q37 -14 77 -14q93 0 168 51t104 128l13 35
q21 0 28 -5zM776 695q0 46 -14.5 62.5t-38 -0.5t-48.5 -63q-38 -68 -68 -182q-29 -111 -29 -207q0 -101 40 -154q75 111 117 268q41 159 41 276z" />
    <glyph glyph-name="Yacute" unicode="&#xdd;" horiz-adv-x="819" 
d="M464 829q-26 24 -26 47q0 32 42 63l43 28q41 27 88 67q42 -40 42 -79q0 -46 -54 -68l-39 -17q-17 -7 -41 -17t-37 -15t-18 -9zM961 300q4 -5 4 -10q0 -6 -4 -17l-7 -21q-83 -239 -261 -239q-43 0 -96 15q-164 -524 -403 -524q-82 0 -129.5 51t-47.5 143q0 181 115 309
q114 129 279 129q41 0 110 -12q28 111 73 318l-7 4q-36 -129 -117 -202q-83 -74 -181 -74q-64 0 -102.5 32.5t-38.5 90.5q0 50 29 129q23 64 58 146q28 66 28 93q0 44 -43 44q-27 0 -78 -20t-61 -20q-13 0 -21.5 11.5t-8.5 27.5q0 18 24 26q105 30 199 30q67 0 94.5 -22.5
t27.5 -71.5q0 -43 -56 -176q-57 -134 -57 -178q0 -30 18 -46.5t49 -16.5q83 0 153 111q61 99 102 301l20 98q13 72 104 72q42 0 42 -42q0 -17 -5 -39l-92 -423q-26 -118 -54 -221q58 -9 92 -9q143 0 208 173l13 35q23 0 28 -5zM236 -420q31 0 56.5 17t58.5 62q71 99 152 400
q-77 23 -115 23q-105 0 -168 -108q-64 -106 -64 -253q0 -70 21 -105.5t59 -35.5z" />
    <glyph glyph-name="Thorn" unicode="&#xde;" horiz-adv-x="957" 
d="M1009 435q0 -133 -132 -228q-133 -95 -339 -107q-16 -86 -16 -127q0 -13 2 -21q-27 -13 -59 -13q-34 0 -55 17.5t-21 49.5q0 23 9 62t33 129q23 90 42 171l59 248q-145 -18 -221.5 -101.5t-76.5 -217.5q0 -93 46 -182l3 -6q8 -18 8 -24q0 -13 -13 -24t-30 -11
q-44 0 -97 69q-53 68 -53 158q0 155 123 262q123 106 323 129l18 75q9 39 30 54.5t63 15.5q39 0 39 -33q0 -6 -11 -59l-12 -49q157 -7 248 -70q90 -64 90 -167zM871 412q0 87 -56 142t-157 65l-55 -227q-33 -137 -55 -241q152 19 237.5 88.5t85.5 172.5z" />
    <glyph glyph-name="germandbls" unicode="&#xdf;" horiz-adv-x="600" 
d="M742 300q4 -5 4 -10q0 -6 -4 -17l-7 -21q-16 -46 -66 -73t-135 -43q2 -16 2 -20q0 -66 -62 -111q-61 -46 -142 -46q-54 0 -86 23t-32 61q0 45 42.5 69.5t132.5 40.5q-6 10 -24 35q-23 31 -28 41q-27 43 -27 80q0 19 9 39t20 35.5t33 35.5t36.5 31.5t43 33.5t40.5 31
q99 77 99 165q0 48 -29 76t-80 28q-77 0 -137.5 -74.5t-92.5 -216.5l-122 -561q-69 -316 -72 -397q-30 -14 -60 -14q-62 0 -62 54q0 25 20 102q12 47 21 84l163 695q47 197 147 293q101 95 227 95q90 0 143.5 -40.5t53.5 -109.5q0 -47 -22.5 -87.5t-58.5 -70t-73 -53
t-76 -48.5t-57 -45q-45 -50 -2 -104q21 -26 53 -56q32 -31 45 -55q80 15 124 37t58 59l12 34q23 0 28 -5zM416 85q0 15 -6 30q-106 -20 -106 -62q0 -18 14.5 -29t35.5 -11q28 0 45 20.5t17 51.5z" />
    <glyph glyph-name="agrave" unicode="&#xe0;" 
d="M353 596l-28 34q-23 29 -68 81q41 41 79 40t61 -47l16 -29l46 -88q-23 -27 -47 -27q-29 0 -59 36zM716 300q4 -4 4 -10q0 -8 -3 -17l-8 -21q-35 -101 -122 -181q-88 -82 -171 -82q-41 0 -63 19t-22 52q0 44 41 155l-6 2q-45 -119 -96 -173.5t-117 -54.5q-54 0 -86 35.5
t-32 99.5q0 87 44 168t123 135q80 55 178 55q22 0 41 -3q17 35 75 35q24 0 33 -6t9 -21q0 -19 -51 -188q-52 -168 -52 -203q0 -29 25 -29q50 0 118 60q65 59 97 143l14 35q20 0 27 -5zM202 72q44 0 97 81q52 78 91 216l18 66q-5 1 -23 1q-49 0 -94.5 -26.5t-75.5 -70.5
q-62 -91 -62 -191q0 -76 49 -76z" />
    <glyph glyph-name="aacute" unicode="&#xe1;" 
d="M366 559q-59 41 8 100l37 29q34 27 76 66q43 -36 43 -73q0 -39 -46 -61l-35 -18q-17 -9 -36.5 -18.5t-30.5 -15.5t-16 -9zM716 300q4 -4 4 -10q0 -8 -3 -17l-8 -21q-35 -101 -122 -181q-88 -82 -171 -82q-41 0 -63 19t-22 52q0 44 41 155l-6 2q-45 -119 -96 -173.5
t-117 -54.5q-54 0 -86 35.5t-32 99.5q0 87 44 168t123 135q80 55 178 55q22 0 41 -3q17 35 75 35q24 0 33 -6t9 -21q0 -19 -51 -188q-52 -168 -52 -203q0 -29 25 -29q50 0 118 60q65 59 97 143l14 35q20 0 27 -5zM202 72q44 0 97 81q52 78 91 216l18 66q-5 1 -23 1
q-49 0 -94.5 -26.5t-75.5 -70.5q-62 -91 -62 -191q0 -76 49 -76z" />
    <glyph glyph-name="acircumflex" unicode="&#xe2;" 
d="M281 554q-9 0 -17.5 8.5t-8.5 16.5q0 11 23 34l102 95q27 24 52 24q27 0 45 -26l8 -12l67 -100q-14 -27 -43 -27q-18 0 -56 29l-44 35l-103 -68q-14 -9 -25 -9zM716 300q4 -4 4 -10q0 -8 -3 -17l-8 -21q-35 -101 -122 -181q-88 -82 -171 -82q-41 0 -63 19t-22 52
q0 44 41 155l-6 2q-45 -119 -96 -173.5t-117 -54.5q-54 0 -86 35.5t-32 99.5q0 87 44 168t123 135q80 55 178 55q22 0 41 -3q17 35 75 35q24 0 33 -6t9 -21q0 -19 -51 -188q-52 -168 -52 -203q0 -29 25 -29q50 0 118 60q65 59 97 143l14 35q20 0 27 -5zM202 72q44 0 97 81
q52 78 91 216l18 66q-5 1 -23 1q-49 0 -94.5 -26.5t-75.5 -70.5q-62 -91 -62 -191q0 -76 49 -76z" />
    <glyph glyph-name="atilde" unicode="&#xe3;" 
d="M716 300q4 -4 4 -10q0 -8 -3 -17l-8 -21q-35 -101 -122 -181q-88 -82 -171 -82q-41 0 -63 19t-22 52q0 44 41 155l-6 2q-45 -119 -96 -173.5t-117 -54.5q-54 0 -86 35.5t-32 99.5q0 87 44 168t123 135q80 55 178 55q22 0 41 -3q17 35 75 35q24 0 33 -6t9 -21
q0 -19 -51 -188q-52 -168 -52 -203q0 -29 25 -29q50 0 118 60q65 59 97 143l14 35q20 0 27 -5zM202 72q44 0 97 81q52 78 91 216l18 66q-5 1 -23 1q-49 0 -94.5 -26.5t-75.5 -70.5q-62 -91 -62 -191q0 -76 49 -76zM283 571q-24 1 -32 11.5t-3 37.5q9 37 37 58t67 17
q21 -2 61 -19q36 -16 51 -18q32 -4 52 38q23 -1 31.5 -11.5t2.5 -36.5q-8 -37 -38 -58.5t-68 -17.5q-16 1 -57 18q-36 16 -54 18q-34 5 -50 -37z" />
    <glyph glyph-name="adieresis" unicode="&#xe4;" 
d="M491 572q-51 0 -51 43q0 36 32 70q32 33 74 33q34 0 34 -27q0 -18 -16 -59q-18 -46 -19 -52q-43 -8 -54 -8zM352 568q-46 -13 -75.5 -4.5t-29.5 38.5q0 37 32 71q31 33 74 33q34 0 34 -28q0 -17 -16 -58q-18 -49 -19 -52zM716 300q4 -4 4 -10q0 -8 -3 -17l-8 -21
q-35 -101 -122 -181q-88 -82 -171 -82q-41 0 -63 19t-22 52q0 44 41 155l-6 2q-45 -119 -96 -173.5t-117 -54.5q-54 0 -86 35.5t-32 99.5q0 87 44 168t123 135q80 55 178 55q22 0 41 -3q17 35 75 35q24 0 33 -6t9 -21q0 -19 -51 -188q-52 -168 -52 -203q0 -29 25 -29
q50 0 118 60q65 59 97 143l14 35q20 0 27 -5zM202 72q44 0 97 81q52 78 91 216l18 66q-5 1 -23 1q-49 0 -94.5 -26.5t-75.5 -70.5q-62 -91 -62 -191q0 -76 49 -76z" />
    <glyph glyph-name="aring" unicode="&#xe5;" 
d="M409 559q-49 0 -77.5 22t-28.5 61q0 58 47 96q46 36 113 36q49 0 77.5 -21.5t28.5 -60.5q0 -60 -47 -96q-46 -37 -113 -37zM453 732q-29 0 -48 -26t-19 -62q0 -43 34 -43q28 0 47.5 26t19.5 62q0 43 -34 43zM716 300q4 -4 4 -10q0 -8 -3 -17l-8 -21q-35 -101 -122 -181
q-88 -82 -171 -82q-41 0 -63 19t-22 52q0 44 41 155l-6 2q-45 -119 -96 -173.5t-117 -54.5q-54 0 -86 35.5t-32 99.5q0 87 44 168t123 135q80 55 178 55q22 0 41 -3q17 35 75 35q24 0 33 -6t9 -21q0 -19 -51 -188q-52 -168 -52 -203q0 -29 25 -29q50 0 118 60q65 59 97 143
l14 35q20 0 27 -5zM202 72q44 0 97 81q52 78 91 216l18 66q-5 1 -23 1q-49 0 -94.5 -26.5t-75.5 -70.5q-62 -91 -62 -191q0 -76 49 -76z" />
    <glyph glyph-name="ae" unicode="&#xe6;" horiz-adv-x="767" 
d="M909 300q4 -5 4 -10q0 -6 -4 -17l-5 -15q-38 -110 -141 -192t-238 -82q-89 0 -139.5 38t-54.5 112q-70 -145 -178 -145q-54 0 -86 35.5t-32 99.5q0 86 43.5 165.5t123.5 131.5q82 53 178 53q18 0 41 -3q18 36 68 36q39 0 39 -25q0 -12 -6 -32q61 40 121 40q48 0 76.5 -25
t28.5 -65q0 -76 -79 -133q-79 -58 -218 -67l-1 -16q0 -60 32 -91t91 -31q89 0 175 61q87 60 120 147l13 35q23 0 28 -5zM202 72q44 0 97 81q52 78 91 216l16 58l-21 1q-67 0 -122 -44t-82 -108q-28 -63 -28 -128q0 -76 49 -76zM597 418q-41 0 -82 -53t-58 -123q82 7 128 52
q46 43 46 89q0 35 -34 35z" />
    <glyph glyph-name="ccedilla" unicode="&#xe7;" horiz-adv-x="454" 
d="M596 300q4 -4 4 -10q0 -8 -3 -17l-5 -15q-37 -107 -137 -190q-99 -81 -222 -86q-18 -30 -18 -41q0 -6 23.5 -31t23.5 -48q0 -47 -43 -75t-98 -28q-40 0 -40 28l1 3v6q93 14 93 61q0 12 -10.5 36.5t-10.5 29.5q0 20 37 61q-154 14 -154 162q0 74 44 156q44 80 114 134
q71 54 137 54q48 0 73 -22t25 -61q0 -49 -36 -95q-36 -47 -66 -47q-14 0 -24.5 7.5t-10.5 17.5q0 7 16 45q15 39 15 65q0 28 -24 28q-46 0 -94 -87q-48 -89 -48 -170q0 -111 110 -111q85 0 171 62q85 62 116 148l14 35q22 0 27 -5z" />
    <glyph glyph-name="egrave" unicode="&#xe8;" horiz-adv-x="490" 
d="M305 595l-28 34q-23 29 -68 81q41 41 79 40t61 -47l16 -29l46 -88q-23 -27 -47 -27q-29 0 -59 36zM632 300q4 -4 4 -10q0 -9 -4 -17l-7 -21q-34 -102 -147 -185t-241 -83q-91 0 -143 42.5t-52 124.5q-3 75 43 155.5t119.5 133t144.5 50.5q51 0 80.5 -24t29.5 -66
q0 -76 -78 -133q-79 -58 -217 -67l-1 -16q0 -122 122 -122q88 0 182 62q93 63 124 146l14 35q22 0 27 -5zM308 418q-41 0 -82 -53t-56 -122q81 8 127 52q45 43 45 88q0 35 -34 35z" />
    <glyph glyph-name="eacute" unicode="&#xe9;" horiz-adv-x="490" 
d="M303 545q-59 41 8 100l37 29q34 27 76 66q43 -36 43 -73q0 -39 -46 -61l-35 -18q-17 -9 -36.5 -18.5t-30.5 -15.5t-16 -9zM632 300q4 -4 4 -10q0 -9 -4 -17l-7 -21q-34 -102 -147 -185t-241 -83q-91 0 -143 42.5t-52 124.5q-3 75 43 155.5t119.5 133t144.5 50.5
q51 0 80.5 -24t29.5 -66q0 -76 -78 -133q-79 -58 -217 -67l-1 -16q0 -122 122 -122q88 0 182 62q93 63 124 146l14 35q22 0 27 -5zM308 418q-41 0 -82 -53t-56 -122q81 8 127 52q45 43 45 88q0 35 -34 35z" />
    <glyph glyph-name="ecircumflex" unicode="&#xea;" horiz-adv-x="490" 
d="M213 554q-9 0 -17.5 8.5t-8.5 16.5q0 11 23 34l102 95q27 24 52 24q27 0 45 -26l8 -12l67 -100q-14 -27 -43 -27q-18 0 -56 29l-44 35l-103 -68q-14 -9 -25 -9zM632 300q4 -4 4 -10q0 -9 -4 -17l-7 -21q-34 -102 -147 -185t-241 -83q-91 0 -143 42.5t-52 124.5
q-3 75 43 155.5t119.5 133t144.5 50.5q51 0 80.5 -24t29.5 -66q0 -76 -78 -133q-79 -58 -217 -67l-1 -16q0 -122 122 -122q88 0 182 62q93 63 124 146l14 35q22 0 27 -5zM308 418q-41 0 -82 -53t-56 -122q81 8 127 52q45 43 45 88q0 35 -34 35z" />
    <glyph glyph-name="edieresis" unicode="&#xeb;" horiz-adv-x="490" 
d="M431 572q-51 0 -51 43q0 36 32 70q32 33 74 33q34 0 34 -27q0 -18 -16 -59q-18 -46 -19 -52q-43 -8 -54 -8zM292 568q-46 -13 -75.5 -4.5t-29.5 38.5q0 37 32 71q31 33 74 33q34 0 34 -28q0 -17 -16 -58q-18 -49 -19 -52zM632 300q4 -4 4 -10q0 -9 -4 -17l-7 -21
q-34 -102 -147 -185t-241 -83q-91 0 -143 42.5t-52 124.5q-3 75 43 155.5t119.5 133t144.5 50.5q51 0 80.5 -24t29.5 -66q0 -76 -78 -133q-79 -58 -217 -67l-1 -16q0 -122 122 -122q88 0 182 62q93 63 124 146l14 35q22 0 27 -5zM308 418q-41 0 -82 -53t-56 -122
q81 8 127 52q45 43 45 88q0 35 -34 35z" />
    <glyph glyph-name="igrave" unicode="&#xec;" horiz-adv-x="303" 
d="M236 559q-28 0 -60 36l-27 34q-37 48 -69 81q43 40 80 40t61 -47l16 -29l46 -88q-23 -27 -47 -27zM41 63q0 55 51 228q31 104 35 122l5 20q9 33 27.5 46t60.5 13q40 0 40 -25q0 -19 -50 -174q-51 -153 -51 -200q0 -29 30 -29q48 0 116 62q67 62 99 144l13 35q22 0 27 -5
q4 -4 4 -10q0 -8 -3 -17l-7 -21q-36 -102 -125 -184q-88 -82 -183 -82q-89 0 -89 77z" />
    <glyph glyph-name="iacute" unicode="&#xed;" horiz-adv-x="303" 
d="M196 565q-59 41 8 100l37 29q34 27 76 66q43 -36 43 -73q0 -39 -46 -61l-35 -18q-17 -9 -36.5 -18.5t-30.5 -15.5t-16 -9zM41 63q0 55 51 228q31 104 35 122l5 20q9 33 27.5 46t60.5 13q40 0 40 -25q0 -19 -50 -174q-51 -153 -51 -200q0 -29 30 -29q48 0 116 62
q67 62 99 144l13 35q22 0 27 -5q4 -4 4 -10q0 -8 -3 -17l-7 -21q-36 -102 -125 -184q-88 -82 -183 -82q-89 0 -89 77z" />
    <glyph glyph-name="icircumflex" unicode="&#xee;" horiz-adv-x="303" 
d="M275 596l-44 35l-103 -68q-14 -9 -25 -9q-10 0 -18.5 8.5t-8.5 16.5q0 11 24 34l102 95q27 24 52 24q27 0 45 -26l8 -12l67 -100q-14 -27 -43 -27q-18 0 -56 29zM41 63q0 55 51 228q31 104 35 122l5 20q9 33 27.5 46t60.5 13q40 0 40 -25q0 -19 -50 -174
q-51 -153 -51 -200q0 -29 30 -29q48 0 116 62q67 62 99 144l13 35q22 0 27 -5q4 -4 4 -10q0 -8 -3 -17l-7 -21q-36 -102 -125 -184q-88 -82 -183 -82q-89 0 -89 77z" />
    <glyph glyph-name="idieresis" unicode="&#xef;" horiz-adv-x="303" 
d="M375 580q-43 -8 -54 -8q-51 0 -51 43q0 36 32 70q32 33 74 33q34 0 34 -27q0 -18 -16 -59q-18 -46 -19 -52zM182 568q-46 -13 -75.5 -4.5t-29.5 38.5q0 37 32 71q31 33 74 33q34 0 34 -28q0 -17 -16 -58q-18 -49 -19 -52zM41 63q0 55 51 228q31 104 35 122l5 20
q9 33 27.5 46t60.5 13q40 0 40 -25q0 -19 -50 -174q-51 -153 -51 -200q0 -29 30 -29q48 0 116 62q67 62 99 144l13 35q22 0 27 -5q4 -4 4 -10q0 -8 -3 -17l-7 -21q-36 -102 -125 -184q-88 -82 -183 -82q-89 0 -89 77z" />
    <glyph glyph-name="ntilde" unicode="&#xf1;" horiz-adv-x="608" 
d="M332 611q-32 0 -41 -42q-22 -1 -32 8.5t-10 35.5q0 36 21.5 60t56.5 24q27 0 70 -15q42 -15 56 -15q18 0 27.5 10t14.5 32q24 2 34 -7t10 -35q0 -38 -22 -62t-56 -24q-28 0 -70 15t-59 15zM709 270l13 35q20 0 28 -5q4 -4 4 -10q0 -9 -4 -17l-7 -21q-34 -101 -123 -184
q-88 -82 -180 -82q-42 0 -65.5 19.5t-23.5 57.5q0 41 35 154q35 111 35 150q0 43 -38 43q-55 0 -120 -99q-65 -101 -99 -263l-3 -14l-9 -43q-31 -7 -50 -7q-62 0 -62 49q0 16 11 51q16 49 34 119q22 84 42 208l3 22q5 32 24 44.5t59 12.5q36 0 36 -23q0 -16 -26 -94
q-22 -61 -61 -184l5 -2q56 158 121.5 232t146.5 74q49 0 78 -28t29 -76q0 -46 -36 -154q-37 -108 -37 -142q0 -29 27 -29q47 0 115 62q66 60 98 144z" />
    <glyph glyph-name="ograve" unicode="&#xf2;" horiz-adv-x="607" 
d="M344 598l-28 34q-23 29 -68 81q41 41 79 40t61 -47l16 -29q8 -15 18.5 -36t17.5 -34.5t10 -17.5q-22 -27 -47 -27q-29 0 -59 36zM749 300q4 -5 4 -10q0 -6 -4 -17l-7 -21q-29 -85 -113 -141q-86 -58 -204 -59q-86 -76 -193 -76q-86 0 -137 45.5t-51 122.5q0 120 84 222
q85 103 190 137q15 5 27 5q11 0 19 -7t8 -15q0 -9 -22 -22q-71 -41 -125 -129q-55 -88 -55 -171q0 -59 26 -90.5t70 -31.5q34 0 69 24q-86 35 -86 136q0 89 67 175q68 86 139 86q46 0 74 -32t28 -91q0 -125 -78 -229q83 8 144 50t85 109l13 35q23 0 28 -5zM408 390
q-26 0 -52 -53q-27 -54 -27 -111q0 -79 56 -106q55 85 55 199q0 71 -32 71z" />
    <glyph glyph-name="oacute" unicode="&#xf3;" horiz-adv-x="607" 
d="M349 562q-59 41 8 100l37 29q34 27 76 66q43 -36 43 -73q0 -39 -46 -61l-35 -18q-17 -9 -36.5 -18.5t-30.5 -15.5t-16 -9zM749 300q4 -5 4 -10q0 -6 -4 -17l-7 -21q-29 -85 -113 -141q-86 -58 -204 -59q-86 -76 -193 -76q-86 0 -137 45.5t-51 122.5q0 120 84 222
q85 103 190 137q15 5 27 5q11 0 19 -7t8 -15q0 -9 -22 -22q-71 -41 -125 -129q-55 -88 -55 -171q0 -59 26 -90.5t70 -31.5q34 0 69 24q-86 35 -86 136q0 89 67 175q68 86 139 86q46 0 74 -32t28 -91q0 -125 -78 -229q83 8 144 50t85 109l13 35q23 0 28 -5zM408 390
q-26 0 -52 -53q-27 -54 -27 -111q0 -79 56 -106q55 85 55 199q0 71 -32 71z" />
    <glyph glyph-name="ocircumflex" unicode="&#xf4;" horiz-adv-x="607" 
d="M261 557q-9 0 -17.5 8.5t-8.5 16.5q0 11 23 34l102 95q27 24 52 24q27 0 45 -26l8 -12l67 -100q-14 -27 -43 -27q-18 0 -56 29l-44 35l-103 -68q-14 -9 -25 -9zM749 300q4 -5 4 -10q0 -6 -4 -17l-7 -21q-29 -85 -113 -141q-86 -58 -204 -59q-86 -76 -193 -76
q-86 0 -137 45.5t-51 122.5q0 120 84 222q85 103 190 137q15 5 27 5q11 0 19 -7t8 -15q0 -9 -22 -22q-71 -41 -125 -129q-55 -88 -55 -171q0 -59 26 -90.5t70 -31.5q34 0 69 24q-86 35 -86 136q0 89 67 175q68 86 139 86q46 0 74 -32t28 -91q0 -125 -78 -229q83 8 144 50
t85 109l13 35q23 0 28 -5zM408 390q-26 0 -52 -53q-27 -54 -27 -111q0 -79 56 -106q55 85 55 199q0 71 -32 71z" />
    <glyph glyph-name="otilde" unicode="&#xf5;" horiz-adv-x="607" 
d="M749 300q4 -5 4 -10q0 -6 -4 -17l-7 -21q-29 -85 -113 -141q-86 -58 -204 -59q-86 -76 -193 -76q-86 0 -137 45.5t-51 122.5q0 120 84 222q85 103 190 137q15 5 27 5q11 0 19 -7t8 -15q0 -9 -22 -22q-71 -41 -125 -129q-55 -88 -55 -171q0 -59 26 -90.5t70 -31.5
q34 0 69 24q-86 35 -86 136q0 89 67 175q68 86 139 86q46 0 74 -32t28 -91q0 -125 -78 -229q83 8 144 50t85 109l13 35q23 0 28 -5zM408 390q-26 0 -52 -53q-27 -54 -27 -111q0 -79 56 -106q55 85 55 199q0 71 -32 71zM291 571q-24 1 -32 11.5t-3 37.5q9 37 37 58t67 17
q21 -2 61 -19q36 -16 51 -18q32 -4 52 38q23 -1 31.5 -11.5t2.5 -36.5q-8 -37 -38 -58.5t-68 -17.5q-16 1 -57 18q-36 16 -54 18q-34 5 -50 -37z" />
    <glyph glyph-name="odieresis" unicode="&#xf6;" horiz-adv-x="607" 
d="M483 578q-51 0 -51 43q0 36 32 70q31 33 74 33q34 0 34 -27q0 -18 -16 -59q-18 -46 -19 -52q-43 -8 -54 -8zM344 574q-46 -13 -75.5 -4.5t-29.5 38.5q0 37 32 71q31 33 74 33q34 0 34 -28q0 -17 -16 -58q-18 -49 -19 -52zM749 300q4 -5 4 -10q0 -6 -4 -17l-7 -21
q-29 -85 -113 -141q-86 -58 -204 -59q-86 -76 -193 -76q-86 0 -137 45.5t-51 122.5q0 120 84 222q85 103 190 137q15 5 27 5q11 0 19 -7t8 -15q0 -9 -22 -22q-71 -41 -125 -129q-55 -88 -55 -171q0 -59 26 -90.5t70 -31.5q34 0 69 24q-86 35 -86 136q0 89 67 175
q68 86 139 86q46 0 74 -32t28 -91q0 -125 -78 -229q83 8 144 50t85 109l13 35q23 0 28 -5zM408 390q-26 0 -52 -53q-27 -54 -27 -111q0 -79 56 -106q55 85 55 199q0 71 -32 71z" />
    <glyph glyph-name="divide" unicode="&#xf7;" horiz-adv-x="541" 
d="M371 379q-29 -9 -61 -9q-58 0 -58 47q0 41 34 75t81 34q43 0 43 -32q0 -20 -19 -65q-6 -14 -10.5 -26t-7 -17.5t-2.5 -6.5zM495 299q2 -24 2 -26q0 -67 -70 -67q-47 0 -150 13t-150 13q-43 0 -58 -3q-1 6 -1 24q0 33 15.5 45t54.5 12q36 0 138 -9q97 -10 141 -10
q52 0 78 8zM275 -11q-30 -10 -62 -10q-57 0 -57 48q0 41 34 75t81 34q43 0 43 -33q1 -9 -7 -32.5t-19 -49t-13 -32.5z" />
    <glyph glyph-name="oslash" unicode="&#xf8;" horiz-adv-x="631" 
d="M586 334q0 -88 -42.5 -169t-121.5 -134q-80 -55 -179 -55l-31 -79l-18 -49q-31 -1 -46 15q-8 8 -8 21q0 12 9 32l30 67q-60 15 -93.5 57t-33.5 102q0 88 42.5 168.5t120.5 134.5q79 54 176 55l19 51l23 62q35 -5 48 -19q7 -7 7 -19q0 -16 -11 -36l-21 -46
q61 -14 95.5 -56t34.5 -103zM168 157q0 -74 40 -107q76 176 163 399h-5q-59 0 -105 -46q-48 -48 -70 -113q-23 -67 -23 -133zM263 27h10q58 0 105 47t69 112q23 67 23 134q0 74 -42 108q-75 -169 -165 -401z" />
    <glyph glyph-name="ugrave" unicode="&#xf9;" horiz-adv-x="596" 
d="M378 559q-29 0 -59 36l-28 34q-23 29 -68 81q41 41 79 40t61 -47l16 -29l46 -88q-23 -27 -47 -27zM697 270l13 35q20 0 28 -5q3 -4 3 -10q0 -8 -3 -17l-7 -21q-34 -99 -121 -184q-88 -85 -176 -85q-42 0 -64 19.5t-22 55.5q0 37 44 157l-5 2q-89 -230 -235 -230
q-49 0 -79.5 27.5t-30.5 77.5q0 49 24 125q13 46 28 94q10 33 35 120q9 35 27 48t57 13q42 0 42 -29q0 -10 -12 -52l-7 -18q0 -1 -13 -37q-12 -34 -15 -45q-1 -3 -3 -8.5t-5 -15t-6 -17.5q-2 -6 -14 -46q-23 -91 -21 -108q0 -46 39 -46q52 0 115 88q64 90 107 259l6 20
q8 32 25 43.5t59 11.5q45 0 37 -38l-2 -9q-7 -30 -47 -165q-47 -162 -47 -190q0 -29 30 -29q50 0 118 65t98 144z" />
    <glyph glyph-name="uacute" unicode="&#xfa;" horiz-adv-x="596" 
d="M342 559q-59 41 8 100l37 29q34 27 76 66q43 -36 43 -73q0 -39 -46 -61l-35 -18q-17 -9 -36.5 -18.5t-30.5 -15.5t-16 -9zM697 270l13 35q20 0 28 -5q3 -4 3 -10q0 -8 -3 -17l-7 -21q-34 -99 -121 -184q-88 -85 -176 -85q-42 0 -64 19.5t-22 55.5q0 37 44 157l-5 2
q-89 -230 -235 -230q-49 0 -79.5 27.5t-30.5 77.5q0 49 24 125q13 46 28 94q10 33 35 120q9 35 27 48t57 13q42 0 42 -29q0 -10 -12 -52l-7 -18q0 -1 -13 -37q-12 -34 -15 -45q-1 -3 -3 -8.5t-5 -15t-6 -17.5q-2 -6 -14 -46q-23 -91 -21 -108q0 -46 39 -46q52 0 115 88
q64 90 107 259l6 20q8 32 25 43.5t59 11.5q45 0 37 -38l-2 -9q-7 -30 -47 -165q-47 -162 -47 -190q0 -29 30 -29q50 0 118 65t98 144z" />
    <glyph glyph-name="ucircumflex" unicode="&#xfb;" horiz-adv-x="596" 
d="M422 602l-44 35l-103 -68q-13 -9 -25 -9q-9 0 -17.5 8.5t-8.5 16.5q0 11 23 34l102 95q27 24 52 24q27 0 45 -26l8 -12l67 -100q-13 -27 -43 -27q-18 0 -56 29zM697 270l13 35q20 0 28 -5q3 -4 3 -10q0 -8 -3 -17l-7 -21q-34 -99 -121 -184q-88 -85 -176 -85
q-42 0 -64 19.5t-22 55.5q0 37 44 157l-5 2q-89 -230 -235 -230q-49 0 -79.5 27.5t-30.5 77.5q0 49 24 125q13 46 28 94q10 33 35 120q9 35 27 48t57 13q42 0 42 -29q0 -10 -12 -52l-7 -18q0 -1 -13 -37q-12 -34 -15 -45q-1 -3 -3 -8.5t-5 -15t-6 -17.5q-2 -6 -14 -46
q-23 -91 -21 -108q0 -46 39 -46q52 0 115 88q64 90 107 259l6 20q8 32 25 43.5t59 11.5q45 0 37 -38l-2 -9q-7 -30 -47 -165q-47 -162 -47 -190q0 -29 30 -29q50 0 118 65t98 144z" />
    <glyph glyph-name="udieresis" unicode="&#xfc;" horiz-adv-x="596" 
d="M519 580q-43 -8 -54 -8q-51 0 -51 43q0 36 32 70q32 33 74 33q34 0 34 -27q0 -18 -16 -59q-18 -46 -19 -52zM326 568q-46 -13 -75.5 -4.5t-29.5 38.5q0 37 32 71q31 33 74 33q34 0 34 -28q0 -17 -16 -58q-18 -49 -19 -52zM697 270l13 35q20 0 28 -5q3 -4 3 -10
q0 -8 -3 -17l-7 -21q-34 -99 -121 -184q-88 -85 -176 -85q-42 0 -64 19.5t-22 55.5q0 37 44 157l-5 2q-89 -230 -235 -230q-49 0 -79.5 27.5t-30.5 77.5q0 49 24 125q13 46 28 94q10 33 35 120q9 35 27 48t57 13q42 0 42 -29q0 -10 -12 -52l-7 -18q0 -1 -13 -37
q-12 -34 -15 -45q-1 -3 -3 -8.5t-5 -15t-6 -17.5q-2 -6 -14 -46q-23 -91 -21 -108q0 -46 39 -46q52 0 115 88q64 90 107 259l6 20q8 32 25 43.5t59 11.5q45 0 37 -38l-2 -9q-7 -30 -47 -165q-47 -162 -47 -190q0 -29 30 -29q50 0 118 65t98 144z" />
    <glyph glyph-name="yacute" unicode="&#xfd;" horiz-adv-x="583" 
d="M358 559q-59 41 8 100l37 29q34 27 76 66q43 -36 43 -73q0 -39 -46 -61l-35 -18q-17 -9 -36.5 -18.5t-30.5 -15.5t-16 -9zM797 -82q11 -24 11 -51q0 -32 -23.5 -51t-62.5 -19q-55 0 -174 40q-135 45 -139 46q-51 -179 -134 -270t-185 -91q-66 0 -105 36t-39 100
q0 102 98 190q101 92 275 97q40 137 86 270l-5 2q-88 -231 -225 -231q-51 0 -82.5 27t-31.5 75q0 47 43 199q23 81 36 139q9 39 27 52t58 13q42 0 42 -27q0 -14 -44 -158t-44 -191q0 -46 39 -46q54 0 113.5 91t102.5 258l4 16q9 35 27 48t59 13q25 0 34 -9t4 -30l-3 -17
q-1 -7 -9 -33q-2 -7 -6 -21.5t-10.5 -39t-12.5 -47.5q-33 -121 -54 -200l-42 -158q8 -1 124 -15q114 -14 169 -14q33 0 79 7zM128 -410q46 0 88 65q40 64 87 232l2 9q-101 -5 -170 -75q-70 -70 -70 -153q0 -38 17 -58t46 -20z" />
    <glyph glyph-name="thorn" unicode="&#xfe;" horiz-adv-x="606" 
d="M748 299q4 -3 4 -9q0 -10 -4 -17l-7 -21q-23 -70 -102 -101q-69 -28 -157 -41q-40 -64 -94 -101t-111 -37q-37 0 -59.5 19t-22.5 48q0 59 62 84q49 19 140 30q28 78 28 164q0 93 -43 93q-53 0 -121 -113q-68 -115 -104 -282q-52 -236 -69 -329q-16 -85 -14 -134
q-21 -10 -57 -10q-31 0 -49.5 15t-18.5 43q0 30 36 176q2 8 7.5 29.5l11 43t10.5 43.5q6 25 17.5 73.5t16.5 73.5q9 36 86 404q70 335 72 345q7 33 25.5 45.5t61.5 12.5q40 0 40 -30q0 -22 -19 -93q-15 -57 -49 -177q-5 -17 -16 -54.5t-16 -54.5q-13 -47 -36 -123
q-19 -66 -36 -125l5 -2q56 158 120 232t144 74q57 0 87 -35.5t30 -103.5q0 -101 -37 -188q84 12 132.5 35.5t64.5 68.5l13 35q24 0 28 -6zM293 32q42 0 79 64q-56 -7 -80 -16.5t-24 -26.5q0 -21 25 -21z" />
    <glyph glyph-name="ydieresis" unicode="&#xff;" horiz-adv-x="583" 
d="M472 572q-51 0 -51 43q0 36 32 70q31 33 74 33q34 0 34 -27q0 -18 -16 -59q-18 -46 -19 -52q-43 -8 -54 -8zM333 568q-46 -13 -75.5 -4.5t-29.5 38.5q0 37 32 71q32 33 74 33q34 0 34 -28q0 -17 -16 -58q-18 -49 -19 -52zM797 -82q11 -24 11 -51q0 -32 -23.5 -51
t-62.5 -19q-55 0 -174 40q-135 45 -139 46q-51 -179 -134 -270t-185 -91q-66 0 -105 36t-39 100q0 102 98 190q101 92 275 97q40 137 86 270l-5 2q-88 -231 -225 -231q-51 0 -82.5 27t-31.5 75q0 47 43 199q23 81 36 139q9 39 27 52t58 13q42 0 42 -27q0 -14 -44 -158
t-44 -191q0 -46 39 -46q54 0 113.5 91t102.5 258l4 16q9 35 27 48t59 13q25 0 34 -9t4 -30l-3 -17q-1 -7 -9 -33q-2 -7 -6 -21.5t-10.5 -39t-12.5 -47.5q-33 -121 -54 -200l-42 -158q8 -1 124 -15q114 -14 169 -14q33 0 79 7zM128 -410q46 0 88 65q40 64 87 232l2 9
q-101 -5 -170 -75q-70 -70 -70 -153q0 -38 17 -58t46 -20z" />
    <glyph glyph-name="Amacron" unicode="&#x100;" horiz-adv-x="1060" 
d="M930 893q-35 0 -70 -5q-4 21 -4 32q0 58 68 61q17 2 58 3q48 2 68 4q24 1 52 8q8 -30 8 -46q0 -43 -41 -54q-20 -6 -47 -6q-6 0 -44 1.5t-48 1.5zM1202 300q3 -4 3 -10q0 -8 -3 -17l-7 -21q-35 -98 -121 -183q-89 -86 -192 -86q-116 0 -116 99q0 24 9 61q-4 1 -139 20
q-90 -133 -179 -192.5t-187 -59.5q-76 0 -129 36q-52 37 -52 100q0 88 92 138t247 50q57 0 187 -8q143 209 260 521l6 17q17 47 88 47q55 0 55 -32q0 -8 -8 -48l-102 -516q7 0 22 2t18 2q4 -13 4 -29q0 -51 -60 -55q-3 -20 -3 -31q0 -38 41 -38q58 0 128 64q69 63 97 139
l13 35q23 0 28 -5zM674 223q56 -5 117 -6l4 15l87 414l-4 1q-103 -257 -204 -424zM337 1q107 0 239 172q-109 15 -170 15q-72 0 -117 -30t-45 -80q0 -34 25 -55.5t68 -21.5z" />
    <glyph glyph-name="amacron" unicode="&#x101;" 
d="M351 594q-20 0 -44 -3q-2 12 -2 25q0 60 68 60q8 0 42.5 -0.5t41.5 -0.5q54 0 85 7q6 -22 6 -39q0 -59 -69 -59q-13 0 -60 5t-68 5zM716 300q4 -4 4 -10q0 -8 -3 -17l-8 -21q-35 -101 -122 -181q-88 -82 -171 -82q-41 0 -63 19t-22 52q0 44 41 155l-6 2
q-45 -119 -96 -173.5t-117 -54.5q-54 0 -86 35.5t-32 99.5q0 87 44 168t123 135q80 55 178 55q22 0 41 -3q17 35 75 35q24 0 33 -6t9 -21q0 -19 -51 -188q-52 -168 -52 -203q0 -29 25 -29q50 0 118 60q65 59 97 143l14 35q20 0 27 -5zM202 72q44 0 97 81q52 78 91 216l18 66
q-5 1 -23 1q-49 0 -94.5 -26.5t-75.5 -70.5q-62 -91 -62 -191q0 -76 49 -76z" />
    <glyph glyph-name="Abreve" unicode="&#x102;" horiz-adv-x="1060" 
d="M1202 300q3 -4 3 -10q0 -8 -3 -17l-7 -21q-35 -98 -121 -183q-89 -86 -192 -86q-116 0 -116 99q0 24 9 61q-4 1 -139 20q-90 -133 -179 -192.5t-187 -59.5q-76 0 -129 36q-52 37 -52 100q0 88 92 138t247 50q57 0 187 -8q143 209 260 521l6 17q17 47 88 47q55 0 55 -32
q0 -8 -8 -48l-102 -516q7 0 22 2t18 2q4 -13 4 -29q0 -51 -60 -55q-3 -20 -3 -31q0 -38 41 -38q58 0 128 64q69 63 97 139l13 35q23 0 28 -5zM674 223q56 -5 117 -6l4 15l87 414l-4 1q-103 -257 -204 -424zM337 1q107 0 239 172q-109 15 -170 15q-72 0 -117 -30t-45 -80
q0 -34 25 -55.5t68 -21.5zM956 860q-52 6 -82 37t-24 72q4 28 26 41.5t51 5.5q0 -31 16.5 -50.5t44.5 -23.5q76 -8 142 78q24 -5 32 -12.5t6 -25.5q-8 -46 -69 -89q-59 -44 -143 -33z" />
    <glyph glyph-name="abreve" unicode="&#x103;" 
d="M393 561q-49 5 -77 34t-22 68q4 26 24.5 38.5t47.5 5.5q0 -29 15.5 -47.5t41.5 -21.5q71 -8 132 72q22 -4 30 -11.5t6 -24.5q-8 -44 -64 -82q-57 -42 -134 -31zM716 300q4 -4 4 -10q0 -8 -3 -17l-8 -21q-35 -101 -122 -181q-88 -82 -171 -82q-41 0 -63 19t-22 52
q0 44 41 155l-6 2q-45 -119 -96 -173.5t-117 -54.5q-54 0 -86 35.5t-32 99.5q0 87 44 168t123 135q80 55 178 55q22 0 41 -3q17 35 75 35q24 0 33 -6t9 -21q0 -19 -51 -188q-52 -168 -52 -203q0 -29 25 -29q50 0 118 60q65 59 97 143l14 35q20 0 27 -5zM202 72q44 0 97 81
q52 78 91 216l18 66q-5 1 -23 1q-49 0 -94.5 -26.5t-75.5 -70.5q-62 -91 -62 -191q0 -76 49 -76z" />
    <glyph glyph-name="Aogonek" unicode="&#x104;" horiz-adv-x="1060" 
d="M1202 300q3 -4 3 -10q0 -8 -3 -17l-7 -21q-25 -74 -87 -148t-140 -104q-115 -100 -115 -147q0 -37 48 -37q26 0 50 10q8 -14 8 -24q0 -17 -29.5 -30.5t-67.5 -13.5q-47 0 -73.5 21t-26.5 57q0 74 129 147h-9q-116 0 -116 99q0 24 9 61q-4 1 -139 20q-90 -133 -179 -192.5
t-187 -59.5q-76 0 -129 36q-52 37 -52 100q0 88 92 138t247 50q57 0 187 -8q143 209 260 521l6 17q17 47 88 47q55 0 55 -32q0 -8 -8 -48l-102 -516q7 0 22 2t18 2q4 -13 4 -29q0 -51 -60 -55q-3 -20 -3 -31q0 -38 41 -38q58 0 128 64q69 63 97 139l13 35q23 0 28 -5z
M674 223q56 -5 117 -6l4 15l87 414l-4 1q-103 -257 -204 -424zM337 1q107 0 239 172q-109 15 -170 15q-72 0 -117 -30t-45 -80q0 -34 25 -55.5t68 -21.5z" />
    <glyph glyph-name="aogonek" unicode="&#x105;" 
d="M716 300q4 -4 4 -10q0 -8 -3 -17l-8 -21q-27 -77 -83 -142q-60 -69 -126 -100h8q-108 -97 -108 -137q0 -34 43 -34q21 0 46 9q7 -11 7 -22q0 -15 -26.5 -27.5t-61.5 -12.5q-42 0 -66 19.5t-24 51.5q0 66 115 133q-4 -1 -17 -1q-41 0 -63 19t-22 52q0 44 41 155l-6 2
q-45 -119 -96 -173.5t-117 -54.5q-54 0 -86 35.5t-32 99.5q0 87 44 168t123 135q80 55 178 55q22 0 41 -3q17 35 75 35q24 0 33 -6t9 -21q0 -19 -51 -188q-52 -168 -52 -203q0 -29 25 -29q50 0 118 60q65 59 97 143l14 35q20 0 27 -5zM202 72q44 0 97 81q52 78 91 216l18 66
q-5 1 -23 1q-49 0 -94.5 -26.5t-75.5 -70.5q-62 -91 -62 -191q0 -76 49 -76z" />
    <glyph glyph-name="Cacute" unicode="&#x106;" horiz-adv-x="718" 
d="M640 915q0 31 42 63l43 28q41 27 88 67q42 -41 42 -79q0 -45 -54 -68l-39 -17q-17 -7 -41 -17t-37 -15t-18 -9q-26 24 -26 47zM819 270l14 35q22 0 27 -5q4 -4 4 -10q0 -8 -3 -17l-8 -21q-29 -86 -95 -162.5t-166 -129.5q-103 -55 -215 -55q-142 0 -222 73t-80 209
q0 119 60 241q60 120 149 206q90 87 192 140q104 54 189 54q68 0 105 -32.5t37 -88.5q0 -57 -33 -116q-35 -60 -73 -99l-8 -8q-34 -37 -67 -37q-13 0 -26 10.5t-13 22.5q0 10 16 36l7 11q64 100 64 167q0 66 -59 66q-53 0 -120 -48q-70 -50 -128 -123q-61 -76 -101 -176
q-42 -101 -42 -195q0 -98 57 -157q56 -59 148 -59q115 0 233 80q116 79 157 188z" />
    <glyph glyph-name="cacute" unicode="&#x107;" horiz-adv-x="454" 
d="M328 559q-59 41 8 100l37 29q34 27 76 66q43 -36 43 -73q0 -39 -46 -61l-35 -18q-17 -9 -36.5 -18.5t-30.5 -15.5t-16 -9zM332 490q48 0 73 -22t25 -61q0 -49 -36 -95q-36 -47 -66 -47q-14 0 -24.5 7.5t-10.5 17.5q0 7 16 45q15 39 15 65q0 28 -24 28q-46 0 -94 -87
q-48 -89 -48 -170q0 -111 110 -111q85 0 171 62q85 62 116 148l14 35q22 0 27 -5q4 -4 4 -10q0 -8 -3 -17l-5 -15q-40 -111 -141 -193q-104 -83 -227 -83q-90 0 -138.5 41.5t-48.5 122.5q0 74 44 156q44 80 114 134q71 54 137 54z" />
    <glyph glyph-name="Cdotaccent" unicode="&#x10a;" horiz-adv-x="718" 
d="M763 880q-31 -9 -63 -9q-29 0 -45 13t-16 35q0 42 34 76q33 34 81 34q45 0 45 -35q0 -16 -17 -61q-18 -48 -19 -53zM819 270l14 35q22 0 27 -5q4 -4 4 -10q0 -8 -3 -17l-8 -21q-29 -86 -95 -162.5t-166 -129.5q-103 -55 -215 -55q-142 0 -222 73t-80 209q0 119 60 241
q60 120 149 206q90 87 192 140q104 54 189 54q68 0 105 -32.5t37 -88.5q0 -57 -33 -116q-35 -60 -73 -99l-8 -8q-34 -37 -67 -37q-13 0 -26 10.5t-13 22.5q0 10 16 36l7 11q64 100 64 167q0 66 -59 66q-53 0 -120 -48q-70 -50 -128 -123q-61 -76 -101 -176
q-42 -101 -42 -195q0 -98 57 -157q56 -59 148 -59q115 0 233 80q116 79 157 188z" />
    <glyph glyph-name="cdotaccent" unicode="&#x10b;" horiz-adv-x="454" 
d="M408 571q-34 -8 -59 -8q-58 0 -58 47q0 39 32 71t76 32t44 -34q0 -19 -16 -58q-18 -44 -19 -50zM332 490q48 0 73 -22t25 -61q0 -49 -36 -95q-36 -47 -66 -47q-14 0 -24.5 7.5t-10.5 17.5q0 7 16 45q15 39 15 65q0 28 -24 28q-46 0 -94 -87q-48 -89 -48 -170
q0 -111 110 -111q85 0 171 62q85 62 116 148l14 35q22 0 27 -5q4 -4 4 -10q0 -8 -3 -17l-5 -15q-40 -111 -141 -193q-104 -83 -227 -83q-90 0 -138.5 41.5t-48.5 122.5q0 74 44 156q44 80 114 134q71 54 137 54z" />
    <glyph glyph-name="Ccaron" unicode="&#x10c;" horiz-adv-x="718" 
d="M690 869q-23 0 -45 20q-22 21 -65 87l-4 6q-10 16 -10 27q0 12 15 25.5t29 13.5t46 -31l50 -46q96 69 124 93q30 -12 30 -36q0 -17 -20 -40l-21 -22q-48 -54 -77 -75.5t-52 -21.5zM819 270l14 35q22 0 27 -5q4 -4 4 -10q0 -8 -3 -17l-8 -21q-29 -86 -95 -162.5
t-166 -129.5q-103 -55 -215 -55q-142 0 -222 73t-80 209q0 119 60 241q60 120 149 206q90 87 192 140q104 54 189 54q68 0 105 -32.5t37 -88.5q0 -57 -33 -116q-35 -60 -73 -99l-8 -8q-34 -37 -67 -37q-13 0 -26 10.5t-13 22.5q0 10 16 36l7 11q64 100 64 167q0 66 -59 66
q-53 0 -120 -48q-70 -50 -128 -123q-61 -76 -101 -176q-42 -101 -42 -195q0 -98 57 -157q56 -59 148 -59q115 0 233 80q116 79 157 188z" />
    <glyph glyph-name="ccaron" unicode="&#x10d;" horiz-adv-x="454" 
d="M335 555q-22 0 -43 21q-21 18 -64 86l-4 7q-8 11 -8 22q0 12 14 24t27 12t41 -27l51 -51q78 56 113 87q27 -12 27 -33q0 -15 -18 -36l-19 -20q-48 -53 -72.5 -72.5t-44.5 -19.5zM332 490q48 0 73 -22t25 -61q0 -49 -36 -95q-36 -47 -66 -47q-14 0 -24.5 7.5t-10.5 17.5
q0 7 16 45q15 39 15 65q0 28 -24 28q-46 0 -94 -87q-48 -89 -48 -170q0 -111 110 -111q85 0 171 62q85 62 116 148l14 35q22 0 27 -5q4 -4 4 -10q0 -8 -3 -17l-5 -15q-40 -111 -141 -193q-104 -83 -227 -83q-90 0 -138.5 41.5t-48.5 122.5q0 74 44 156q44 80 114 134
q71 54 137 54z" />
    <glyph glyph-name="Dcaron" unicode="&#x10e;" horiz-adv-x="1227" 
d="M679 975l-4 6q-10 16 -10 27q0 12 15 25.5t29 13.5t46 -31l50 -46q96 69 124 93q30 -12 30 -36q0 -17 -20 -40l-21 -22q-48 -54 -77 -75.5t-52 -21.5t-45 20q-22 21 -65 87zM673 832q243 0 380 -102q136 -103 136 -284q0 -117 -48 -220t-129 -171q-80 -67 -179.5 -105
t-201.5 -38q-228 0 -228 164q0 58 30 185q27 119 137 513q-186 -19 -281 -129t-95 -256q0 -116 58 -242l6 -14q8 -19 8 -26q0 -11 -14.5 -21t-31.5 -10q-48 0 -111 87q-64 85 -64 203q0 189 159 325q78 66 199.5 103.5t269.5 37.5zM669 -32q66 0 133 34.5t120 93.5
q54 60 85.5 146.5t31.5 181.5q0 155 -88.5 247t-251.5 105q-111 -404 -138 -515q-28 -116 -28 -173t36 -88.5t100 -31.5z" />
    <glyph glyph-name="dcaron" unicode="&#x10f;" horiz-adv-x="577" 
d="M678 270l14 35q22 0 27 -5q4 -4 4 -10q0 -8 -3 -17l-8 -21q-35 -101 -120 -182q-87 -81 -172 -81q-88 0 -88 74q0 47 40 152l-6 2q-45 -119 -96 -173.5t-117 -54.5q-54 0 -86 35.5t-32 99.5q0 87 44 168t123 135q80 55 178 55q18 0 35 -3l72 309q6 29 23.5 40t56.5 11
q41 0 41 -30q0 -8 -3 -17l-165 -660q-5 -18 -5 -31q0 -34 29 -34q52 0 118 60q64 58 96 143zM690 534q-30 -4 -48.5 5t-18.5 30q0 19 19 92q3 13 8 31.5t6 25.5q8 31 25.5 44.5t49.5 13.5q39 0 39 -33q0 -19 -36 -101q-35 -76 -44 -108zM202 72q48 0 105 94q57 95 93 251
l4 18l-19 1q-49 0 -94.5 -26.5t-75.5 -70.5q-62 -91 -62 -191q0 -76 49 -76z" />
    <glyph glyph-name="Dcroat" unicode="&#x110;" horiz-adv-x="1227" 
d="M673 832q243 0 380 -102q136 -103 136 -284q0 -117 -48 -220t-129 -171q-80 -67 -179.5 -105t-201.5 -38q-228 0 -228 164q0 77 52 276q-45 3 -71 3q-34 0 -56 -2q-4 12 -4 28q0 26 16 38t52 12q3 0 13 -0.5t30 -1t40 -0.5l95 345q-186 -19 -281 -129t-95 -256
q0 -116 58 -242l6 -14q8 -19 8 -26q0 -11 -14.5 -21t-31.5 -10q-48 0 -111 87q-64 85 -64 203q0 189 159 325q78 66 199.5 103.5t269.5 37.5zM669 -32q66 0 133 34.5t120 93.5q54 60 85.5 146.5t31.5 181.5q0 155 -88.5 247t-251.5 105l-96 -351l59 -1q35 0 57 2
q3 -15 3 -29q0 -55 -68 -55q-24 0 -72 3q-49 -186 -49 -257q0 -57 36 -88.5t100 -31.5z" />
    <glyph glyph-name="dslash" unicode="&#x111;" horiz-adv-x="577" 
d="M719 300q4 -4 4 -10q0 -8 -3 -17l-8 -21q-35 -101 -120 -182q-87 -81 -172 -81q-88 0 -88 74q0 47 40 152l-6 2q-45 -119 -96 -173.5t-117 -54.5q-54 0 -86 35.5t-32 99.5q0 87 44 168t123 135q80 55 178 55q18 0 35 -3l29 126q-57 4 -78 4q-34 0 -56 -2q-4 12 -4 28
q0 26 16 38t52 12q5 0 16 -0.5t31.5 -1t40.5 -0.5l25 105q6 29 23.5 40t56.5 11q41 0 41 -30q0 -8 -3 -17l-28 -113l28 -1q35 0 57 2q3 -15 3 -29q0 -55 -68 -55q-2 0 -7 0.5t-15 1t-19 0.5l-116 -466q-5 -18 -5 -31q0 -34 29 -34q52 0 118 60q64 58 96 143l14 35
q22 0 27 -5zM202 72q48 0 105 94q57 95 93 251l4 18l-19 1q-49 0 -94.5 -26.5t-75.5 -70.5q-62 -91 -62 -191q0 -76 49 -76z" />
    <glyph glyph-name="Emacron" unicode="&#x112;" horiz-adv-x="653" 
d="M627 998q8 -24 8 -44q0 -42 -39 -52q-22 -5 -44 -5q-6 0 -42 1.5t-46 1.5q-34 0 -67 -5q-4 20 -4 30q0 54 65 59q10 1 44 2t44 1q50 2 81 11zM754 270l14 35q22 0 27 -5q4 -4 4 -10q0 -10 -4 -17l-7 -21q-48 -141 -174 -240q-128 -99 -294 -99q-125 0 -204 59
q-78 60 -78 159q0 104 86 181q85 74 212 106q-73 12 -118.5 54.5t-45.5 102.5q0 111 111 189q112 77 256 77q84 0 127 -29.5t43 -83.5q0 -64 -54 -135t-93 -71q-15 0 -24.5 7.5t-9.5 18.5q0 7 29 65q28 55 28 100q0 37 -22.5 58t-63.5 21q-79 0 -139 -63t-60 -141
q0 -53 28 -92t74 -55q99 19 131 19q40 0 40 -35q0 -21 -16 -33.5t-45 -12.5q-41 0 -101 15q-101 -24 -161 -90q-61 -65 -61 -141q0 -74 51 -119t140 -45q116 0 222 75q107 76 152 196z" />
    <glyph glyph-name="emacron" unicode="&#x113;" horiz-adv-x="490" 
d="M276 594q-20 0 -44 -3q-2 12 -2 25q0 60 68 60q8 0 42.5 -0.5t41.5 -0.5q54 0 85 7q6 -22 6 -39q0 -59 -69 -59q-13 0 -60 5t-68 5zM632 300q4 -4 4 -10q0 -9 -4 -17l-7 -21q-34 -102 -147 -185t-241 -83q-91 0 -143 42.5t-52 124.5q-3 75 43 155.5t119.5 133t144.5 50.5
q51 0 80.5 -24t29.5 -66q0 -76 -78 -133q-79 -58 -217 -67l-1 -16q0 -122 122 -122q88 0 182 62q93 63 124 146l14 35q22 0 27 -5zM308 418q-41 0 -82 -53t-56 -122q81 8 127 52q45 43 45 88q0 35 -34 35z" />
    <glyph glyph-name="Edotaccent" unicode="&#x116;" horiz-adv-x="653" 
d="M593 910q-31 -9 -63 -9q-29 0 -45 13t-16 35q0 42 34 76q33 34 81 34q45 0 45 -35q0 -16 -17 -61q-18 -48 -19 -53zM754 270l14 35q22 0 27 -5q4 -4 4 -10q0 -10 -4 -17l-7 -21q-48 -141 -174 -240q-128 -99 -294 -99q-125 0 -204 59q-78 60 -78 159q0 104 86 181
q85 74 212 106q-73 12 -118.5 54.5t-45.5 102.5q0 111 111 189q112 77 256 77q84 0 127 -29.5t43 -83.5q0 -64 -54 -135t-93 -71q-15 0 -24.5 7.5t-9.5 18.5q0 7 29 65q28 55 28 100q0 37 -22.5 58t-63.5 21q-79 0 -139 -63t-60 -141q0 -53 28 -92t74 -55q99 19 131 19
q40 0 40 -35q0 -21 -16 -33.5t-45 -12.5q-41 0 -101 15q-101 -24 -161 -90q-61 -65 -61 -141q0 -74 51 -119t140 -45q116 0 222 75q107 76 152 196z" />
    <glyph glyph-name="edotaccent" unicode="&#x117;" horiz-adv-x="490" 
d="M353 563q-58 0 -58 47q0 39 32 71t76 32t44 -34q0 -19 -16 -58q-18 -44 -19 -50q-34 -8 -59 -8zM632 300q4 -4 4 -10q0 -9 -4 -17l-7 -21q-34 -102 -147 -185t-241 -83q-91 0 -143 42.5t-52 124.5q-3 75 43 155.5t119.5 133t144.5 50.5q51 0 80.5 -24t29.5 -66
q0 -76 -78 -133q-79 -58 -217 -67l-1 -16q0 -122 122 -122q88 0 182 62q93 63 124 146l14 35q22 0 27 -5zM308 418q-41 0 -82 -53t-56 -122q81 8 127 52q45 43 45 88q0 35 -34 35z" />
    <glyph glyph-name="Eogonek" unicode="&#x118;" horiz-adv-x="653" 
d="M795 300q4 -4 4 -10q0 -10 -4 -17l-7 -21q-40 -118 -138 -210t-230 -119q-66 -60 -94 -95.5t-28 -61.5q0 -40 51 -40q23 0 53 11q9 -12 9 -25q0 -18 -31 -33t-72 -15q-50 0 -78 22.5t-28 61.5q0 83 152 166q-7 -1 -34 -1q-125 0 -204 59q-78 60 -78 159q0 104 86 181
q85 74 212 106q-73 12 -118.5 54.5t-45.5 102.5q0 111 111 189q112 77 256 77q84 0 127 -29.5t43 -83.5q0 -64 -54 -135t-93 -71q-15 0 -24.5 7.5t-9.5 18.5q0 7 29 65q28 55 28 100q0 37 -22.5 58t-63.5 21q-79 0 -139 -63t-60 -141q0 -53 28 -92t74 -55q99 19 131 19
q40 0 40 -35q0 -21 -16 -33.5t-45 -12.5q-41 0 -101 15q-101 -24 -161 -90q-61 -65 -61 -141q0 -74 51 -119t140 -45q116 0 222 75q107 76 152 196l14 35q22 0 27 -5z" />
    <glyph glyph-name="eogonek" unicode="&#x119;" horiz-adv-x="490" 
d="M632 300q4 -4 4 -10q0 -9 -4 -17l-7 -21q-30 -86 -116 -161q-88 -76 -194 -98q-105 -94 -105 -135q0 -34 43 -34q21 0 46 9q7 -11 7 -22q0 -15 -26.5 -27.5t-61.5 -12.5q-42 0 -66 19.5t-24 51.5q0 70 133 143l-24 -1q-91 0 -143 42.5t-52 124.5q-3 75 43 155.5
t119.5 133t144.5 50.5q51 0 80.5 -24t29.5 -66q0 -76 -78 -133q-79 -58 -217 -67l-1 -16q0 -122 122 -122q88 0 182 62q93 63 124 146l14 35q22 0 27 -5zM308 418q-41 0 -82 -53t-56 -122q81 8 127 52q45 43 45 88q0 35 -34 35z" />
    <glyph glyph-name="Ecaron" unicode="&#x11a;" horiz-adv-x="653" 
d="M530 878q-23 0 -45 20q-22 21 -65 87l-4 6q-10 16 -10 27q0 12 15 25.5t29 13.5t46 -31l50 -46q96 69 124 93q30 -12 30 -36q0 -17 -20 -40l-21 -22q-48 -54 -77 -75.5t-52 -21.5zM754 270l14 35q22 0 27 -5q4 -4 4 -10q0 -10 -4 -17l-7 -21q-48 -141 -174 -240
q-128 -99 -294 -99q-125 0 -204 59q-78 60 -78 159q0 104 86 181q85 74 212 106q-73 12 -118.5 54.5t-45.5 102.5q0 111 111 189q112 77 256 77q84 0 127 -29.5t43 -83.5q0 -64 -54 -135t-93 -71q-15 0 -24.5 7.5t-9.5 18.5q0 7 29 65q28 55 28 100q0 37 -22.5 58t-63.5 21
q-79 0 -139 -63t-60 -141q0 -53 28 -92t74 -55q99 19 131 19q40 0 40 -35q0 -21 -16 -33.5t-45 -12.5q-41 0 -101 15q-101 -24 -161 -90q-61 -65 -61 -141q0 -74 51 -119t140 -45q116 0 222 75q107 76 152 196z" />
    <glyph glyph-name="ecaron" unicode="&#x11b;" horiz-adv-x="490" 
d="M228 648l-4 7q-8 11 -8 22q0 12 14 24t27 12t41 -27l51 -51q78 56 113 87q27 -12 27 -33q0 -15 -18 -36l-19 -20q-48 -53 -72.5 -72.5t-44.5 -19.5q-22 0 -43 21q-21 18 -64 86zM632 300q4 -4 4 -10q0 -9 -4 -17l-7 -21q-34 -102 -147 -185t-241 -83q-91 0 -143 42.5
t-52 124.5q-3 75 43 155.5t119.5 133t144.5 50.5q51 0 80.5 -24t29.5 -66q0 -76 -78 -133q-79 -58 -217 -67l-1 -16q0 -122 122 -122q88 0 182 62q93 63 124 146l14 35q22 0 27 -5zM308 418q-41 0 -82 -53t-56 -122q81 8 127 52q45 43 45 88q0 35 -34 35z" />
    <glyph glyph-name="Gbreve" unicode="&#x11e;" horiz-adv-x="842" 
d="M675 891q-48 0 -80.5 29.5t-32.5 73.5q0 32 16.5 48t46.5 14q13 -72 68 -72q71 0 118 99q22 -2 31.5 -10.5t9.5 -26.5q0 -48 -50 -101q-50 -54 -127 -54zM1073 -83q14 -30 14 -60q0 -39 -28 -61.5t-74 -22.5q-71 0 -235 58q-77 28 -118 39q-85 -214 -175 -290
q-82 -68 -173 -68q-74 0 -119 41.5t-45 109.5q0 119 105 201q106 83 299 83h22q20 64 59 216l-8 1q-47 -90 -125 -142q-80 -54 -162 -54q-109 0 -169 62.5t-60 177.5q0 113 59 233q117 232 345 349q107 55 202 55q144 0 144 -111q0 -61 -44 -123q-45 -62 -82 -62
q-18 0 -30.5 9.5t-12.5 23.5q0 8 15 55q14 48 14 78q0 64 -54 64q-52 0 -123 -50q-70 -50 -132 -128q-62 -75 -106 -180t-44 -199q0 -77 34.5 -119.5t95.5 -42.5q76 0 158 82q83 81 120 205q29 13 61 13q62 0 62 -47q0 -2 -2 -18l-9 -36q-50 -197 -94 -320q17 -2 89 -12
q58 -7 125 -13q44 -4 107 -4q35 0 94 7zM328 -420q48 0 97 70q47 69 103 240q-32 2 -37 2q-59 0 -108 -21t-77 -56q-54 -66 -54 -142q0 -45 20 -69t56 -24z" />
    <glyph glyph-name="gbreve" unicode="&#x11f;" horiz-adv-x="551" 
d="M386 565q-44 0 -73.5 26.5t-29.5 67.5q0 27 16.5 42.5t41.5 12.5q4 -30 20.5 -47.5t40.5 -17.5q65 0 108 91q21 -2 29 -9t8 -25q0 -44 -45 -92q-45 -49 -116 -49zM825 -81q10 -24 10 -51q0 -33 -23.5 -51.5t-62.5 -18.5q-53 0 -197 39q-130 37 -178 47
q-53 -182 -135 -272t-183 -90q-67 0 -106.5 35.5t-39.5 100.5q0 96 98 186q47 43 120.5 71t155.5 30q15 52 48 152q33 96 39 118l-5 2q-45 -119 -96 -173.5t-117 -54.5q-55 0 -87 35.5t-32 100.5q0 86 44 167t123 135q80 55 178 55q27 0 44 -4q17 23 70 23q23 0 32 -6t9 -21
q0 -14 -31 -126q-8 -26 -28 -98l-36 -129l-49 -180q6 0 25 -2t58 -6t76 -8q142 -14 196 -14q34 0 80 8zM201 72q45 0 97 81q52 78 91 216l19 66q-5 1 -23 1q-68 0 -123 -46q-54 -45 -82 -112q-28 -65 -28 -130q0 -76 49 -76zM93 -410q46 0 87 65q40 65 87 231l3 10
q-67 -3 -124 -42q-58 -39 -87 -90q-29 -52 -29 -96q0 -37 17 -57.5t46 -20.5z" />
    <glyph glyph-name="Gdotaccent" unicode="&#x120;" horiz-adv-x="842" 
d="M698 903q-29 0 -45 13t-16 35q0 42 34 76q33 34 81 34q45 0 45 -35q0 -16 -17 -61q-18 -48 -19 -53q-31 -9 -63 -9zM1073 -83q14 -30 14 -60q0 -39 -28 -61.5t-74 -22.5q-71 0 -235 58q-77 28 -118 39q-85 -214 -175 -290q-82 -68 -173 -68q-74 0 -119 41.5t-45 109.5
q0 119 105 201q106 83 299 83h22q20 64 59 216l-8 1q-47 -90 -125 -142q-80 -54 -162 -54q-109 0 -169 62.5t-60 177.5q0 113 59 233q117 232 345 349q107 55 202 55q144 0 144 -111q0 -61 -44 -123q-45 -62 -82 -62q-18 0 -30.5 9.5t-12.5 23.5q0 8 15 55q14 48 14 78
q0 64 -54 64q-52 0 -123 -50q-70 -50 -132 -128q-62 -75 -106 -180t-44 -199q0 -77 34.5 -119.5t95.5 -42.5q76 0 158 82q83 81 120 205q29 13 61 13q62 0 62 -47q0 -2 -2 -18l-9 -36q-50 -197 -94 -320q17 -2 89 -12q58 -7 125 -13q44 -4 107 -4q35 0 94 7zM328 -420
q48 0 97 70q47 69 103 240q-32 2 -37 2q-59 0 -108 -21t-77 -56q-54 -66 -54 -142q0 -45 20 -69t56 -24z" />
    <glyph glyph-name="gdotaccent" unicode="&#x121;" horiz-adv-x="551" 
d="M398 563q-58 0 -58 47q0 39 32 71t76 32t44 -34q0 -19 -16 -58q-18 -44 -19 -50q-34 -8 -59 -8zM825 -81q10 -24 10 -51q0 -33 -23.5 -51.5t-62.5 -18.5q-53 0 -197 39q-130 37 -178 47q-53 -182 -135 -272t-183 -90q-67 0 -106.5 35.5t-39.5 100.5q0 96 98 186
q47 43 120.5 71t155.5 30q15 52 48 152q33 96 39 118l-5 2q-45 -119 -96 -173.5t-117 -54.5q-55 0 -87 35.5t-32 100.5q0 86 44 167t123 135q80 55 178 55q27 0 44 -4q17 23 70 23q23 0 32 -6t9 -21q0 -14 -31 -126q-8 -26 -28 -98l-36 -129l-49 -180q6 0 25 -2t58 -6t76 -8
q142 -14 196 -14q34 0 80 8zM201 72q45 0 97 81q52 78 91 216l19 66q-5 1 -23 1q-68 0 -123 -46q-54 -45 -82 -112q-28 -65 -28 -130q0 -76 49 -76zM93 -410q46 0 87 65q40 65 87 231l3 10q-67 -3 -124 -42q-58 -39 -87 -90q-29 -52 -29 -96q0 -37 17 -57.5t46 -20.5z" />
    <glyph glyph-name="Gcommaaccent" unicode="&#x122;" horiz-adv-x="842" 
d="M702 914q-44 0 -44 29q0 18 20.5 45.5t64.5 76.5q35 40 50 65q27 3 44 -7.5t17 -30.5q0 -26 -30 -84l-15 -26q-21 -39 -44 -53.5t-63 -14.5zM1073 -83q14 -30 14 -60q0 -39 -28 -61.5t-74 -22.5q-71 0 -235 58q-77 28 -118 39q-85 -214 -175 -290q-82 -68 -173 -68
q-74 0 -119 41.5t-45 109.5q0 119 105 201q106 83 299 83h22q20 64 59 216l-8 1q-47 -90 -125 -142q-80 -54 -162 -54q-109 0 -169 62.5t-60 177.5q0 113 59 233q117 232 345 349q107 55 202 55q144 0 144 -111q0 -61 -44 -123q-45 -62 -82 -62q-18 0 -30.5 9.5t-12.5 23.5
q0 8 15 55q14 48 14 78q0 64 -54 64q-52 0 -123 -50q-70 -50 -132 -128q-62 -75 -106 -180t-44 -199q0 -77 34.5 -119.5t95.5 -42.5q76 0 158 82q83 81 120 205q29 13 61 13q62 0 62 -47q0 -2 -2 -18l-9 -36q-50 -197 -94 -320q17 -2 89 -12q58 -7 125 -13q44 -4 107 -4
q35 0 94 7zM328 -420q48 0 97 70q47 69 103 240q-32 2 -37 2q-59 0 -108 -21t-77 -56q-54 -66 -54 -142q0 -45 20 -69t56 -24z" />
    <glyph glyph-name="gcommaaccent" unicode="&#x123;" horiz-adv-x="551" 
d="M386 548q-39 0 -39 26t75 108q30 32 44 58q24 2 39.5 -7t15.5 -27q0 -20 -27 -74l-13 -23q-18 -35 -38 -48t-57 -13zM825 -81q10 -24 10 -51q0 -33 -23.5 -51.5t-62.5 -18.5q-53 0 -197 39q-130 37 -178 47q-53 -182 -135 -272t-183 -90q-67 0 -106.5 35.5t-39.5 100.5
q0 96 98 186q47 43 120.5 71t155.5 30q15 52 48 152q33 96 39 118l-5 2q-45 -119 -96 -173.5t-117 -54.5q-55 0 -87 35.5t-32 100.5q0 86 44 167t123 135q80 55 178 55q27 0 44 -4q17 23 70 23q23 0 32 -6t9 -21q0 -14 -31 -126q-8 -26 -28 -98l-36 -129l-49 -180q6 0 25 -2
t58 -6t76 -8q142 -14 196 -14q34 0 80 8zM201 72q45 0 97 81q52 78 91 216l19 66q-5 1 -23 1q-68 0 -123 -46q-54 -45 -82 -112q-28 -65 -28 -130q0 -76 49 -76zM93 -410q46 0 87 65q40 65 87 231l3 10q-67 -3 -124 -42q-58 -39 -87 -90q-29 -52 -29 -96q0 -37 17 -57.5
t46 -20.5z" />
    <glyph glyph-name="Hbar" unicode="&#x126;" horiz-adv-x="1014" 
d="M1063 617q20 -18 20 -42q0 -32 -35 -41q-33 -9 -91 -20l-40 -111q62 12 96 25q17 -20 17 -41q0 -30 -32 -39q-21 -7 -107 -16l-41 -120q-57 -168 -57 -219t51 -74q-1 -34 -40 -34q-49 0 -80.5 30t-31.5 83q0 73 73 319l-12 -2q-72 -9 -146 -25q-84 -233 -175.5 -341.5
t-207.5 -108.5q-77 0 -122.5 40t-45.5 102q0 100 110.5 187t330.5 149l7 24l14 51l15 54q-50 -7 -97 -18q-4 8 -4 22q0 35 42 42l73 13q22 90 13 122.5t-53 32.5q-37 0 -126 -31q-11 -4 -15 -4q-15 0 -22 19q-3 7 -3 11q0 14 18 20q94 39 205 39q128 0 128 -100
q0 -30 -11 -85q74 13 160 31l47 146l9 30q18 56 35.5 75t47.5 19q33 0 54 -12.5t21 -30.5q0 -9 -8 -35l-9 -24l-51 -135q16 4 76 23zM779 378l5 1l35 114q-4 0 -13 -1.5t-25 -4t-30 -4.5q-18 -3 -46.5 -7.5t-39.5 -5.5l-13 -46l-6 -19l-18 -55q54 12 151 28zM268 -87
q58 0 107 80t104 263q-143 -48 -215 -116.5t-72 -141.5q0 -37 21 -61t55 -24z" />
    <glyph glyph-name="hbar" unicode="&#x127;" horiz-adv-x="607" 
d="M749 300q4 -5 4 -10q0 -6 -4 -17l-7 -21q-36 -103 -123 -184q-88 -82 -179 -82q-42 0 -65.5 19.5t-23.5 57.5q0 41 35 154q35 111 35 149q0 44 -38 44q-57 0 -121 -100q-65 -101 -99 -262l-3 -14l-8 -37q-32 -8 -50 -8q-62 0 -62 50q0 19 16 78q20 77 22 84q24 99 37 151
q1 6 52 227q-75 -10 -119 -19q-4 7 -4 20q0 34 42 41l94 17q1 6 20 92l12 55q6 31 24.5 43.5t59.5 12.5q43 0 43 -35q0 -32 -34 -144q100 18 136 32q12 -24 12 -40q0 -30 -30 -40q-22 -8 -138 -22q-3 -7 -124 -403l5 -2q56 156 122 231t147 75q49 0 78 -28t29 -76
q0 -47 -36 -155q-37 -108 -37 -141q0 -29 28 -29q45 0 113 62q66 60 98 144l13 35q23 0 28 -5z" />
    <glyph glyph-name="Itilde" unicode="&#x128;" horiz-adv-x="731" 
d="M485 913q-25 1 -34 12t-3 41q9 40 39.5 62t71.5 18q25 -3 66 -20q36 -17 54 -19q35 -4 56 40q25 -1 34 -12t3 -39q-8 -39 -40 -62.5t-74 -19.5q-22 3 -61 20q-37 17 -58 19q-36 5 -54 -40zM873 300q4 -5 4 -10q0 -6 -4 -17l-7 -21q-49 -142 -178 -235t-356 -157
q-72 -48 -124 -48q-41 0 -41 37q0 69 105 85l46 8q29 36 55 114q22 70 61 249l33 157q45 219 130 310l-74 -17q-184 -43 -258 -106q-72 -61 -72 -155q0 -98 64 -216l7 -13q15 -23 15 -32q0 -11 -12 -20.5t-25 -9.5q-50 0 -118 87q-68 88 -68 181q0 242 431 325l152 29
q82 79 136 79q22 0 37.5 -15t15.5 -36t-27 -34.5t-101 -27.5q-37 -49 -58 -144l-52 -221q-86 -361 -188 -467q180 44 283.5 119.5t146.5 191.5l13 35q23 0 28 -5z" />
    <glyph glyph-name="itilde" unicode="&#x129;" horiz-adv-x="303" 
d="M41 63q0 55 51 228q31 104 35 122l5 20q9 33 27.5 46t60.5 13q40 0 40 -25q0 -19 -50 -174q-51 -153 -51 -200q0 -29 30 -29q48 0 116 62q67 62 99 144l13 35q22 0 27 -5q4 -4 4 -10q0 -8 -3 -17l-7 -21q-36 -102 -125 -184q-88 -82 -183 -82q-89 0 -89 77zM112 571
q-24 1 -32 11.5t-3 37.5q9 37 37 58t67 17q21 -2 61 -19q36 -16 51 -18q32 -4 52 38q23 -1 31.5 -11.5t2.5 -36.5q-8 -37 -38 -58.5t-68 -17.5q-16 1 -57 18q-36 16 -54 18q-34 5 -50 -37z" />
    <glyph glyph-name="Imacron" unicode="&#x12a;" horiz-adv-x="731" 
d="M407 882q-34 0 -67 -5q-4 20 -4 30q0 54 65 59q10 1 44 2t44 1q50 2 81 11q8 -24 8 -44q0 -42 -39 -52q-22 -5 -44 -5q-6 0 -42 1.5t-46 1.5zM873 300q4 -5 4 -10q0 -6 -4 -17l-7 -21q-49 -142 -178 -235t-356 -157q-72 -48 -124 -48q-41 0 -41 37q0 69 105 85l46 8
q29 36 55 114q22 70 61 249l33 157q45 219 130 310l-74 -17q-184 -43 -258 -106q-72 -61 -72 -155q0 -98 64 -216l7 -13q15 -23 15 -32q0 -11 -12 -20.5t-25 -9.5q-50 0 -118 87q-68 88 -68 181q0 242 431 325l152 29q82 79 136 79q22 0 37.5 -15t15.5 -36t-27 -34.5
t-101 -27.5q-37 -49 -58 -144l-52 -221q-86 -361 -188 -467q180 44 283.5 119.5t146.5 191.5l13 35q23 0 28 -5z" />
    <glyph glyph-name="imacron" unicode="&#x12b;" horiz-adv-x="303" 
d="M357 682q6 -22 6 -39q0 -59 -69 -59q-13 0 -60 5t-68 5q-20 0 -44 -3q-2 12 -2 25q0 60 68 60q10 0 42.5 -0.5t41.5 -0.5q54 0 85 7zM41 63q0 55 51 228q31 104 35 122l5 20q9 33 27.5 46t60.5 13q40 0 40 -25q0 -19 -50 -174q-51 -153 -51 -200q0 -29 30 -29
q48 0 116 62q67 62 99 144l13 35q22 0 27 -5q4 -4 4 -10q0 -8 -3 -17l-7 -21q-36 -102 -125 -184q-88 -82 -183 -82q-89 0 -89 77z" />
    <glyph glyph-name="Iogonek" unicode="&#x12e;" horiz-adv-x="731" 
d="M873 300q4 -5 4 -10q0 -6 -4 -17l-7 -21q-49 -142 -178 -235t-356 -157q-23 -16 -43 -25h1q-64 -58 -91 -92t-27 -59q0 -38 47 -38q22 0 50 11q8 -14 8 -24q0 -17 -29 -30.5t-67 -13.5q-47 0 -73 21t-26 57q0 73 124 145q-39 2 -39 37q0 69 105 85l46 8q29 36 55 114
q22 70 61 249l33 157q45 219 130 310l-74 -17q-184 -43 -258 -106q-72 -61 -72 -155q0 -98 64 -216l7 -13q15 -23 15 -32q0 -11 -12 -20.5t-25 -9.5q-50 0 -118 87q-68 88 -68 181q0 242 431 325l152 29q82 79 136 79q22 0 37.5 -15t15.5 -36t-27 -34.5t-101 -27.5
q-37 -49 -58 -144l-52 -221q-86 -361 -188 -467q180 44 283.5 119.5t146.5 191.5l13 35q23 0 28 -5z" />
    <glyph glyph-name="iogonek" unicode="&#x12f;" horiz-adv-x="303" 
d="M233 562q-28 0 -43.5 13t-15.5 35q0 38 32 72q32 32 78 32q44 0 44 -34q0 -19 -16 -58q-18 -46 -19 -51q-36 -9 -60 -9zM444 300q4 -4 4 -10q0 -8 -3 -17l-7 -21q-27 -78 -88 -148t-135 -100q-107 -96 -107 -136q0 -34 43 -34q21 0 46 9q7 -11 7 -22q0 -15 -26.5 -27.5
t-61.5 -12.5q-42 0 -66 19.5t-24 51.5q0 67 118 134h-14q-89 0 -89 77q0 55 51 228q31 104 35 122l5 20q9 33 27.5 46t60.5 13q40 0 40 -25q0 -19 -50 -174q-51 -153 -51 -200q0 -29 30 -29q48 0 116 62q67 62 99 144l13 35q22 0 27 -5z" />
    <glyph glyph-name="Idot" unicode="&#x130;" horiz-adv-x="731" 
d="M494 870q-29 0 -45 13t-16 35q0 42 34 76q33 34 81 34q45 0 45 -35q0 -16 -17 -61q-18 -48 -19 -53q-31 -9 -63 -9zM873 300q4 -5 4 -10q0 -6 -4 -17l-7 -21q-49 -142 -178 -235t-356 -157q-72 -48 -124 -48q-41 0 -41 37q0 69 105 85l46 8q29 36 55 114q22 70 61 249
l33 157q45 219 130 310l-74 -17q-184 -43 -258 -106q-72 -61 -72 -155q0 -98 64 -216l7 -13q15 -23 15 -32q0 -11 -12 -20.5t-25 -9.5q-50 0 -118 87q-68 88 -68 181q0 242 431 325l152 29q82 79 136 79q22 0 37.5 -15t15.5 -36t-27 -34.5t-101 -27.5q-37 -49 -58 -144
l-52 -221q-86 -361 -188 -467q180 44 283.5 119.5t146.5 191.5l13 35q23 0 28 -5z" />
    <glyph glyph-name="dotlessi" unicode="&#x131;" horiz-adv-x="303" 
d="M41 63q0 55 51 228q31 104 35 122l5 20q9 33 27.5 46t60.5 13q40 0 40 -25q0 -19 -50 -174q-51 -153 -51 -200q0 -29 30 -29q48 0 116 62q67 62 99 144l13 35q22 0 27 -5q4 -4 4 -10q0 -8 -3 -17l-7 -21q-36 -102 -125 -184q-88 -82 -183 -82q-89 0 -89 77z" />
    <glyph glyph-name="Kcommaaccent" unicode="&#x136;" horiz-adv-x="1099" 
d="M1241 300q4 -4 4 -10q0 -10 -4 -17l-7 -21q-48 -141 -127 -255q-41 -58 -89 -92t-95 -34q-52 0 -85 35q-35 36 -57 142q-23 104 -31 294q-42 -21 -54 -26q-97 -286 -210 -424t-260 -138q-86 0 -137.5 43.5t-51.5 110.5q0 108 129 208q131 102 413 208l11 38l22 78
q38 138 38 199q0 98 -110 98q-106 0 -180 -62q-75 -61 -75 -157q-1 -43 16 -92.5t34 -81.5t16 -37q0 -10 -11.5 -19.5t-25.5 -9.5q-41 0 -99 58q-29 28 -48 72.5t-19 91.5q0 86 63 154q64 69 162 103t212 34q104 0 151 -34.5t47 -100.5t-39 -191l-19 -61l-7 -23
q114 58 186 182q72 123 87 280q27 8 53 8q31 0 50.5 -18t19.5 -48q0 -99 -86 -212q-84 -111 -218 -196q37 -241 78 -315q20 -37 37.5 -50.5t43.5 -13.5q58 0 121 73t110 199l13 35q23 0 28 -5zM283 -160q145 0 277 422q-185 -80 -279.5 -166.5t-94.5 -161.5q0 -42 27 -68
t70 -26zM668 -180q44 0 44 -29q0 -13 -13 -33.5t-27 -37.5t-44 -51q-35 -38 -51 -65q-27 -3 -44 7.5t-17 30.5q0 26 30 84l15 26q21 39 44 53.5t63 14.5z" />
    <glyph glyph-name="kcommaaccent" unicode="&#x137;" horiz-adv-x="547" 
d="M341 210q14 -92 37.5 -132.5t60.5 -40.5q48 0 110 65q60 64 99 168l13 35q23 0 28 -5q4 -4 4 -10q0 -9 -4 -17l-7 -21q-44 -126 -123 -223q-79 -99 -165 -99q-68 0 -97 67.5t-21 208.5q-27 0 -27 23q0 19 16 39t34 20q29 0 33 -39q32 21 50 52t18 62q0 47 -38 47
q-50 0 -105 -100q-58 -102 -92 -258l-13 -63q-27 -6 -46 -6q-67 0 -67 56q0 22 16 79q14 50 58 224q41 162 87 377l15 69q7 32 24.5 44t59.5 12q40 0 40 -31q0 -53 -177 -624l5 -2q57 161 116 234.5t133 73.5q46 0 74.5 -27.5t28.5 -72.5q0 -60 -47.5 -110.5t-130.5 -74.5z
M220 -62q39 0 39 -26q0 -27 -74 -108q-32 -35 -45 -58q-24 -2 -39.5 7t-15.5 27q0 20 27 74l13 23q18 35 38 48t57 13z" />
    <glyph glyph-name="kgreenlandic" unicode="&#x138;" horiz-adv-x="537" 
d="M678 300q4 -4 4 -10q0 -8 -3 -17l-7 -21q-49 -142 -124 -239q-76 -97 -156 -97q-127 0 -140 274l-66 -33q-13 -84 -25.5 -124t-25 -51t-35.5 -12q-30 0 -51.5 19.5t-21.5 46.5q0 33 46 109q21 84 43 187l15 68q11 50 33 70.5t62 20.5t40 -29q0 -18 -11 -56
q-1 -2 -65 -184l4 -2q180 107 233 268q91 6 91 -56q0 -95 -211 -213q37 -193 117 -193q49 0 111 65q59 63 103 179l13 35q22 0 27 -5z" />
    <glyph glyph-name="Lacute" unicode="&#x139;" horiz-adv-x="836" 
d="M796 961q0 31 42 63l43 28q41 27 88 67q42 -41 42 -79q0 -46 -54 -68l-39 -17q-17 -7 -41 -17t-37 -15t-18 -9q-26 24 -26 47zM877 -61q8 -30 8 -49q0 -92 -111 -92q-67 0 -178 37q-104 35 -356 142q-81 -57 -150 -57q-53 0 -53 46q0 37 30.5 64.5t74.5 27.5q41 0 95 -14
q77 83 166 313l34 89q79 209 186.5 314t224.5 105q62 0 97.5 -32t35.5 -83q0 -73 -52 -159q-53 -87 -116 -143q-64 -56 -98 -56q-12 0 -21.5 8t-9.5 18q0 9 23 41q135 173 135 283q0 52 -40 52q-34 0 -81 -59q-59 -72 -152 -283l-36 -81q-53 -120 -122 -218
q-67 -96 -116 -127q357 -92 525 -92q35 0 57 5z" />
    <glyph glyph-name="lacute" unicode="&#x13a;" horiz-adv-x="385" 
d="M533 1105q43 -36 43 -73q0 -39 -46 -61l-35 -18q-17 -9 -36.5 -18.5t-30.5 -15.5t-16 -9q-59 41 8 100l37 29q34 27 76 66zM486 270l13 35q23 0 28 -5q4 -4 4 -10q0 -10 -4 -17l-7 -21q-34 -100 -141 -186q-106 -85 -214 -85q-110 0 -110 100q0 69 73 325l10 36
q120 418 276 418q42 0 66.5 -25.5t24.5 -71.5q0 -127 -101 -282q-86 -133 -220 -285q-10 -44 -10 -90q0 -45 45 -45q65 0 151 63q84 62 116 146zM248 469l-10 -43q-19 -83 -35 -145q87 126 140 252q53 129 53 217q0 37 -20 37q-54 0 -128 -318z" />
    <glyph glyph-name="Lcommaaccent" unicode="&#x13b;" horiz-adv-x="836" 
d="M877 -61q8 -30 8 -49q0 -92 -111 -92q-67 0 -178 37q-104 35 -356 142q-81 -57 -150 -57q-53 0 -53 46q0 37 30.5 64.5t74.5 27.5q41 0 95 -14q77 83 166 313l34 89q79 209 186.5 314t224.5 105q62 0 97.5 -32t35.5 -83q0 -73 -52 -159q-53 -87 -116 -143
q-64 -56 -98 -56q-12 0 -21.5 8t-9.5 18q0 9 23 41q135 173 135 283q0 52 -40 52q-34 0 -81 -59q-59 -72 -152 -283l-36 -81q-53 -120 -122 -218q-67 -96 -116 -127q357 -92 525 -92q35 0 57 5zM401 -186q44 0 44 -29q0 -13 -13 -33.5t-27 -37.5t-44 -51q-35 -38 -51 -65
q-27 -3 -44 7.5t-17 30.5q0 26 30 84l15 26q21 39 44 53.5t63 14.5z" />
    <glyph glyph-name="lcommaaccent" unicode="&#x13c;" horiz-adv-x="385" 
d="M527 300q4 -4 4 -10q0 -10 -4 -17l-7 -21q-34 -100 -141 -186q-106 -85 -214 -85q-110 0 -110 100q0 69 73 325l10 36q120 418 276 418q42 0 66.5 -25.5t24.5 -71.5q0 -127 -101 -282q-86 -133 -220 -285q-10 -44 -10 -90q0 -45 45 -45q65 0 151 63q84 62 116 146l13 35
q23 0 28 -5zM248 469l-10 -43q-19 -83 -35 -145q87 126 140 252q53 129 53 217q0 37 -20 37q-54 0 -128 -318zM138 -82q39 0 39 -26q0 -27 -74 -108q-32 -35 -45 -58q-24 -2 -39.5 7t-15.5 27q0 20 27 74l13 23q18 35 38 48t57 13z" />
    <glyph glyph-name="Lcaron" unicode="&#x13d;" horiz-adv-x="836" 
d="M877 -61q8 -30 8 -49q0 -92 -111 -92q-67 0 -178 37q-104 35 -356 142q-81 -57 -150 -57q-53 0 -53 46q0 37 30.5 64.5t74.5 27.5q41 0 95 -14q77 83 166 313l34 89q79 209 186.5 314t224.5 105q62 0 97.5 -32t35.5 -83q0 -73 -52 -159q-53 -87 -116 -143
q-64 -56 -98 -56q-12 0 -21.5 8t-9.5 18q0 9 23 41q135 173 135 283q0 52 -40 52q-34 0 -81 -59q-59 -72 -152 -283l-36 -81q-53 -120 -122 -218q-67 -96 -116 -127q357 -92 525 -92q35 0 57 5zM1116 790q40 0 40 -33q0 -20 -37 -104q-37 -85 -45 -111q-67 -7 -67 35
q0 18 20 96q10 36 15 59q13 58 74 58z" />
    <glyph glyph-name="lcaron" unicode="&#x13e;" horiz-adv-x="385" 
d="M486 270l13 35q23 0 28 -5q4 -4 4 -10q0 -10 -4 -17l-7 -21q-34 -100 -141 -186q-106 -85 -214 -85q-110 0 -110 100q0 69 73 325l10 36q120 418 276 418q42 0 66.5 -25.5t24.5 -71.5q0 -127 -101 -282q-86 -133 -220 -285q-10 -44 -10 -90q0 -45 45 -45q65 0 151 63
q84 62 116 146zM631 790q40 0 40 -33q0 -20 -37 -98q-38 -81 -45 -108q-30 -3 -49 6t-19 29q0 24 21 92q10 38 15 54q9 31 25.5 44.5t48.5 13.5zM248 469l-10 -43q-19 -83 -35 -145q87 126 140 252q53 129 53 217q0 37 -20 37q-54 0 -128 -318z" />
    <glyph glyph-name="Ldot" unicode="&#x13f;" horiz-adv-x="836" 
d="M877 -61q8 -30 8 -49q0 -92 -111 -92q-67 0 -178 37q-104 35 -356 142q-81 -57 -150 -57q-53 0 -53 46q0 37 30.5 64.5t74.5 27.5q41 0 95 -14q77 83 166 313l34 89q79 209 186.5 314t224.5 105q62 0 97.5 -32t35.5 -83q0 -73 -52 -159q-53 -87 -116 -143
q-64 -56 -98 -56q-12 0 -21.5 8t-9.5 18q0 9 23 41q135 173 135 283q0 52 -40 52q-34 0 -81 -59q-59 -72 -152 -283l-36 -81q-53 -120 -122 -218q-67 -96 -116 -127q357 -92 525 -92q35 0 57 5zM673 179q-34 -8 -59 -8q-58 0 -58 47q0 39 32 71t76 32t44 -34q0 -19 -16 -58
q-18 -44 -19 -50z" />
    <glyph glyph-name="ldot" unicode="&#x140;" horiz-adv-x="385" 
d="M486 270l13 35q23 0 28 -5q4 -4 4 -10q0 -10 -4 -17l-7 -21q-34 -100 -141 -186q-106 -85 -214 -85q-110 0 -110 100q0 69 73 325l10 36q120 418 276 418q42 0 66.5 -25.5t24.5 -71.5q0 -127 -101 -282q-86 -133 -220 -285q-10 -44 -10 -90q0 -45 45 -45q65 0 151 63
q84 62 116 146zM248 469l-10 -43q-19 -83 -35 -145q87 126 140 252q53 129 53 217q0 37 -20 37q-54 0 -128 -318zM559 643q32 32 76 32t44 -34q0 -19 -16 -58q-18 -44 -19 -50q-34 -8 -59 -8q-58 0 -58 47q0 39 32 71z" />
    <glyph glyph-name="Lslash" unicode="&#x141;" horiz-adv-x="836" 
d="M820 -66q35 0 57 5q8 -30 8 -49q0 -92 -111 -92q-67 0 -178 37q-104 35 -356 142q-81 -57 -150 -57q-53 0 -53 46q0 37 30.5 64.5t74.5 27.5q41 0 95 -14q46 49 97 152q-105 -7 -136 -10q-5 18 -5 28q0 38 50 44q66 8 125 12q33 80 35 87l34 89q79 209 186.5 314
t224.5 105q62 0 97.5 -32t35.5 -83q0 -73 -52 -159q-53 -87 -116 -143q-64 -56 -98 -56q-12 0 -21.5 8t-9.5 18q0 9 23 41q135 173 135 283q0 52 -40 52q-34 0 -81 -59q-59 -72 -152 -283l-36 -81q-17 -38 -44 -91q104 10 138 19q8 -22 8 -38q0 -44 -48 -50q-48 -7 -144 -10
q-85 -135 -148 -175q357 -92 525 -92z" />
    <glyph glyph-name="lslash" unicode="&#x142;" horiz-adv-x="385" 
d="M527 300q4 -4 4 -10q0 -10 -4 -17l-7 -21q-34 -100 -141 -186q-106 -85 -214 -85q-110 0 -110 100q0 69 73 325l4 15l-88 -10q-5 13 -5 21q0 31 39 37l71 10q115 381 265 381q42 0 66.5 -25.5t24.5 -71.5q0 -106 -76 -242q70 13 85 17q11 -14 11 -34q0 -34 -36 -42
q-39 -7 -106 -15q-72 -107 -199 -251q-10 -44 -10 -90q0 -45 45 -45q65 0 151 63q84 62 116 146l13 35q23 0 28 -5zM376 787q-51 0 -122 -293l77 12q65 147 65 244q0 37 -20 37zM298 438l-59 -6l-1 -6q-19 -83 -35 -145q46 66 95 157z" />
    <glyph glyph-name="Nacute" unicode="&#x143;" horiz-adv-x="1139" 
d="M915 900q0 32 42 63l43 28q41 27 88 67q42 -40 42 -79q0 -45 -54 -68l-39 -17q-17 -7 -41 -17t-37 -15t-18 -9q-26 24 -26 47zM825 -25l-126 499l-45 -145q-78 -251 -165 -361q-89 -108 -203 -108q-85 0 -160 54q-75 56 -75 101q0 15 12 29.5t24 14.5q9 0 44 -16l13 -7
q105 -47 170 -47q43 0 79 18.5t76 63.5q81 91 165 351l42 130q-23 69 -23 99q0 45 27 82q26 36 60 36q25 0 34.5 -21.5t8.5 -80.5l134 -532l110 396q48 172 104 236q55 63 132 63q38 0 61 -19.5t23 -55.5q0 -27 -18 -64q-45 17 -84 17q-53 0 -91 -39.5t-65 -128.5l-149 -484
q7 -52 7 -57q0 -42 -26 -76q-25 -33 -61 -33q-40 0 -40 38q0 9 5 47z" />
    <glyph glyph-name="nacute" unicode="&#x144;" horiz-adv-x="608" 
d="M391 562q-59 41 8 100l37 29q34 27 76 66q43 -36 43 -73q0 -39 -46 -61l-35 -18q-17 -9 -36.5 -18.5t-30.5 -15.5t-16 -9zM709 270l13 35q20 0 28 -5q4 -4 4 -10q0 -9 -4 -17l-7 -21q-34 -101 -123 -184q-88 -82 -180 -82q-42 0 -65.5 19.5t-23.5 57.5q0 41 35 154
q35 111 35 150q0 43 -38 43q-55 0 -120 -99q-65 -101 -99 -263l-3 -14l-9 -43q-31 -7 -50 -7q-62 0 -62 49q0 16 11 51q16 49 34 119q22 84 42 208l3 22q5 32 24 44.5t59 12.5q36 0 36 -23q0 -16 -26 -94q-22 -61 -61 -184l5 -2q56 158 121.5 232t146.5 74q49 0 78 -28
t29 -76q0 -46 -36 -154q-37 -108 -37 -142q0 -29 27 -29q47 0 115 62q66 60 98 144z" />
    <glyph glyph-name="Ncommaaccent" unicode="&#x145;" horiz-adv-x="1139" 
d="M825 -25l-126 499l-45 -145q-78 -251 -165 -361q-89 -108 -203 -108q-85 0 -160 54q-75 56 -75 101q0 15 12 29.5t24 14.5q9 0 44 -16l13 -7q105 -47 170 -47q43 0 79 18.5t76 63.5q81 91 165 351l42 130q-23 69 -23 99q0 45 27 82q26 36 60 36q25 0 34.5 -21.5
t8.5 -80.5l134 -532l110 396q48 172 104 236q55 63 132 63q38 0 61 -19.5t23 -55.5q0 -27 -18 -64q-45 17 -84 17q-53 0 -91 -39.5t-65 -128.5l-149 -484q7 -52 7 -57q0 -42 -26 -76q-25 -33 -61 -33q-40 0 -40 38q0 9 5 47zM649 -140q46 0 46 -32q0 -31 -90 -130
q-38 -43 -54 -70q-29 -3 -47.5 8t-18.5 33q0 27 33 89l15 28q22 42 46.5 58t69.5 16z" />
    <glyph glyph-name="ncommaaccent" unicode="&#x146;" horiz-adv-x="608" 
d="M709 270l13 35q20 0 28 -5q4 -4 4 -10q0 -9 -4 -17l-7 -21q-34 -101 -123 -184q-88 -82 -180 -82q-42 0 -65.5 19.5t-23.5 57.5q0 41 35 154q35 111 35 150q0 43 -38 43q-55 0 -120 -99q-65 -101 -99 -263l-3 -14l-9 -43q-31 -7 -50 -7q-62 0 -62 49q0 16 11 51
q16 49 34 119q22 84 42 208l3 22q5 32 24 44.5t59 12.5q36 0 36 -23q0 -16 -26 -94q-22 -61 -61 -184l5 -2q56 158 121.5 232t146.5 74q49 0 78 -28t29 -76q0 -46 -36 -154q-37 -108 -37 -142q0 -29 27 -29q47 0 115 62q66 60 98 144zM268 -59q39 0 39 -26q0 -27 -74 -108
q-32 -35 -45 -58q-24 -2 -39.5 7t-15.5 27q0 20 27 74l13 23q18 35 38 48t57 13z" />
    <glyph glyph-name="Ncaron" unicode="&#x147;" horiz-adv-x="1139" 
d="M947 804q-23 0 -45 20q-22 21 -65 87l-4 6q-10 16 -10 27q0 12 15 25.5t29 13.5t46 -31l50 -46q96 69 124 93q30 -12 30 -36q0 -17 -20 -40l-21 -22q-48 -54 -77 -75.5t-52 -21.5zM825 -25l-126 499l-45 -145q-78 -251 -165 -361q-89 -108 -203 -108q-85 0 -160 54
q-75 56 -75 101q0 15 12 29.5t24 14.5q9 0 44 -16l13 -7q105 -47 170 -47q43 0 79 18.5t76 63.5q81 91 165 351l42 130q-23 69 -23 99q0 45 27 82q26 36 60 36q25 0 34.5 -21.5t8.5 -80.5l134 -532l110 396q48 172 104 236q55 63 132 63q38 0 61 -19.5t23 -55.5
q0 -27 -18 -64q-45 17 -84 17q-53 0 -91 -39.5t-65 -128.5l-149 -484q7 -52 7 -57q0 -42 -26 -76q-25 -33 -61 -33q-40 0 -40 38q0 9 5 47z" />
    <glyph glyph-name="ncaron" unicode="&#x148;" horiz-adv-x="608" 
d="M381 558q-22 0 -43 21q-21 18 -64 86l-4 7q-8 11 -8 22q0 12 14 24t27 12t41 -27l51 -51q78 56 113 87q27 -12 27 -33q0 -15 -18 -36l-19 -20q-48 -53 -72.5 -72.5t-44.5 -19.5zM709 270l13 35q20 0 28 -5q4 -4 4 -10q0 -9 -4 -17l-7 -21q-34 -101 -123 -184
q-88 -82 -180 -82q-42 0 -65.5 19.5t-23.5 57.5q0 41 35 154q35 111 35 150q0 43 -38 43q-55 0 -120 -99q-65 -101 -99 -263l-3 -14l-9 -43q-31 -7 -50 -7q-62 0 -62 49q0 16 11 51q16 49 34 119q22 84 42 208l3 22q5 32 24 44.5t59 12.5q36 0 36 -23q0 -16 -26 -94
q-22 -61 -61 -184l5 -2q56 158 121.5 232t146.5 74q49 0 78 -28t29 -76q0 -46 -36 -154q-37 -108 -37 -142q0 -29 27 -29q47 0 115 62q66 60 98 144z" />
    <glyph glyph-name="Omacron" unicode="&#x14c;" horiz-adv-x="1077" 
d="M614 899q-34 0 -67 -5q-4 20 -4 30q0 54 65 59q10 1 44 2t44 1q50 2 81 11q8 -24 8 -44q0 -41 -39 -52q-22 -5 -44 -5q-6 0 -42 1.5t-46 1.5zM1178 270l14 35q31 1 31 -16q0 -5 -3 -16l-8 -21q-50 -142 -178 -227q-130 -87 -326 -88q-121 -85 -262 -85q-164 0 -259 92
q-95 93 -95 261q0 95 27 186q27 90 65 153q38 60 73.5 97t56.5 37q7 0 15 -6t8 -12q0 -3 -7 -19t-22 -47.5t-25 -54.5q-22 -49 -38 -124q-17 -82 -17 -160q0 -156 74 -245q73 -89 188 -89q56 0 110 26q-133 26 -205 118t-72 233q0 144 56 270q55 123 148 196q92 71 193 71
q122 0 192 -86t70 -248q0 -142 -50 -270.5t-140 -222.5q142 10 242 78t144 184zM447 356q0 -148 63.5 -236.5t175.5 -107.5q68 73 108 193q38 120 38 254q0 145 -42.5 227.5t-112.5 82.5q-86 0 -158 -123q-72 -124 -72 -290z" />
    <glyph glyph-name="omacron" unicode="&#x14d;" horiz-adv-x="607" 
d="M335 594q-20 0 -44 -3q-2 12 -2 25q0 60 68 60q8 0 42.5 -0.5t41.5 -0.5q54 0 85 7q6 -22 6 -39q0 -59 -69 -59q-13 0 -60 5t-68 5zM749 300q4 -5 4 -10q0 -6 -4 -17l-7 -21q-29 -85 -113 -141q-86 -58 -204 -59q-86 -76 -193 -76q-86 0 -137 45.5t-51 122.5
q0 120 84 222q85 103 190 137q15 5 27 5q11 0 19 -7t8 -15q0 -9 -22 -22q-71 -41 -125 -129q-55 -88 -55 -171q0 -59 26 -90.5t70 -31.5q34 0 69 24q-86 35 -86 136q0 89 67 175q68 86 139 86q46 0 74 -32t28 -91q0 -125 -78 -229q83 8 144 50t85 109l13 35q23 0 28 -5z
M408 390q-26 0 -52 -53q-27 -54 -27 -111q0 -79 56 -106q55 85 55 199q0 71 -32 71z" />
    <glyph glyph-name="Ohungarumlaut" unicode="&#x150;" horiz-adv-x="1077" 
d="M699 880q-34 16 -34 40q0 20 36 63l21 26q43 49 61 76q31 -18 43.5 -33.5t12.5 -35.5q0 -27 -40 -61l-28 -21zM536 874q-36 15 -36 41q0 20 32 61l21 27q28 35 56 79q60 -30 60 -66q0 -28 -38 -61l-26 -23q-14 -12 -29.5 -25t-25.5 -21t-14 -12zM1178 270l14 35
q31 1 31 -16q0 -5 -3 -16l-8 -21q-50 -142 -178 -227q-130 -87 -326 -88q-121 -85 -262 -85q-164 0 -259 92q-95 93 -95 261q0 95 27 186q27 90 65 153q38 60 73.5 97t56.5 37q7 0 15 -6t8 -12q0 -3 -7 -19t-22 -47.5t-25 -54.5q-22 -49 -38 -124q-17 -82 -17 -160
q0 -156 74 -245q73 -89 188 -89q56 0 110 26q-133 26 -205 118t-72 233q0 144 56 270q55 123 148 196q92 71 193 71q122 0 192 -86t70 -248q0 -142 -50 -270.5t-140 -222.5q142 10 242 78t144 184zM447 356q0 -148 63.5 -236.5t175.5 -107.5q68 73 108 193q38 120 38 254
q0 145 -42.5 227.5t-112.5 82.5q-86 0 -158 -123q-72 -124 -72 -290z" />
    <glyph glyph-name="ohungarumlaut" unicode="&#x151;" horiz-adv-x="607" 
d="M286 556q-38 17 -38 44q0 22 34 65l21 28q17 21 60 82q64 -30 64 -69q0 -29 -41 -65l-27 -24q-71 -59 -73 -61zM457 558q-36 16 -36 42q0 20 38 66l22 28q50 59 65 79q59 -35 59 -72q0 -28 -43 -65l-29 -22q-15 -12 -33.5 -24.5t-28.5 -20t-14 -11.5zM749 300q4 -5 4 -10
q0 -6 -4 -17l-7 -21q-29 -85 -113 -141q-86 -58 -204 -59q-86 -76 -193 -76q-86 0 -137 45.5t-51 122.5q0 120 84 222q85 103 190 137q15 5 27 5q11 0 19 -7t8 -15q0 -9 -22 -22q-71 -41 -125 -129q-55 -88 -55 -171q0 -59 26 -90.5t70 -31.5q34 0 69 24q-86 35 -86 136
q0 89 67 175q68 86 139 86q46 0 74 -32t28 -91q0 -125 -78 -229q83 8 144 50t85 109l13 35q23 0 28 -5zM408 390q-26 0 -52 -53q-27 -54 -27 -111q0 -79 56 -106q55 85 55 199q0 71 -32 71z" />
    <glyph glyph-name="OE" unicode="&#x152;" horiz-adv-x="1313" 
d="M1455 300q4 -4 4 -10q0 -8 -3 -17l-8 -21q-48 -142 -169 -240q-121 -99 -280 -99q-183 0 -239 116q-68 -92 -157.5 -142.5t-190.5 -50.5q-154 0 -238 86.5t-84 248.5q0 95 27 190t64 157q36 62 72 101t55 39q10 0 18.5 -6t8.5 -13q2 -2 -1 -9t-11 -21.5t-11 -21.5l-6 -11
q-85 -180 -85 -360q0 -149 60.5 -226.5t165.5 -77.5q97 0 174 69q76 70 121 183l1 7q-79 -72 -199 -72q-99 0 -158 61.5t-59 173.5q-3 111 48 220.5t137.5 178.5t180.5 66q107 0 159 -81q51 69 136 112q83 43 172 43q174 0 174 -122q0 -72 -52 -136q-53 -65 -95 -65
q-16 0 -26.5 8.5t-10.5 19.5q0 8 30 64q29 55 29 95t-22 62.5t-63 22.5q-79 0 -152 -76t-73 -164q0 -115 161 -142q13 2 46 8t43 8q18 2 26 2q23 0 32.5 -8.5t9.5 -30.5q0 -19 -16.5 -30.5t-46.5 -11.5q-23 0 -84 14q-99 -22 -158 -87t-59 -141q0 -74 51.5 -119t139.5 -45
q118 0 222 74q101 73 148 197l14 35q22 0 27 -5zM447 365q0 -97 39.5 -146.5t111.5 -49.5q47 0 94 25t82 71q20 88 20 168q0 149 -36.5 227t-97.5 78q-52 2 -102.5 -52.5t-81 -142.5t-29.5 -178zM904 439q-1 -36 -5 -60q48 23 101 36q-52 5 -96 24z" />
    <glyph glyph-name="oe" unicode="&#x153;" horiz-adv-x="851" 
d="M990 300q3 -4 3 -10q0 -8 -3 -17l-5 -15q-38 -107 -146 -190q-108 -84 -235 -84q-130 0 -170 90q-90 -98 -204 -98q-85 0 -135.5 45.5t-50.5 122.5q0 120 84 222q85 103 190 137q15 5 27 5q11 0 19 -7t8 -15q0 -9 -22 -22q-71 -41 -125 -129q-55 -88 -55 -171
q0 -59 26.5 -90.5t70.5 -31.5q40 0 76.5 31t60.5 84q-134 3 -134 101q0 68 58 136q58 69 116 69q62 0 85 -65q89 92 184 92q51 0 78.5 -24t27.5 -66q0 -77 -77 -145q-79 -68 -216 -89q4 -55 34 -79.5t90 -24.5q88 0 177 61q89 60 122 147l13 35q23 0 28 -5zM668 418
q-45 0 -87 -62q-42 -60 -53 -139q90 20 132 68q42 49 42 95q0 38 -34 38zM346 275q0 -62 77 -67q15 51 15 111q0 71 -31 71q-21 0 -41 -36q-20 -38 -20 -79z" />
    <glyph glyph-name="Racute" unicode="&#x154;" horiz-adv-x="862" 
d="M556 878q-26 24 -26 47q0 31 42 63l43 28q41 27 88 67q42 -41 42 -79q0 -45 -54 -68l-39 -17q-17 -7 -41 -17t-37 -15t-18 -9zM1004 300q4 -4 4 -10q0 -10 -4 -17l-7 -21q-53 -154 -137 -256q-85 -102 -179 -102q-177 0 -169 401q-41 -8 -41 29q0 27 19.5 49.5t40.5 22.5
q27 0 33 -37q65 28 118 93q51 63 51 142q0 76 -48.5 124t-133.5 58q-5 -14 -12 -48q-5 -18 -30 -121q-8 -33 -25 -100.5t-22 -89.5q-88 -351 -87 -427q-27 -13 -58 -13t-51.5 17.5t-20.5 44.5q0 19 7 54q9 42 21 86q6 22 17 63.5t19 72.5q15 55 24 91q21 80 30 116
q5 18 9.5 36t9 35.5t6.5 24.5q6 22 18 68q15 58 27 87q-127 -20 -188 -95q-63 -76 -63 -178q0 -75 39 -147l4 -8q10 -16 10 -27q0 -12 -11.5 -22t-27.5 -10q-50 0 -100 60q-50 59 -50 137q0 130 129 237q62 51 159.5 81.5t209.5 30.5q154 0 241.5 -56.5t87.5 -156.5
q0 -111 -84 -196q-85 -85 -219 -117q32 -290 156 -290q63 0 127 66t110 188l14 35q22 0 27 -5z" />
    <glyph glyph-name="racute" unicode="&#x155;" horiz-adv-x="450" 
d="M266 548q-59 41 8 100l37 29q34 27 76 66q43 -36 43 -73q0 -39 -46 -61l-35 -18q-17 -9 -36.5 -18.5t-30.5 -15.5t-16 -9zM192 63q0 46 34 148t34 136q0 22 -10.5 31.5t-36.5 9.5q-12 0 -42 -2q-11 -63 -28 -112l-8 -23q-5 -11 -12 -11q-5 0 -16 4q-14 6 -8 20l4 12
q19 46 27 111q-61 0 -61 50q0 35 23 70q23 33 47 33q23 0 32 -22.5t6 -76.5q63 22 110 22q44 0 69 -24t25 -68q0 -40 -35 -142q-36 -102 -36 -136q0 -29 27 -29q47 0 115 62q66 60 98 144l14 35q22 0 27 -5q4 -4 4 -10q0 -8 -3 -17l-8 -21q-35 -104 -122 -184
q-88 -82 -181 -82q-42 0 -65.5 19.5t-23.5 57.5z" />
    <glyph glyph-name="Rcommaaccent" unicode="&#x156;" horiz-adv-x="862" 
d="M1004 300q4 -4 4 -10q0 -10 -4 -17l-7 -21q-53 -154 -137 -256q-85 -102 -179 -102q-177 0 -169 401q-41 -8 -41 29q0 27 19.5 49.5t40.5 22.5q27 0 33 -37q65 28 118 93q51 63 51 142q0 76 -48.5 124t-133.5 58q-5 -14 -12 -48q-5 -18 -30 -121q-8 -33 -25 -100.5
t-22 -89.5q-88 -351 -87 -427q-27 -13 -58 -13t-51.5 17.5t-20.5 44.5q0 19 7 54q9 42 21 86q6 22 17 63.5t19 72.5q15 55 24 91q21 80 30 116q5 18 9.5 36t9 35.5t6.5 24.5q6 22 18 68q15 58 27 87q-127 -20 -188 -95q-63 -76 -63 -178q0 -75 39 -147l4 -8q10 -16 10 -27
q0 -12 -11.5 -22t-27.5 -10q-50 0 -100 60q-50 59 -50 137q0 130 129 237q62 51 159.5 81.5t209.5 30.5q154 0 241.5 -56.5t87.5 -156.5q0 -111 -84 -196q-85 -85 -219 -117q32 -290 156 -290q63 0 127 66t110 188l14 35q22 0 27 -5zM446 -86q44 0 44 -29q0 -13 -13 -33.5
t-27 -37.5t-44 -51q-35 -38 -51 -65q-27 -3 -44 7.5t-17 30.5q0 26 30 84l15 26q21 39 44 53.5t63 14.5z" />
    <glyph glyph-name="rcommaaccent" unicode="&#x157;" horiz-adv-x="450" 
d="M192 63q0 46 34 148t34 136q0 22 -10.5 31.5t-36.5 9.5q-12 0 -42 -2q-11 -63 -28 -112l-8 -23q-5 -11 -12 -11q-5 0 -16 4q-14 6 -8 20l4 12q19 46 27 111q-61 0 -61 50q0 35 23 70q23 33 47 33q23 0 32 -22.5t6 -76.5q63 22 110 22q44 0 69 -24t25 -68q0 -40 -35 -142
q-36 -102 -36 -136q0 -29 27 -29q47 0 115 62q66 60 98 144l14 35q22 0 27 -5q4 -4 4 -10q0 -8 -3 -17l-8 -21q-35 -104 -122 -184q-88 -82 -181 -82q-42 0 -65.5 19.5t-23.5 57.5zM202 -68q39 0 39 -26q0 -27 -74 -108q-32 -35 -45 -58q-24 -2 -39.5 7t-15.5 27q0 20 27 74
l13 23q18 35 38 48t57 13z" />
    <glyph glyph-name="Rcaron" unicode="&#x158;" horiz-adv-x="862" 
d="M459 982l-4 6q-10 16 -10 27q0 12 15 25.5t29 13.5t46 -31l50 -46q96 69 124 93q30 -12 30 -36q0 -17 -20 -40l-21 -22q-48 -54 -77 -75.5t-52 -21.5t-45 20q-22 21 -65 87zM1004 300q4 -4 4 -10q0 -10 -4 -17l-7 -21q-53 -154 -137 -256q-85 -102 -179 -102
q-177 0 -169 401q-41 -8 -41 29q0 27 19.5 49.5t40.5 22.5q27 0 33 -37q65 28 118 93q51 63 51 142q0 76 -48.5 124t-133.5 58q-5 -14 -12 -48q-5 -18 -30 -121q-8 -33 -25 -100.5t-22 -89.5q-88 -351 -87 -427q-27 -13 -58 -13t-51.5 17.5t-20.5 44.5q0 19 7 54q9 42 21 86
q6 22 17 63.5t19 72.5q15 55 24 91q21 80 30 116q5 18 9.5 36t9 35.5t6.5 24.5q6 22 18 68q15 58 27 87q-127 -20 -188 -95q-63 -76 -63 -178q0 -75 39 -147l4 -8q10 -16 10 -27q0 -12 -11.5 -22t-27.5 -10q-50 0 -100 60q-50 59 -50 137q0 130 129 237q62 51 159.5 81.5
t209.5 30.5q154 0 241.5 -56.5t87.5 -156.5q0 -111 -84 -196q-85 -85 -219 -117q32 -290 156 -290q63 0 127 66t110 188l14 35q22 0 27 -5z" />
    <glyph glyph-name="rcaron" unicode="&#x159;" horiz-adv-x="450" 
d="M263 561q-22 0 -43 21q-21 18 -64 86l-4 7q-8 11 -8 22q0 12 14 24t27 12q12 0 41 -27l51 -51q78 56 113 87q27 -12 27 -33q0 -15 -18 -36l-19 -20q-48 -53 -72.5 -72.5t-44.5 -19.5zM192 63q0 46 34 148t34 136q0 22 -10.5 31.5t-36.5 9.5q-12 0 -42 -2
q-11 -63 -28 -112l-8 -23q-5 -11 -12 -11q-5 0 -16 4q-14 6 -8 20l4 12q19 46 27 111q-61 0 -61 50q0 35 23 70q23 33 47 33q23 0 32 -22.5t6 -76.5q63 22 110 22q44 0 69 -24t25 -68q0 -40 -35 -142q-36 -102 -36 -136q0 -29 27 -29q47 0 115 62q66 60 98 144l14 35
q22 0 27 -5q4 -4 4 -10q0 -8 -3 -17l-8 -21q-35 -104 -122 -184q-88 -82 -181 -82q-42 0 -65.5 19.5t-23.5 57.5z" />
    <glyph glyph-name="Sacute" unicode="&#x15a;" horiz-adv-x="787" 
d="M577 959q0 31 42 63l43 28q41 27 88 67q42 -41 42 -79q0 -46 -54 -68l-39 -17q-17 -7 -41 -17t-37 -15t-18 -9q-26 24 -26 47zM275 274q-73 -94 -73 -184q0 -65 47 -106.5t120 -41.5q84 0 139 52q55 54 55 134q0 20 -5 39.5t-17 40.5t-22 36.5t-30.5 38t-31 34t-35.5 36
t-33 32.5q-96 96 -96 192q0 117 96 194q94 76 234 76q98 0 150.5 -38.5t52.5 -104.5q0 -57 -44 -116t-79 -59q-15 0 -28 8t-13 19q0 8 19 50q19 41 19 80q0 44 -28 68.5t-80 24.5q-68 0 -114 -46q-47 -47 -47 -117q0 -18 5 -37t17.5 -40.5t22 -36t32 -39t31.5 -35t37 -38.5
l34 -34q97 -101 97 -193q0 -121 -104 -204q-104 -82 -263 -82q-128 0 -201 55q-74 56 -74 145t55 154q56 65 104 64q32 0 51 -21z" />
    <glyph glyph-name="sacute" unicode="&#x15b;" horiz-adv-x="433" 
d="M208 568q-59 41 8 100l37 29q34 27 76 66q43 -36 43 -73q0 -39 -46 -61l-35 -18q-17 -9 -36.5 -18.5t-30.5 -15.5t-16 -9zM575 300q4 -4 4 -10q0 -9 -4 -17l-7 -21q-15 -44 -61 -69t-125 -40q3 -14 3 -25q0 -70 -55 -113q-55 -45 -140 -45q-54 0 -86.5 23t-32.5 59
q0 51 43.5 77.5t135.5 42.5q-15 33 -40 83q-32 63 -46 111q-4 -28 -25 -93l-6 -17q-5 -11 -13 -11t-14 3q-12 3 -12 11q0 4 3 10l5 13q12 31 26 119l2 16q6 48 34 75t72 27q32 0 32 -24q0 -10 -21 -23q-21 -15 -21 -31q0 -28 63 -118q64 -96 80 -131q142 25 165 88l14 36
q21 0 27 -6zM266 84q0 22 -4 37q-54 -10 -79.5 -25.5t-25.5 -41.5q0 -20 13.5 -31.5t35.5 -11.5q29 0 44.5 20t15.5 53z" />
    <glyph glyph-name="Scedilla" unicode="&#x15e;" horiz-adv-x="787" 
d="M703 529q-15 0 -28 8t-13 19q0 8 19 50q19 41 19 80q0 44 -28 68.5t-80 24.5q-68 0 -114 -46q-47 -47 -47 -117q0 -18 5 -37t17.5 -40.5t22 -36t32 -39t31.5 -35t37 -38.5l34 -34q97 -101 97 -193q0 -117 -97 -198q-98 -81 -247 -87q-22 -37 -22 -49q0 -11 27 -35
q26 -24 26 -52q0 -53 -49 -84q-50 -32 -109 -32q-45 0 -45 32l1 4v5q103 15 103 68q0 12 -11.5 40.5t-11.5 33.5q0 22 43 69q-116 5 -183 58.5t-67 140.5q0 89 55 154q56 65 104 64q32 0 51 -21q-73 -94 -73 -184q0 -65 47 -106.5t120 -41.5q84 0 139 52q55 54 55 134
q0 20 -5 39.5t-17 40.5t-22 36.5t-30.5 38t-31 34t-35.5 36t-33 32.5q-96 96 -96 192q0 117 96 194q94 76 234 76q98 0 150.5 -38.5t52.5 -104.5q0 -57 -44 -116t-79 -59z" />
    <glyph glyph-name="scedilla" unicode="&#x15f;" horiz-adv-x="433" 
d="M575 300q4 -4 4 -10q0 -9 -4 -17l-7 -21q-15 -44 -61 -69t-125 -40q3 -14 3 -25q0 -65 -50 -109q-52 -45 -128 -49q-18 -30 -18 -40q0 -6 23.5 -31t23.5 -48q0 -47 -43 -75t-98 -28q-40 0 -40 28l1 4v5q93 13 93 61q0 12 -10.5 36.5t-10.5 29.5q0 18 36 59
q-44 6 -68.5 28t-24.5 53q0 51 43.5 77.5t135.5 42.5q-15 33 -40 83q-32 63 -46 111q-4 -28 -25 -93l-6 -17q-5 -11 -13 -11t-14 3q-12 3 -12 11q0 4 3 10l5 13q12 31 26 119l2 16q6 48 34 75t72 27q32 0 32 -24q0 -10 -21 -23q-21 -15 -21 -31q0 -28 63 -118
q64 -96 80 -131q142 25 165 88l14 36q21 0 27 -6zM266 84q0 22 -4 37q-54 -10 -79.5 -25.5t-25.5 -41.5q0 -20 13.5 -31.5t35.5 -11.5q29 0 44.5 20t15.5 53z" />
    <glyph glyph-name="Scaron" unicode="&#x160;" horiz-adv-x="787" 
d="M630 904q-23 0 -45 20q-22 21 -65 87l-4 6q-10 16 -10 27q0 12 15 25.5t29 13.5t46 -31l50 -46q96 69 124 93q30 -12 30 -36q0 -17 -20 -40l-21 -22q-48 -54 -77 -75.5t-52 -21.5zM275 274q-73 -94 -73 -184q0 -65 47 -106.5t120 -41.5q84 0 139 52q55 54 55 134
q0 20 -5 39.5t-17 40.5t-22 36.5t-30.5 38t-31 34t-35.5 36t-33 32.5q-96 96 -96 192q0 117 96 194q94 76 234 76q98 0 150.5 -38.5t52.5 -104.5q0 -57 -44 -116t-79 -59q-15 0 -28 8t-13 19q0 8 19 50q19 41 19 80q0 44 -28 68.5t-80 24.5q-68 0 -114 -46q-47 -47 -47 -117
q0 -18 5 -37t17.5 -40.5t22 -36t32 -39t31.5 -35t37 -38.5l34 -34q97 -101 97 -193q0 -121 -104 -204q-104 -82 -263 -82q-128 0 -201 55q-74 56 -74 145t55 154q56 65 104 64q32 0 51 -21z" />
    <glyph glyph-name="scaron" unicode="&#x161;" horiz-adv-x="433" 
d="M113 680l-4 7q-8 11 -8 22q0 12 14 24t27 12q12 0 41 -27l51 -51q78 56 113 87q27 -12 27 -33q0 -15 -18 -36l-19 -20q-48 -53 -72.5 -72.5t-44.5 -19.5q-22 0 -43 21q-21 18 -64 86zM575 300q4 -4 4 -10q0 -9 -4 -17l-7 -21q-15 -44 -61 -69t-125 -40q3 -14 3 -25
q0 -70 -55 -113q-55 -45 -140 -45q-54 0 -86.5 23t-32.5 59q0 51 43.5 77.5t135.5 42.5q-15 33 -40 83q-32 63 -46 111q-4 -28 -25 -93l-6 -17q-5 -11 -13 -11t-14 3q-12 3 -12 11q0 4 3 10l5 13q12 31 26 119l2 16q6 48 34 75t72 27q32 0 32 -24q0 -10 -21 -23
q-21 -15 -21 -31q0 -28 63 -118q64 -96 80 -131q142 25 165 88l14 36q21 0 27 -6zM266 84q0 22 -4 37q-54 -10 -79.5 -25.5t-25.5 -41.5q0 -20 13.5 -31.5t35.5 -11.5q29 0 44.5 20t15.5 53z" />
    <glyph glyph-name="Tcedilla" unicode="&#x162;" horiz-adv-x="592" 
d="M501 720l-146 -598q-17 -73 -17 -106q0 -49 50 -49q75 0 166 88t139 215l13 35q23 0 28 -5q3 -4 3 -10q0 -8 -3 -17l-7 -21q-53 -150 -162 -255q-111 -105 -236 -105q-4 0 -34 2q-14 -26 -14 -35q0 -11 27 -35q26 -24 26 -52q0 -53 -49 -84q-50 -32 -109 -32
q-45 0 -45 32l1 4v5q103 15 103 68q0 12 -11.5 40.5t-11.5 33.5q0 19 41 66q-59 26 -59 92q0 58 27 163l139 529q-168 -147 -308 -147q-71 0 -115 34t-44 90q0 78 77.5 126.5t212.5 48.5q59 0 270 -20q209 -20 267 -20q71 0 98 7q12 -30 12 -54q0 -36 -25.5 -55.5
t-70.5 -19.5q-74 0 -233 41zM18 694q0 -31 24 -49.5t65 -18.5q55 0 126 33t143 92q-137 34 -219 34q-67 0 -103 -25.5t-36 -65.5z" />
    <glyph glyph-name="tcedilla" unicode="&#x163;" horiz-adv-x="334" 
d="M476 300q4 -5 4 -10t-4 -17l-7 -21q-34 -100 -127 -182q-91 -82 -196 -84q-19 -31 -19 -42q0 -6 23.5 -31t23.5 -48q0 -47 -43 -75t-98 -28q-40 0 -40 28l1 4v5q93 13 93 61q0 12 -10.5 36.5t-10.5 29.5q0 18 40 64q-55 15 -55 73q0 28 11 74l80 297q-12 1 -54 1l-2 18
q0 35 36 35h35l20 74q9 37 25.5 50.5t54.5 13.5q22 0 31 -6t9 -21q0 -8 -3 -22l-25 -90q47 1 87 7q4 -12 4 -28q0 -39 -41 -39q-8 0 -34 0.5t-32 0.5l-74 -266q-13 -48 -13 -69q0 -29 30 -29q61 0 135 62q72 60 104 144l13 35q23 0 28 -5z" />
    <glyph glyph-name="Tcaron" unicode="&#x164;" horiz-adv-x="592" 
d="M358 975l-4 6q-10 16 -10 27q0 12 15 25.5t29 13.5t46 -31l50 -46q96 69 124 93q30 -12 30 -36q0 -17 -20 -40l-21 -22q-48 -54 -77 -75.5t-52 -21.5t-45 20q-22 21 -65 87zM501 720l-146 -598q-17 -73 -17 -106q0 -49 50 -49q75 0 166 88t139 215l13 35q23 0 28 -5
q3 -4 3 -10q0 -8 -3 -17l-7 -21q-53 -150 -162 -255q-111 -105 -236 -105q-66 0 -100.5 27t-34.5 78q0 58 27 163l139 529q-168 -147 -308 -147q-71 0 -115 34t-44 90q0 78 77.5 126.5t212.5 48.5q59 0 270 -20q209 -20 267 -20q71 0 98 7q12 -30 12 -54q0 -36 -25.5 -55.5
t-70.5 -19.5q-74 0 -233 41zM18 694q0 -31 24 -49.5t65 -18.5q55 0 126 33t143 92q-137 34 -219 34q-67 0 -103 -25.5t-36 -65.5z" />
    <glyph glyph-name="tcaron" unicode="&#x165;" horiz-adv-x="334" 
d="M416 548q-68 -5 -68 35q0 15 11 61q1 4 10.5 39.5t12.5 49.5q7 30 24 43.5t50 13.5q40 0 40 -33q0 -17 -36 -99q-35 -76 -44 -110zM435 270l13 35q23 0 28 -5q4 -5 4 -10t-4 -17l-7 -21q-34 -103 -129 -184q-94 -82 -200 -82q-42 0 -65.5 19.5t-23.5 57.5q0 28 11 74
l80 297q-12 1 -54 1l-2 18q0 35 36 35h35l20 74q9 37 25.5 50.5t54.5 13.5q22 0 31 -6t9 -21q0 -8 -3 -22l-25 -90q47 1 87 7q4 -12 4 -28q0 -39 -41 -39q-8 0 -34 0.5t-32 0.5l-74 -266q-13 -48 -13 -69q0 -29 30 -29q61 0 135 62q72 60 104 144z" />
    <glyph glyph-name="Tbar" unicode="&#x166;" horiz-adv-x="592" 
d="M734 679q-74 0 -233 41l-72 -295q78 -6 86 -6q36 0 60 2q4 -21 4 -33q0 -27 -16 -39t-52 -12q-22 0 -101 12l-55 -227q-17 -73 -17 -106q0 -49 50 -49q75 0 166 88t139 215l13 35q23 0 28 -5q3 -4 3 -10q0 -8 -3 -17l-7 -21q-53 -150 -162 -255q-111 -105 -236 -105
q-66 0 -100.5 27t-34.5 78q0 58 27 163l55 210q-62 8 -88 8q-34 0 -49 -3q-5 18 -5 26q0 44 54 44q36 0 106 -7l66 251q-168 -147 -308 -147q-71 0 -115 34t-44 90q0 78 77.5 126.5t212.5 48.5q59 0 270 -20q209 -20 267 -20q71 0 98 7q12 -30 12 -54q0 -36 -25.5 -55.5
t-70.5 -19.5zM18 694q0 -31 24 -49.5t65 -18.5q55 0 126 33t143 92q-137 34 -219 34q-67 0 -103 -25.5t-36 -65.5z" />
    <glyph glyph-name="tbar" unicode="&#x167;" horiz-adv-x="342" 
d="M484 299q5 -5 0 -26l-7 -21q-34 -102 -131 -184q-95 -82 -204 -82q-42 0 -66 19.5t-24 57.5q0 33 12 74l47 176q-8 0 -18 0.5t-15 1t-8 0.5q-24 0 -42 -2q-5 12 -5 22q0 16 11.5 26.5t29.5 10.5l63 -1l17 63q-12 1 -54 1q-3 11 -3 18q0 35 37 35h34l20 74
q10 37 26.5 50.5t54.5 13.5q27 0 35 -12t1 -37l-25 -90q46 1 88 7q4 -12 4 -28q0 -39 -42 -39q-8 0 -33 0.5t-33 0.5l-17 -61l59 -1q32 0 54 2q4 -20 4 -29q0 -43 -56 -43q-14 0 -79 6l-38 -140q-13 -48 -13 -69q0 -29 30 -29q66 0 139 61q75 63 106 145l13 35q22 0 28 -6z
" />
    <glyph glyph-name="Utilde" unicode="&#x168;" horiz-adv-x="924" 
d="M485 863q-25 1 -34 12t-3 41q9 40 39.5 62t71.5 18q25 -3 66 -20q36 -17 54 -19q35 -4 56 40q25 -1 34 -12t3 -39q-8 -39 -40 -62.5t-74 -19.5q-22 3 -61 20q-37 17 -58 19q-36 5 -54 -40zM1066 300q4 -5 4 -10t-4 -17l-7 -21q-31 -88 -123 -153q-94 -65 -219 -65
q-56 0 -101 12q-143 -122 -308 -122q-107 0 -170.5 52t-63.5 146q0 72 41 186q39 108 81 211q40 96 40 139q0 37 -38 37q-25 0 -76 -21q-53 -21 -64 -21q-12 0 -21.5 11t-9.5 25q0 17 21 24q31 12 98 24q68 11 116 11q112 0 112 -89q0 -39 -38 -139q-39 -100 -78 -207
t-39 -164q0 -73 40.5 -113.5t112.5 -40.5q100 0 182 78q-96 61 -96 210q0 121 50 253q49 128 131 216q81 86 163 86q55 0 85 -33.5t30 -98.5q0 -134 -65 -306q-64 -169 -176 -295q37 -14 77 -14q93 0 168 51t104 128l13 35q21 0 28 -5zM776 695q0 46 -14.5 62.5t-38 -0.5
t-48.5 -63q-38 -68 -68 -182q-29 -111 -29 -207q0 -101 40 -154q75 111 117 268q41 159 41 276z" />
    <glyph glyph-name="utilde" unicode="&#x169;" horiz-adv-x="596" 
d="M257 571q-24 1 -32 11.5t-3 37.5q9 37 37 58t67 17q21 -2 61 -19q36 -16 51 -18q32 -4 52 38q23 -1 31.5 -11.5t2.5 -36.5q-8 -37 -38 -58.5t-68 -17.5q-16 1 -57 18q-36 16 -54 18q-34 5 -50 -37zM697 270l13 35q20 0 28 -5q3 -4 3 -10q0 -8 -3 -17l-7 -21
q-34 -99 -121 -184q-88 -85 -176 -85q-42 0 -64 19.5t-22 55.5q0 37 44 157l-5 2q-89 -230 -235 -230q-49 0 -79.5 27.5t-30.5 77.5q0 49 24 125q13 46 28 94q10 33 35 120q9 35 27 48t57 13q42 0 42 -29q0 -10 -12 -52l-7 -18q0 -1 -13 -37q-12 -34 -15 -45q-1 -3 -3 -8.5
t-5 -15t-6 -17.5q-2 -6 -14 -46q-23 -91 -21 -108q0 -46 39 -46q52 0 115 88q64 90 107 259l6 20q8 32 25 43.5t59 11.5q45 0 37 -38l-2 -9q-7 -30 -47 -165q-47 -162 -47 -190q0 -29 30 -29q50 0 118 65t98 144z" />
    <glyph glyph-name="Umacron" unicode="&#x16a;" horiz-adv-x="924" 
d="M489 861q-34 0 -67 -5q-4 20 -4 30q0 54 65 59q10 1 44 2t44 1q50 2 81 11q8 -24 8 -44q0 -41 -39 -52q-22 -5 -44 -5q-6 0 -42 1.5t-46 1.5zM1066 300q4 -5 4 -10t-4 -17l-7 -21q-31 -88 -123 -153q-94 -65 -219 -65q-56 0 -101 12q-143 -122 -308 -122
q-107 0 -170.5 52t-63.5 146q0 72 41 186q39 108 81 211q40 96 40 139q0 37 -38 37q-25 0 -76 -21q-53 -21 -64 -21q-12 0 -21.5 11t-9.5 25q0 17 21 24q31 12 98 24q68 11 116 11q112 0 112 -89q0 -39 -38 -139q-39 -100 -78 -207t-39 -164q0 -73 40.5 -113.5t112.5 -40.5
q100 0 182 78q-96 61 -96 210q0 121 50 253q49 128 131 216q81 86 163 86q55 0 85 -33.5t30 -98.5q0 -134 -65 -306q-64 -169 -176 -295q37 -14 77 -14q93 0 168 51t104 128l13 35q21 0 28 -5zM776 695q0 46 -14.5 62.5t-38 -0.5t-48.5 -63q-38 -68 -68 -182
q-29 -111 -29 -207q0 -101 40 -154q75 111 117 268q41 159 41 276z" />
    <glyph glyph-name="umacron" unicode="&#x16b;" horiz-adv-x="596" 
d="M488 682q6 -22 6 -39q0 -59 -69 -59q-13 0 -60 5t-68 5q-20 0 -44 -3q-2 12 -2 25q0 60 68 60q8 0 42.5 -0.5t41.5 -0.5q54 0 85 7zM697 270l13 35q20 0 28 -5q3 -4 3 -10q0 -8 -3 -17l-7 -21q-34 -99 -121 -184q-88 -85 -176 -85q-42 0 -64 19.5t-22 55.5q0 37 44 157
l-5 2q-89 -230 -235 -230q-49 0 -79.5 27.5t-30.5 77.5q0 49 24 125q13 46 28 94q10 33 35 120q9 35 27 48t57 13q42 0 42 -29q0 -10 -12 -52l-7 -18q0 -1 -13 -37q-12 -34 -15 -45q-1 -3 -3 -8.5t-5 -15t-6 -17.5q-2 -6 -14 -46q-23 -91 -21 -108q0 -46 39 -46q52 0 115 88
q64 90 107 259l6 20q8 32 25 43.5t59 11.5q45 0 37 -38l-2 -9q-7 -30 -47 -165q-47 -162 -47 -190q0 -29 30 -29q50 0 118 65t98 144z" />
    <glyph glyph-name="Uring" unicode="&#x16e;" horiz-adv-x="924" 
d="M532 828q-48 0 -77 22t-29 61q0 58 47 96q47 36 113 36q49 0 77.5 -21.5t28.5 -60.5q0 -60 -47 -96q-46 -37 -113 -37zM576 1001q-29 0 -48 -25.5t-19 -61.5q0 -20 9 -32t25 -12q28 0 47.5 26t19.5 62q0 43 -34 43zM1066 300q4 -5 4 -10t-4 -17l-7 -21q-31 -88 -123 -153
q-94 -65 -219 -65q-56 0 -101 12q-143 -122 -308 -122q-107 0 -170.5 52t-63.5 146q0 72 41 186q39 108 81 211q40 96 40 139q0 37 -38 37q-25 0 -76 -21q-53 -21 -64 -21q-12 0 -21.5 11t-9.5 25q0 17 21 24q31 12 98 24q68 11 116 11q112 0 112 -89q0 -39 -38 -139
q-39 -100 -78 -207t-39 -164q0 -73 40.5 -113.5t112.5 -40.5q100 0 182 78q-96 61 -96 210q0 121 50 253q49 128 131 216q81 86 163 86q55 0 85 -33.5t30 -98.5q0 -134 -65 -306q-64 -169 -176 -295q37 -14 77 -14q93 0 168 51t104 128l13 35q21 0 28 -5zM776 695
q0 46 -14.5 62.5t-38 -0.5t-48.5 -63q-38 -68 -68 -182q-29 -111 -29 -207q0 -101 40 -154q75 111 117 268q41 159 41 276z" />
    <glyph glyph-name="uring" unicode="&#x16f;" horiz-adv-x="596" 
d="M510 692q0 -60 -47 -96q-46 -37 -113 -37q-49 0 -77.5 22t-28.5 61q0 58 47 96q46 36 113 36q49 0 77.5 -21.5t28.5 -60.5zM428 689q0 43 -34 43q-29 0 -48 -26t-19 -62q0 -43 34 -43q28 0 47.5 26t19.5 62zM697 270l13 35q20 0 28 -5q3 -4 3 -10q0 -8 -3 -17l-7 -21
q-34 -99 -121 -184q-88 -85 -176 -85q-42 0 -64 19.5t-22 55.5q0 37 44 157l-5 2q-89 -230 -235 -230q-49 0 -79.5 27.5t-30.5 77.5q0 49 24 125q13 46 28 94q10 33 35 120q9 35 27 48t57 13q42 0 42 -29q0 -10 -12 -52l-7 -18q0 -1 -13 -37q-12 -34 -15 -45q-1 -3 -3 -8.5
t-5 -15t-6 -17.5q-2 -6 -14 -46q-23 -91 -21 -108q0 -46 39 -46q52 0 115 88q64 90 107 259l6 20q8 32 25 43.5t59 11.5q45 0 37 -38l-2 -9q-7 -30 -47 -165q-47 -162 -47 -190q0 -29 30 -29q50 0 118 65t98 144z" />
    <glyph glyph-name="Uhungarumlaut" unicode="&#x170;" horiz-adv-x="924" 
d="M613 825q-34 16 -34 40q0 19 36 63l21 26q43 49 61 76q31 -18 43.5 -33.5t12.5 -35.5q0 -27 -40 -61l-28 -21zM450 819q-36 15 -36 41q0 20 32 61l21 27q28 35 56 79q33 -18 46.5 -32t13.5 -34q0 -28 -38 -61l-26 -23q-14 -12 -29.5 -25t-25.5 -21t-14 -12zM1066 300
q4 -5 4 -10t-4 -17l-7 -21q-31 -88 -123 -153q-94 -65 -219 -65q-56 0 -101 12q-143 -122 -308 -122q-107 0 -170.5 52t-63.5 146q0 72 41 186q39 108 81 211q40 96 40 139q0 37 -38 37q-25 0 -76 -21q-53 -21 -64 -21q-12 0 -21.5 11t-9.5 25q0 17 21 24q31 12 98 24
q68 11 116 11q112 0 112 -89q0 -39 -38 -139q-39 -100 -78 -207t-39 -164q0 -73 40.5 -113.5t112.5 -40.5q100 0 182 78q-96 61 -96 210q0 121 50 253q49 128 131 216q81 86 163 86q55 0 85 -33.5t30 -98.5q0 -134 -65 -306q-64 -169 -176 -295q37 -14 77 -14q93 0 168 51
t104 128l13 35q21 0 28 -5zM776 695q0 46 -14.5 62.5t-38 -0.5t-48.5 -63q-38 -68 -68 -182q-29 -111 -29 -207q0 -101 40 -154q75 111 117 268q41 159 41 276z" />
    <glyph glyph-name="uhungarumlaut" unicode="&#x171;" horiz-adv-x="596" 
d="M237 600q0 22 34 65l21 28q17 21 60 82q64 -30 64 -69q0 -29 -41 -65l-27 -24q-70 -59 -73 -61q-38 17 -38 44zM410 600q0 20 38 66l22 28q50 59 65 79q59 -35 59 -72q0 -28 -43 -65l-29 -22q-15 -12 -33.5 -24.5t-28.5 -20t-14 -11.5q-36 16 -36 42zM697 270l13 35
q20 0 28 -5q3 -4 3 -10q0 -8 -3 -17l-7 -21q-34 -99 -121 -184q-88 -85 -176 -85q-42 0 -64 19.5t-22 55.5q0 37 44 157l-5 2q-89 -230 -235 -230q-49 0 -79.5 27.5t-30.5 77.5q0 49 24 125q13 46 28 94q10 33 35 120q9 35 27 48t57 13q42 0 42 -29q0 -10 -12 -52l-7 -18
q0 -1 -13 -37q-12 -34 -15 -45q-1 -3 -3 -8.5t-5 -15t-6 -17.5q-2 -6 -14 -46q-23 -91 -21 -108q0 -46 39 -46q52 0 115 88q64 90 107 259l6 20q8 32 25 43.5t59 11.5q45 0 37 -38l-2 -9q-7 -30 -47 -165q-47 -162 -47 -190q0 -29 30 -29q50 0 118 65t98 144z" />
    <glyph glyph-name="Uogonek" unicode="&#x172;" horiz-adv-x="924" 
d="M1066 300q4 -5 4 -10t-4 -17l-7 -21q-31 -88 -123 -153q-94 -65 -219 -65q-56 0 -101 12q-111 -93 -230 -115q-64 -57 -90 -90.5t-26 -58.5q0 -38 47 -38q22 0 50 11q8 -14 8 -24q0 -17 -29 -30.5t-67 -13.5q-47 0 -73 21t-26 57q0 81 151 160l-23 -1q-107 0 -170.5 52
t-63.5 146q0 72 41 186q39 108 81 211q40 96 40 139q0 37 -38 37q-25 0 -76 -21q-53 -21 -64 -21q-12 0 -21.5 11t-9.5 25q0 17 21 24q31 12 98 24q68 11 116 11q112 0 112 -89q0 -39 -38 -139q-39 -100 -78 -207t-39 -164q0 -73 40.5 -113.5t112.5 -40.5q100 0 182 78
q-96 61 -96 210q0 121 50 253q49 128 131 216q81 86 163 86q55 0 85 -33.5t30 -98.5q0 -134 -65 -306q-64 -169 -176 -295q37 -14 77 -14q93 0 168 51t104 128l13 35q21 0 28 -5zM776 695q0 46 -14.5 62.5t-38 -0.5t-48.5 -63q-38 -68 -68 -182q-29 -111 -29 -207
q0 -101 40 -154q75 111 117 268q41 159 41 276z" />
    <glyph glyph-name="uogonek" unicode="&#x173;" horiz-adv-x="596" 
d="M738 300q3 -4 3 -10q0 -8 -3 -17l-7 -21q-26 -78 -92 -154q-65 -74 -140 -103q-103 -93 -103 -132q0 -34 43 -34q21 0 46 9q7 -11 7 -22q0 -15 -26.5 -27.5t-61.5 -12.5q-42 0 -66 19.5t-24 51.5q0 67 120 136q-42 0 -64 19.5t-22 55.5q0 37 44 157l-5 2
q-89 -230 -235 -230q-49 0 -79.5 27.5t-30.5 77.5q0 49 24 125q13 46 28 94q10 33 35 120q9 35 27 48t57 13q42 0 42 -29q0 -10 -12 -52l-7 -18q0 -1 -13 -37q-12 -34 -15 -45q-1 -3 -3 -8.5t-5 -15t-6 -17.5q-2 -6 -14 -46q-23 -91 -21 -108q0 -46 39 -46q52 0 115 88
q64 90 107 259l6 20q8 32 25 43.5t59 11.5q45 0 37 -38l-2 -9q-7 -30 -47 -165q-47 -162 -47 -190q0 -29 30 -29q50 0 118 65t98 144l13 35q20 0 28 -5z" />
    <glyph glyph-name="Wcircumflex" unicode="&#x174;" horiz-adv-x="1137" 
d="M668 935l-106 -69q-24 -15 -39 -7.5t-18 25.5q0 13 26 37l104 98q31 27 58 27q29 0 49 -29l10 -15q30 -44 44 -66q6 -9 12 -18.5t9.5 -14.5t4.5 -7q-15 -30 -47 -30q-21 0 -62 32zM1279 300q4 -5 4 -10t-4 -17l-7 -21q-31 -92 -117 -163q-85 -70 -206 -70q-69 0 -118 24
q-143 -147 -267 -147q-122 0 -122 116q0 74 19 156q-59 -120 -121 -180t-140 -60q-53 0 -83 30.5t-30 87.5q0 76 68 300t68 287q0 47 -44 47q-30 0 -79 -20t-59 -20q-13 0 -21 11t-8 27q0 19 25 26q115 34 200 34q124 0 124 -98q0 -71 -70 -288q-71 -221 -71 -292
q0 -50 39 -50q38 0 97 74q55 69 119 211q71 515 191 515q38 0 38 -55q0 -62 -29 -176q-28 -111 -66 -202q-16 -69 -27 -164q-11 -101 -11 -166q0 -74 52 -74q63 0 150 113q-59 65 -59 182q0 115 40 245q40 132 111 229q70 97 148 97q49 0 75.5 -33.5t26.5 -95.5
q0 -150 -63 -311q-63 -162 -163 -288q39 -30 96 -30q85 0 154 54q67 54 99 135l13 35q23 0 28 -5zM823 296q0 -61 15 -109q63 110 104 248q40 135 40 266q0 70 -19 70q-34 0 -87 -176q-53 -177 -53 -299z" />
    <glyph glyph-name="wcircumflex" unicode="&#x175;" horiz-adv-x="820" 
d="M353 556q-9 0 -17.5 8.5t-8.5 16.5q0 11 23 34l102 95q27 24 52 24q27 0 45 -26l8 -12l67 -100q-14 -27 -43 -27q-18 0 -56 29l-44 35l-103 -68q-14 -9 -25 -9zM962 300q4 -4 4 -10q0 -8 -3 -17l-5 -13q-32 -92 -120 -156q-89 -64 -192 -64q-41 0 -74 14
q-95 -80 -178 -80q-88 0 -92 88q-73 -73 -145 -73q-91 0 -91 94q0 97 62 316l6 21q10 38 32.5 54.5t63.5 16.5q34 0 34 -29q0 -12 -21 -72q-21 -57 -43 -141q-22 -78 -22 -140q0 -41 30 -41q47 0 98 66q16 121 43 217l8 25q20 70 50.5 104t65.5 34t35 -35q0 -57 -84 -269
q-18 -85 -18 -118q0 -44 35 -44q39 0 89 41q-22 31 -22 87q0 62 25 136t72 132q47 57 99 57q32 0 50 -21.5t18 -61.5q0 -74 -39 -156q-42 -85 -103 -152q20 -12 49 -12q69 0 142 49q71 48 100 123l14 35q22 0 27 -5zM657 433q-16 0 -40 -86q-25 -85 -25 -151q0 -18 3 -31
q74 115 74 241q0 27 -12 27z" />
    <glyph glyph-name="Ycircumflex" unicode="&#x176;" horiz-adv-x="819" 
d="M529 936l-106 -69q-23 -15 -39 -7t-18 25q0 13 26 37l104 98q32 27 58 27q29 0 49 -29l10 -15q30 -44 44 -66q6 -9 12 -18.5t9.5 -14.5t4.5 -7q-15 -30 -47 -30q-21 0 -62 32zM961 300q4 -5 4 -10q0 -6 -4 -17l-7 -21q-83 -239 -261 -239q-43 0 -96 15
q-164 -524 -403 -524q-82 0 -129.5 51t-47.5 143q0 181 115 309q114 129 279 129q41 0 110 -12q28 111 73 318l-7 4q-36 -129 -117 -202q-83 -74 -181 -74q-64 0 -102.5 32.5t-38.5 90.5q0 50 29 129q23 64 58 146q28 66 28 93q0 44 -43 44q-27 0 -78 -20t-61 -20
q-13 0 -21.5 11.5t-8.5 27.5q0 18 24 26q105 30 199 30q67 0 94.5 -22.5t27.5 -71.5q0 -43 -56 -176q-57 -134 -57 -178q0 -30 18 -46.5t49 -16.5q83 0 153 111q61 99 102 301l20 98q13 72 104 72q42 0 42 -42q0 -17 -5 -39l-92 -423q-26 -118 -54 -221q58 -9 92 -9
q143 0 208 173l13 35q23 0 28 -5zM236 -420q31 0 56.5 17t58.5 62q71 99 152 400q-77 23 -115 23q-105 0 -168 -108q-64 -106 -64 -253q0 -70 21 -105.5t59 -35.5z" />
    <glyph glyph-name="ycircumflex" unicode="&#x177;" horiz-adv-x="583" 
d="M258 554q-9 0 -17.5 8.5t-8.5 16.5q0 11 23 34l102 95q27 24 52 24q27 0 45 -26l8 -12l67 -100q-13 -27 -43 -27q-18 0 -56 29l-44 35l-103 -68q-14 -9 -25 -9zM797 -82q11 -24 11 -51q0 -32 -23.5 -51t-62.5 -19q-55 0 -174 40q-135 45 -139 46q-51 -179 -134 -270
t-185 -91q-66 0 -105 36t-39 100q0 102 98 190q101 92 275 97q40 137 86 270l-5 2q-88 -231 -225 -231q-51 0 -82.5 27t-31.5 75q0 47 43 199q23 81 36 139q9 39 27 52t58 13q42 0 42 -27q0 -14 -44 -158t-44 -191q0 -46 39 -46q54 0 113.5 91t102.5 258l4 16q9 35 27 48
t59 13q25 0 34 -9t4 -30l-3 -17q-1 -7 -9 -33q-2 -7 -6 -21.5t-10.5 -39t-12.5 -47.5q-33 -121 -54 -200l-42 -158q8 -1 124 -15q114 -14 169 -14q33 0 79 7zM128 -410q46 0 88 65q40 64 87 232l2 9q-101 -5 -170 -75q-70 -70 -70 -153q0 -38 17 -58t46 -20z" />
    <glyph glyph-name="Ydieresis" unicode="&#x178;" horiz-adv-x="819" 
d="M621 871q-51 0 -51 42q0 37 32 71q32 32 74 32q34 0 34 -27q0 -19 -16 -58q-18 -46 -19 -52q-32 -8 -54 -8zM414 848q-51 0 -51 42q0 39 31 71q32 32 74 32q35 0 35 -27q0 -15 -17 -60q-4 -11 -9 -24t-7.5 -18.5t-2.5 -7.5q-30 -8 -53 -8zM961 300q4 -5 4 -10
q0 -6 -4 -17l-7 -21q-83 -239 -261 -239q-43 0 -96 15q-164 -524 -403 -524q-82 0 -129.5 51t-47.5 143q0 181 115 309q114 129 279 129q41 0 110 -12q28 111 73 318l-7 4q-36 -129 -117 -202q-83 -74 -181 -74q-64 0 -102.5 32.5t-38.5 90.5q0 50 29 129q23 64 58 146
q28 66 28 93q0 44 -43 44q-27 0 -78 -20t-61 -20q-13 0 -21.5 11.5t-8.5 27.5q0 18 24 26q105 30 199 30q67 0 94.5 -22.5t27.5 -71.5q0 -43 -56 -176q-57 -134 -57 -178q0 -30 18 -46.5t49 -16.5q83 0 153 111q61 99 102 301l20 98q13 72 104 72q42 0 42 -42q0 -17 -5 -39
l-92 -423q-26 -118 -54 -221q58 -9 92 -9q143 0 208 173l13 35q23 0 28 -5zM236 -420q31 0 56.5 17t58.5 62q71 99 152 400q-77 23 -115 23q-105 0 -168 -108q-64 -106 -64 -253q0 -70 21 -105.5t59 -35.5z" />
    <glyph glyph-name="Zacute" unicode="&#x179;" horiz-adv-x="688" 
d="M479 938q0 32 42 63l43 28q41 27 88 67q42 -40 42 -79q0 -45 -54 -68l-39 -17q-17 -7 -41 -17t-37 -15t-18 -9q-26 24 -26 47zM634 724q9 16 14 54q5 35 12 56q8 21 32 21q25 0 48 -17.5t23 -38.5q0 -37 -38 -76q-2 -3 -11.5 -13t-18 -20t-15.5 -17q-9 -9 -35 -37
t-35 -37l-406 -434l2 -4q29 3 78 -20q46 -23 90 -51q43 -29 95 -53q51 -25 91 -25q68 0 122.5 59.5t106.5 198.5l14 35q22 0 27 -5q4 -4 4 -10q0 -8 -3 -17l-5 -16q-61 -190 -139.5 -290t-168.5 -100q-33 0 -65 14t-61.5 41.5t-50.5 51.5t-46 57q-69 89 -103 89
q-13 0 -21 -14q-3 -9 -3 -24q0 -5 1.5 -26t1.5 -27q0 -55 -42 -55q-30 0 -54 18.5t-24 42.5q0 41 70 124q69 82 332 359l151 159l-3 3q-24 -2 -29 -2q-56 0 -155 31t-130 31q-59 0 -59 -83q0 -24 -29 -24q-24 0 -42 32t-18 88q0 58 31 96t79 38q39 0 92 -25q54 -26 98 -57
q42 -29 100 -56q53 -25 95 -25z" />
    <glyph glyph-name="zacute" unicode="&#x17a;" horiz-adv-x="461" 
d="M345 580q-59 41 8 100l37 29q34 27 76 66q43 -36 43 -73q0 -39 -46 -61l-35 -18q-17 -9 -36.5 -18.5t-30.5 -15.5t-16 -9zM623 -65q34 -10 34 -38q0 -58 -46 -116q-47 -59 -117 -59t-135 69q-65 68 -181 271q-14 26 -27 26q-12 0 -16 -19.5t-3.5 -42.5t-8 -42.5
t-27.5 -19.5q-23 0 -40 13t-17 32q0 22 22 48q26 31 120 131q110 116 188 200l-2 3q-20 2 -75 23q-57 22 -87 22q-36 0 -36 -58q0 -14 -5.5 -19t-19.5 -5q-16 0 -29.5 26t-13.5 63q0 54 23.5 85t65.5 31q27 2 72.5 -29.5t86 -63.5t56.5 -31q9 11 17 38.5t17.5 45t27.5 14.5
q21 0 37.5 -12t16.5 -29q4 -13 -28 -47q-4 -4 -21.5 -20.5t-22.5 -21.5l-10 -11q-23 -22 -244 -260l1 -2q120 -150 198 -210t132 -60q52 0 97 75z" />
    <glyph glyph-name="Zdotaccent" unicode="&#x17b;" horiz-adv-x="688" 
d="M563 902q-31 -9 -63 -9q-29 0 -45 13t-16 35q0 42 34 76q33 34 81 34q45 0 45 -35q0 -16 -17 -61q-18 -48 -19 -53zM634 724q9 16 14 54q5 35 12 56q8 21 32 21q25 0 48 -17.5t23 -38.5q0 -37 -38 -76q-2 -3 -11.5 -13t-18 -20t-15.5 -17q-9 -9 -35 -37t-35 -37
l-406 -434l2 -4q29 3 78 -20q46 -23 90 -51q43 -29 95 -53q51 -25 91 -25q68 0 122.5 59.5t106.5 198.5l14 35q22 0 27 -5q4 -4 4 -10q0 -8 -3 -17l-5 -16q-61 -190 -139.5 -290t-168.5 -100q-33 0 -65 14t-61.5 41.5t-50.5 51.5t-46 57q-69 89 -103 89q-13 0 -21 -14
q-3 -9 -3 -24q0 -5 1.5 -26t1.5 -27q0 -55 -42 -55q-30 0 -54 18.5t-24 42.5q0 41 70 124q69 82 332 359l151 159l-3 3q-24 -2 -29 -2q-56 0 -155 31t-130 31q-59 0 -59 -83q0 -24 -29 -24q-24 0 -42 32t-18 88q0 58 31 96t79 38q39 0 92 -25q54 -26 98 -57q42 -29 100 -56
q53 -25 95 -25z" />
    <glyph glyph-name="zdotaccent" unicode="&#x17c;" horiz-adv-x="461" 
d="M399 607q-34 -8 -59 -8q-58 0 -58 47q0 39 32 71t76 32t44 -34q0 -19 -16 -58q-18 -44 -19 -50zM623 -65q34 -10 34 -38q0 -58 -46 -116q-47 -59 -117 -59t-135 69q-65 68 -181 271q-14 26 -27 26q-12 0 -16 -19.5t-3.5 -42.5t-8 -42.5t-27.5 -19.5q-23 0 -40 13t-17 32
q0 22 22 48q26 31 120 131q110 116 188 200l-2 3q-20 2 -75 23q-57 22 -87 22q-36 0 -36 -58q0 -14 -5.5 -19t-19.5 -5q-16 0 -29.5 26t-13.5 63q0 54 23.5 85t65.5 31q27 2 72.5 -29.5t86 -63.5t56.5 -31q9 11 17 38.5t17.5 45t27.5 14.5q21 0 37.5 -12t16.5 -29
q4 -13 -28 -47q-4 -4 -21.5 -20.5t-22.5 -21.5l-10 -11q-23 -22 -244 -260l1 -2q120 -150 198 -210t132 -60q52 0 97 75z" />
    <glyph glyph-name="Zcaron" unicode="&#x17d;" horiz-adv-x="688" 
d="M526 884q-23 0 -45 20q-22 21 -65 87l-4 6q-10 16 -10 27q0 12 15 25.5t29 13.5t46 -31l50 -46q96 69 124 93q30 -12 30 -36q0 -17 -20 -40l-21 -22q-48 -54 -77 -75.5t-52 -21.5zM634 724q9 16 14 54q5 35 12 56q8 21 32 21q25 0 48 -17.5t23 -38.5q0 -37 -38 -76
q-2 -3 -11.5 -13t-18 -20t-15.5 -17q-9 -9 -35 -37t-35 -37l-406 -434l2 -4q29 3 78 -20q46 -23 90 -51q43 -29 95 -53q51 -25 91 -25q68 0 122.5 59.5t106.5 198.5l14 35q22 0 27 -5q4 -4 4 -10q0 -8 -3 -17l-5 -16q-61 -190 -139.5 -290t-168.5 -100q-33 0 -65 14
t-61.5 41.5t-50.5 51.5t-46 57q-69 89 -103 89q-13 0 -21 -14q-3 -9 -3 -24q0 -5 1.5 -26t1.5 -27q0 -55 -42 -55q-30 0 -54 18.5t-24 42.5q0 41 70 124q69 82 332 359l151 159l-3 3q-24 -2 -29 -2q-56 0 -155 31t-130 31q-59 0 -59 -83q0 -24 -29 -24q-24 0 -42 32t-18 88
q0 58 31 96t79 38q39 0 92 -25q54 -26 98 -57q42 -29 100 -56q53 -25 95 -25z" />
    <glyph glyph-name="zcaron" unicode="&#x17e;" horiz-adv-x="461" 
d="M346 582q-22 0 -43 21q-21 18 -64 86l-4 7q-8 11 -8 22q0 12 14 24t27 12q12 0 41 -27l51 -51q78 56 113 87q27 -12 27 -33q0 -15 -18 -36l-19 -20q-48 -53 -72.5 -72.5t-44.5 -19.5zM623 -65q34 -10 34 -38q0 -58 -46 -116q-47 -59 -117 -59t-135 69q-65 68 -181 271
q-14 26 -27 26q-12 0 -16 -19.5t-3.5 -42.5t-8 -42.5t-27.5 -19.5q-23 0 -40 13t-17 32q0 22 22 48q26 31 120 131q110 116 188 200l-2 3q-20 2 -75 23q-57 22 -87 22q-36 0 -36 -58q0 -14 -5.5 -19t-19.5 -5q-16 0 -29.5 26t-13.5 63q0 54 23.5 85t65.5 31q27 2 72.5 -29.5
t86 -63.5t56.5 -31q9 11 17 38.5t17.5 45t27.5 14.5q21 0 37.5 -12t16.5 -29q4 -13 -28 -47q-4 -4 -21.5 -20.5t-22.5 -21.5l-10 -11q-23 -22 -244 -260l1 -2q120 -150 198 -210t132 -60q52 0 97 75z" />
    <glyph glyph-name="Ohorn" unicode="&#x1a0;" horiz-adv-x="1077" 
d="M1178 270l14 35q31 1 31 -16q0 -5 -3 -16l-8 -21q-50 -142 -178 -227q-130 -87 -326 -88q-121 -85 -262 -85q-164 0 -259 92q-95 93 -95 261q0 95 27 186q27 90 65 153q38 60 73.5 97t56.5 37q7 0 15 -6t8 -12q0 -3 -7 -19t-22 -47.5t-25 -54.5q-22 -49 -38 -124
q-17 -82 -17 -160q0 -156 74 -245q73 -89 188 -89q56 0 110 26q-133 26 -205 118t-72 233q0 144 56 270q55 123 148 196q92 71 193 71q114 0 182 -75q51 41 55 70q4 34 -38 40q-17 3 -46 -4q-5 16 -4 23q2 16 30 24t62 3q42 -6 63 -28t16 -54q-11 -61 -112 -107
q54 -85 54 -226q0 -142 -50 -270.5t-140 -222.5q142 10 242 78t144 184zM447 356q0 -148 63.5 -236.5t175.5 -107.5q68 73 108 193q38 120 38 254q0 145 -42.5 227.5t-112.5 82.5q-86 0 -158 -123q-72 -124 -72 -290z" />
    <glyph glyph-name="ohorn" unicode="&#x1a1;" horiz-adv-x="607" 
d="M749 300q4 -5 4 -10q0 -6 -4 -17l-7 -21q-29 -85 -113 -141q-86 -58 -204 -59q-86 -76 -193 -76q-86 0 -137 45.5t-51 122.5q0 120 84 222q85 103 190 137q15 5 27 5q11 0 19 -7t8 -15q0 -9 -22 -22q-71 -41 -125 -129q-55 -88 -55 -171q0 -59 26 -90.5t70 -31.5
q34 0 69 24q-86 35 -86 136q0 89 67 175q68 86 139 86q51 0 79 -39q55 43 59 73q4 34 -38 40q-17 3 -46 -4q-5 16 -4 23q2 16 30 24t62 3q42 -6 63 -28t16 -54q-11 -65 -125 -113q6 -21 6 -48q0 -125 -78 -229q83 8 144 50t85 109l13 35q23 0 28 -5zM408 390q-26 0 -52 -53
q-27 -54 -27 -111q0 -79 56 -106q55 85 55 199q0 71 -32 71z" />
    <glyph glyph-name="Uhorn" unicode="&#x1af;" horiz-adv-x="924" 
d="M1066 300q4 -5 4 -10t-4 -17l-7 -21q-31 -88 -123 -153q-94 -65 -219 -65q-56 0 -101 12q-143 -122 -308 -122q-107 0 -170.5 52t-63.5 146q0 72 41 186q39 108 81 211q40 96 40 139q0 37 -38 37q-25 0 -76 -21q-53 -21 -64 -21q-12 0 -21.5 11t-9.5 25q0 17 21 24
q31 12 98 24q68 11 116 11q112 0 112 -89q0 -39 -38 -139q-39 -100 -78 -207t-39 -164q0 -73 40.5 -113.5t112.5 -40.5q100 0 182 78q-96 61 -96 210q0 121 50 253q49 128 131 216q81 86 163 86q83 0 107 -72q44 37 48 64q4 34 -38 40q-17 3 -46 -4q-5 16 -4 23q2 16 30 24
t62 3q42 -6 63 -28t16 -54q-11 -64 -124 -112q1 -5 1 -16q0 -134 -65 -306q-64 -169 -176 -295q37 -14 77 -14q93 0 168 51t104 128l13 35q21 0 28 -5zM776 695q0 46 -14.5 62.5t-38 -0.5t-48.5 -63q-38 -68 -68 -182q-29 -111 -29 -207q0 -101 40 -154q75 111 117 268
q41 159 41 276z" />
    <glyph glyph-name="uhorn" unicode="&#x1b0;" horiz-adv-x="596" 
d="M697 270l13 35q20 0 28 -5q3 -4 3 -10q0 -8 -3 -17l-7 -21q-34 -99 -121 -184q-88 -85 -176 -85q-42 0 -64 19.5t-22 55.5q0 37 44 157l-5 2q-89 -230 -235 -230q-49 0 -79.5 27.5t-30.5 77.5q0 49 24 125q13 46 28 94q10 33 35 120q9 35 27 48t57 13q42 0 42 -29
q0 -10 -12 -52l-7 -18q0 -1 -13 -37q-12 -34 -15 -45q-1 -3 -3 -8.5t-5 -15t-6 -17.5q-2 -6 -14 -46q-23 -91 -21 -108q0 -46 39 -46q52 0 115 88q64 90 107 259l6 20q8 32 25 43.5t59 11.5q45 0 37 -38l-2 -9q0 -1 -7 -24q59 45 63 76q4 34 -38 40q-17 3 -46 -4
q-5 16 -4 23q2 16 30 24t62 3q42 -6 63 -28t16 -54q-12 -73 -158 -126q-3 -11 -12.5 -42.5t-15.5 -52.5q-47 -162 -47 -190q0 -29 30 -29q50 0 118 65t98 144z" />
    <glyph glyph-name="Scommaaccent" unicode="&#x218;" horiz-adv-x="787" 
d="M275 274q-73 -94 -73 -184q0 -65 47 -106.5t120 -41.5q84 0 139 52q55 54 55 134q0 20 -5 39.5t-17 40.5t-22 36.5t-30.5 38t-31 34t-35.5 36t-33 32.5q-96 96 -96 192q0 117 96 194q94 76 234 76q98 0 150.5 -38.5t52.5 -104.5q0 -57 -44 -116t-79 -59q-15 0 -28 8
t-13 19q0 8 19 50q19 41 19 80q0 44 -28 68.5t-80 24.5q-68 0 -114 -46q-47 -47 -47 -117q0 -18 5 -37t17.5 -40.5t22 -36t32 -39t31.5 -35t37 -38.5l34 -34q97 -101 97 -193q0 -121 -104 -204q-104 -82 -263 -82q-128 0 -201 55q-74 56 -74 145t55 154q56 65 104 64
q32 0 51 -21zM339 -210q44 0 44 -29q0 -13 -13 -33.5t-27 -37.5t-44 -51q-35 -38 -51 -65q-27 -3 -44 7.5t-17 30.5q0 26 30 84l15 26q21 39 44 53.5t63 14.5z" />
    <glyph glyph-name="scommaaccent" unicode="&#x219;" horiz-adv-x="433" 
d="M575 300q4 -4 4 -10q0 -9 -4 -17l-7 -21q-15 -44 -61 -69t-125 -40q3 -14 3 -25q0 -70 -55 -113q-55 -45 -140 -45q-54 0 -86.5 23t-32.5 59q0 51 43.5 77.5t135.5 42.5q-15 33 -40 83q-32 63 -46 111q-4 -28 -25 -93l-6 -17q-5 -11 -13 -11t-14 3q-12 3 -12 11q0 4 3 10
l5 13q12 31 26 119l2 16q6 48 34 75t72 27q32 0 32 -24q0 -10 -21 -23q-21 -15 -21 -31q0 -28 63 -118q64 -96 80 -131q142 25 165 88l14 36q21 0 27 -6zM266 84q0 22 -4 37q-54 -10 -79.5 -25.5t-25.5 -41.5q0 -20 13.5 -31.5t35.5 -11.5q29 0 44.5 20t15.5 53zM188 -103
q39 0 39 -26q0 -27 -74 -108q-32 -35 -45 -58q-24 -2 -39.5 7t-15.5 27q0 20 27 74l13 23q18 35 38 48t57 13z" />
    <glyph glyph-name="uni021A" unicode="&#x21a;" horiz-adv-x="592" 
d="M501 720l-146 -598q-17 -73 -17 -106q0 -49 50 -49q75 0 166 88t139 215l13 35q23 0 28 -5q3 -4 3 -10q0 -8 -3 -17l-7 -21q-53 -150 -162 -255q-111 -105 -236 -105q-66 0 -100.5 27t-34.5 78q0 58 27 163l139 529q-168 -147 -308 -147q-71 0 -115 34t-44 90
q0 78 77.5 126.5t212.5 48.5q59 0 270 -20q209 -20 267 -20q71 0 98 7q12 -30 12 -54q0 -36 -25.5 -55.5t-70.5 -19.5q-74 0 -233 41zM18 694q0 -31 24 -49.5t65 -18.5q55 0 126 33t143 92q-137 34 -219 34q-67 0 -103 -25.5t-36 -65.5zM267 -176q44 0 44 -29
q0 -13 -13 -33.5t-27 -37.5t-44 -51q-35 -38 -51 -65q-27 -3 -44 7.5t-17 30.5q0 26 30 84l15 26q21 39 44 53.5t63 14.5z" />
    <glyph glyph-name="uni021B" unicode="&#x21b;" horiz-adv-x="334" 
d="M476 300q4 -5 4 -10t-4 -17l-7 -21q-34 -103 -129 -184q-94 -82 -200 -82q-42 0 -65.5 19.5t-23.5 57.5q0 28 11 74l80 297q-12 1 -54 1l-2 18q0 35 36 35h35l20 74q9 37 25.5 50.5t54.5 13.5q22 0 31 -6t9 -21q0 -8 -3 -22l-25 -90q47 1 87 7q4 -12 4 -28q0 -39 -41 -39
q-8 0 -34 0.5t-32 0.5l-74 -266q-13 -48 -13 -69q0 -29 30 -29q61 0 135 62q72 60 104 144l13 35q23 0 28 -5zM110 -78q39 0 39 -26q0 -27 -74 -108q-32 -35 -45 -58q-24 -2 -39.5 7t-15.5 27q0 20 27 74l13 23q18 35 38 48t57 13z" />
    <glyph glyph-name="circumflex" unicode="&#x2c6;" horiz-adv-x="378" 
d="M274 596l-44 35l-103 -68q-14 -9 -25 -9q-10 0 -18.5 8.5t-8.5 16.5q0 11 24 34l102 95q27 24 52 24q27 0 45 -26l8 -12l67 -100q-13 -27 -43 -27q-18 0 -56 29z" />
    <glyph glyph-name="caron" unicode="&#x2c7;" horiz-adv-x="356" 
d="M207 555q-22 0 -43 21q-21 18 -64 86l-4 7q-8 11 -8 22q0 12 14 24t27 12t41 -27l51 -51q78 56 113 87q27 -12 27 -33q0 -15 -18 -36l-19 -20q-48 -53 -72.5 -72.5t-44.5 -19.5z" />
    <glyph glyph-name="breve" unicode="&#x2d8;" horiz-adv-x="353" 
d="M160 714q4 -30 20.5 -47.5t40.5 -17.5q65 0 108 91q21 -2 29 -9t8 -25q0 -44 -45 -92q-45 -49 -116 -49q-44 0 -73.5 26.5t-29.5 67.5q0 27 16.5 42.5t41.5 12.5z" />
    <glyph glyph-name="dotaccent" unicode="&#x2d9;" horiz-adv-x="236" 
d="M219 571q-34 -8 -59 -8q-58 0 -58 47q0 39 32 71t76 32t44 -34q0 -19 -16 -58q-18 -44 -19 -50z" />
    <glyph glyph-name="ring" unicode="&#x2da;" horiz-adv-x="351" 
d="M361 692q0 -60 -47 -96q-46 -37 -113 -37q-49 0 -77.5 22t-28.5 61q0 58 47 96q47 36 113 36q49 0 77.5 -21.5t28.5 -60.5zM279 689q0 43 -34 43q-29 0 -48 -26t-19 -62q0 -43 34 -43q28 0 47.5 26t19.5 62z" />
    <glyph glyph-name="ogonek" unicode="&#x2db;" horiz-adv-x="298" 
d="M194 10h38q-108 -97 -108 -137q0 -34 43 -34q21 0 46 9q7 -11 7 -22q0 -15 -26.5 -27.5t-61.5 -12.5q-42 0 -66 19.5t-24 51.5q0 76 152 153z" />
    <glyph glyph-name="tilde" unicode="&#x2dc;" horiz-adv-x="372" 
d="M170 611q-32 0 -41 -42q-22 -1 -32 8.5t-10 35.5q0 36 21.5 60t56.5 24q27 0 70 -15q42 -15 56 -15q18 0 27.5 10t14.5 32q24 2 34 -7t10 -35q0 -38 -22 -62t-56 -24q-28 0 -70 15t-59 15z" />
    <glyph glyph-name="hungarumlaut" unicode="&#x2dd;" horiz-adv-x="428" 
d="M85 600q0 22 34 65l21 28q17 21 60 82q64 -30 64 -69q0 -29 -41 -65l-28 -24q-13 -11 -30.5 -26t-27.5 -23t-14 -12q-38 17 -38 44zM258 600q0 20 38 66l22 28q41 46 64 79q60 -33 60 -72q0 -28 -43 -65l-29 -22q-15 -12 -33.5 -24.5t-28.5 -20t-14 -11.5q-36 16 -36 42z
" />
    <glyph glyph-name="uni0326" unicode="&#x326;" horiz-adv-x="0" 
d="M192 -59q39 0 39 -26q0 -27 -74 -108q-32 -35 -45 -58q-24 -2 -39.5 7t-15.5 27q0 20 27 74l13 23q18 35 38 48t57 13z" />
    <glyph glyph-name="Wgrave" unicode="&#x1e80;" horiz-adv-x="1137" 
d="M596 892l-37 30q-74 62 -90 73q42 58 89 58q33 0 64 -43l23 -28q7 -8 37 -49q22 -30 29 -37q-19 -37 -56 -37q-26 0 -59 33zM1279 300q4 -5 4 -10t-4 -17l-7 -21q-31 -92 -117 -163q-85 -70 -206 -70q-69 0 -118 24q-143 -147 -267 -147q-122 0 -122 116q0 74 19 156
q-59 -120 -121 -180t-140 -60q-53 0 -83 30.5t-30 87.5q0 76 68 300t68 287q0 47 -44 47q-30 0 -79 -20t-59 -20q-13 0 -21 11t-8 27q0 19 25 26q115 34 200 34q124 0 124 -98q0 -71 -70 -288q-71 -221 -71 -292q0 -50 39 -50q38 0 97 74q55 69 119 211q71 515 191 515
q38 0 38 -55q0 -62 -29 -176q-28 -111 -66 -202q-16 -69 -27 -164q-11 -101 -11 -166q0 -74 52 -74q63 0 150 113q-59 65 -59 182q0 115 40 245q40 132 111 229q70 97 148 97q49 0 75.5 -33.5t26.5 -95.5q0 -150 -63 -311q-63 -162 -163 -288q39 -30 96 -30q85 0 154 54
q67 54 99 135l13 35q23 0 28 -5zM823 296q0 -61 15 -109q63 110 104 248q40 135 40 266q0 70 -19 70q-34 0 -87 -176q-53 -177 -53 -299z" />
    <glyph glyph-name="wgrave" unicode="&#x1e81;" horiz-adv-x="820" 
d="M416 597l-28 34q-23 29 -68 81q41 41 79 40t61 -47l16 -29q8 -15 18.5 -36t17.5 -34.5t10 -17.5q-22 -27 -47 -27q-29 0 -59 36zM962 300q4 -4 4 -10q0 -8 -3 -17l-5 -13q-32 -92 -120 -156q-89 -64 -192 -64q-41 0 -74 14q-95 -80 -178 -80q-88 0 -92 88
q-73 -73 -145 -73q-91 0 -91 94q0 97 62 316l6 21q10 38 32.5 54.5t63.5 16.5q34 0 34 -29q0 -12 -21 -72q-21 -57 -43 -141q-22 -78 -22 -140q0 -41 30 -41q47 0 98 66q16 121 43 217l8 25q20 70 50.5 104t65.5 34t35 -35q0 -57 -84 -269q-18 -85 -18 -118q0 -44 35 -44
q39 0 89 41q-22 31 -22 87q0 62 25 136t72 132q47 57 99 57q32 0 50 -21.5t18 -61.5q0 -74 -39 -156q-42 -85 -103 -152q20 -12 49 -12q69 0 142 49q71 48 100 123l14 35q22 0 27 -5zM657 433q-16 0 -40 -86q-25 -85 -25 -151q0 -18 3 -31q74 115 74 241q0 27 -12 27z" />
    <glyph glyph-name="Wacute" unicode="&#x1e82;" horiz-adv-x="1137" 
d="M639 865q-26 24 -26 47q0 32 42 63l43 28q41 27 88 67q42 -40 42 -79q0 -45 -54 -68l-39 -17q-17 -7 -41 -17t-37 -15t-18 -9zM1279 300q4 -5 4 -10t-4 -17l-7 -21q-31 -92 -117 -163q-85 -70 -206 -70q-69 0 -118 24q-143 -147 -267 -147q-122 0 -122 116q0 74 19 156
q-59 -120 -121 -180t-140 -60q-53 0 -83 30.5t-30 87.5q0 76 68 300t68 287q0 47 -44 47q-30 0 -79 -20t-59 -20q-13 0 -21 11t-8 27q0 19 25 26q115 34 200 34q124 0 124 -98q0 -71 -70 -288q-71 -221 -71 -292q0 -50 39 -50q38 0 97 74q55 69 119 211q71 515 191 515
q38 0 38 -55q0 -62 -29 -176q-28 -111 -66 -202q-16 -69 -27 -164q-11 -101 -11 -166q0 -74 52 -74q63 0 150 113q-59 65 -59 182q0 115 40 245q40 132 111 229q70 97 148 97q49 0 75.5 -33.5t26.5 -95.5q0 -150 -63 -311q-63 -162 -163 -288q39 -30 96 -30q85 0 154 54
q67 54 99 135l13 35q23 0 28 -5zM823 296q0 -61 15 -109q63 110 104 248q40 135 40 266q0 70 -19 70q-34 0 -87 -176q-53 -177 -53 -299z" />
    <glyph glyph-name="wacute" unicode="&#x1e83;" horiz-adv-x="820" 
d="M454 567q-59 41 8 100l37 29q34 27 76 66q43 -36 43 -73q0 -39 -46 -61l-35 -18q-17 -9 -36.5 -18.5t-30.5 -15.5t-16 -9zM962 300q4 -4 4 -10q0 -8 -3 -17l-5 -13q-32 -92 -120 -156q-89 -64 -192 -64q-41 0 -74 14q-95 -80 -178 -80q-88 0 -92 88q-73 -73 -145 -73
q-91 0 -91 94q0 97 62 316l6 21q10 38 32.5 54.5t63.5 16.5q34 0 34 -29q0 -12 -21 -72q-21 -57 -43 -141q-22 -78 -22 -140q0 -41 30 -41q47 0 98 66q16 121 43 217l8 25q20 70 50.5 104t65.5 34t35 -35q0 -57 -84 -269q-18 -85 -18 -118q0 -44 35 -44q39 0 89 41
q-22 31 -22 87q0 62 25 136t72 132q47 57 99 57q32 0 50 -21.5t18 -61.5q0 -74 -39 -156q-42 -85 -103 -152q20 -12 49 -12q69 0 142 49q71 48 100 123l14 35q22 0 27 -5zM657 433q-16 0 -40 -86q-25 -85 -25 -151q0 -18 3 -31q74 115 74 241q0 27 -12 27z" />
    <glyph glyph-name="Wdieresis" unicode="&#x1e84;" horiz-adv-x="1137" 
d="M752 871q-51 0 -51 42q0 37 32 71q32 32 74 32q34 0 34 -27q0 -19 -16 -58q-18 -46 -19 -52q-32 -8 -54 -8zM545 848q-51 0 -51 42q0 39 31 71q32 32 74 32q35 0 35 -27q0 -15 -17 -60q-4 -11 -9 -24t-7.5 -18.5t-2.5 -7.5q-30 -8 -53 -8zM1279 300q4 -5 4 -10t-4 -17
l-7 -21q-31 -92 -117 -163q-85 -70 -206 -70q-69 0 -118 24q-143 -147 -267 -147q-122 0 -122 116q0 74 19 156q-59 -120 -121 -180t-140 -60q-53 0 -83 30.5t-30 87.5q0 76 68 300t68 287q0 47 -44 47q-30 0 -79 -20t-59 -20q-13 0 -21 11t-8 27q0 19 25 26q115 34 200 34
q124 0 124 -98q0 -71 -70 -288q-71 -221 -71 -292q0 -50 39 -50q38 0 97 74q55 69 119 211q71 515 191 515q38 0 38 -55q0 -62 -29 -176q-28 -111 -66 -202q-16 -69 -27 -164q-11 -101 -11 -166q0 -74 52 -74q63 0 150 113q-59 65 -59 182q0 115 40 245q40 132 111 229
q70 97 148 97q49 0 75.5 -33.5t26.5 -95.5q0 -150 -63 -311q-63 -162 -163 -288q39 -30 96 -30q85 0 154 54q67 54 99 135l13 35q23 0 28 -5zM823 296q0 -61 15 -109q63 110 104 248q40 135 40 266q0 70 -19 70q-34 0 -87 -176q-53 -177 -53 -299z" />
    <glyph glyph-name="wdieresis" unicode="&#x1e85;" horiz-adv-x="820" 
d="M567 574q-51 0 -51 43q0 36 32 70q32 33 74 33q34 0 34 -27q0 -18 -16 -59q-18 -46 -19 -52q-43 -8 -54 -8zM428 570q-46 -13 -75.5 -4.5t-29.5 38.5q0 37 32 71q31 33 74 33q34 0 34 -28q0 -17 -16 -58q-18 -49 -19 -52zM962 300q4 -4 4 -10q0 -8 -3 -17l-5 -13
q-32 -92 -120 -156q-89 -64 -192 -64q-41 0 -74 14q-95 -80 -178 -80q-88 0 -92 88q-73 -73 -145 -73q-91 0 -91 94q0 97 62 316l6 21q10 38 32.5 54.5t63.5 16.5q34 0 34 -29q0 -12 -21 -72q-21 -57 -43 -141q-22 -78 -22 -140q0 -41 30 -41q47 0 98 66q16 121 43 217l8 25
q20 70 50.5 104t65.5 34t35 -35q0 -57 -84 -269q-18 -85 -18 -118q0 -44 35 -44q39 0 89 41q-22 31 -22 87q0 62 25 136t72 132q47 57 99 57q32 0 50 -21.5t18 -61.5q0 -74 -39 -156q-42 -85 -103 -152q20 -12 49 -12q69 0 142 49q71 48 100 123l14 35q22 0 27 -5zM657 433
q-16 0 -40 -86q-25 -85 -25 -151q0 -18 3 -31q74 115 74 241q0 27 -12 27z" />
    <glyph glyph-name="uni1EA0" unicode="&#x1ea0;" horiz-adv-x="1060" 
d="M647 -239q-25 -8 -54 -8q-49 0 -49 41q0 37 29 65q28 29 70 29q37 0 37 -28q0 -15 -15 -54q-17 -39 -18 -45zM1202 300q3 -4 3 -10q0 -8 -3 -17l-7 -21q-35 -98 -121 -183q-89 -86 -192 -86q-116 0 -116 99q0 24 9 61q-4 1 -139 20q-90 -133 -179 -192.5t-187 -59.5
q-76 0 -129 36q-52 37 -52 100q0 88 92 138t247 50q57 0 187 -8q143 209 260 521l6 17q17 47 88 47q55 0 55 -32q0 -8 -8 -48l-102 -516q7 0 22 2t18 2q4 -13 4 -29q0 -51 -60 -55q-3 -20 -3 -31q0 -38 41 -38q58 0 128 64q69 63 97 139l13 35q23 0 28 -5zM674 223
q56 -5 117 -6l4 15l87 414l-4 1q-103 -257 -204 -424zM337 1q107 0 239 172q-109 15 -170 15q-72 0 -117 -30t-45 -80q0 -34 25 -55.5t68 -21.5z" />
    <glyph glyph-name="uni1EA1" unicode="&#x1ea1;" 
d="M233 -173q-22 -7 -46 -7q-43 0 -43 35q0 32 25 57t61 25q32 0 32 -24q0 -15 -13 -47q-13 -30 -16 -39zM716 300q4 -4 4 -10q0 -8 -3 -17l-8 -21q-35 -101 -122 -181q-88 -82 -171 -82q-41 0 -63 19t-22 52q0 44 41 155l-6 2q-45 -119 -96 -173.5t-117 -54.5
q-54 0 -86 35.5t-32 99.5q0 87 44 168t123 135q80 55 178 55q22 0 41 -3q17 35 75 35q24 0 33 -6t9 -21q0 -19 -51 -188q-52 -168 -52 -203q0 -29 25 -29q50 0 118 60q65 59 97 143l14 35q20 0 27 -5zM202 72q44 0 97 81q52 78 91 216l18 66q-5 1 -23 1q-49 0 -94.5 -26.5
t-75.5 -70.5q-62 -91 -62 -191q0 -76 49 -76z" />
    <glyph glyph-name="uni1EA2" unicode="&#x1ea2;" horiz-adv-x="1060" 
d="M1129 1015q-4 -28 -26.5 -49.5t-61.5 -47.5l-16 -11h1q-9 -6 -12.5 -9t-6 -8t-3 -7t-1 -10.5t-1.5 -15.5q-22 -3 -27 -3q-28 2 -25 28q2 17 10.5 29t32.5 33q44 39 49 71q1 15 -7 25t-21 11q-48 2 -51 -35q-2 -28 2 -41q0 -7 -10 -14t-18 -6q-20 0 -33.5 18t-10.5 40
q6 39 48 63q43 24 94 20q48 -3 73.5 -25t20.5 -56zM1202 300q3 -4 3 -10q0 -8 -3 -17l-7 -21q-35 -98 -121 -183q-89 -86 -192 -86q-116 0 -116 99q0 24 9 61q-4 1 -139 20q-90 -133 -179 -192.5t-187 -59.5q-76 0 -129 36q-52 37 -52 100q0 88 92 138t247 50q57 0 187 -8
q143 209 260 521l6 17q17 47 88 47q55 0 55 -32q0 -8 -8 -48l-102 -516q7 0 22 2t18 2q4 -13 4 -29q0 -51 -60 -55q-3 -20 -3 -31q0 -38 41 -38q58 0 128 64q69 63 97 139l13 35q23 0 28 -5zM674 223q56 -5 117 -6l4 15l87 414l-4 1q-103 -257 -204 -424zM337 1
q107 0 239 172q-109 15 -170 15q-72 0 -117 -30t-45 -80q0 -34 25 -55.5t68 -21.5z" />
    <glyph glyph-name="uni1EA3" unicode="&#x1ea3;" 
d="M551 719q-4 -26 -25 -46.5t-58 -45.5l-16 -11h1q-8 -6 -11.5 -9t-6 -7.5t-3 -6t-1 -10t-1.5 -14.5q-21 -3 -25 -3q-27 2 -24 27q2 16 10 27.5t31 31.5q42 37 46 67q1 14 -6.5 23.5t-19.5 10.5q-46 2 -49 -33q-2 -25 2 -39q0 -7 -9.5 -13.5t-16.5 -5.5q-19 0 -32 17
t-10 38q6 39 45 60q43 23 90 19q46 -3 70 -24t19 -53zM716 300q4 -4 4 -10q0 -8 -3 -17l-8 -21q-35 -101 -122 -181q-88 -82 -171 -82q-41 0 -63 19t-22 52q0 44 41 155l-6 2q-45 -119 -96 -173.5t-117 -54.5q-54 0 -86 35.5t-32 99.5q0 87 44 168t123 135q80 55 178 55
q22 0 41 -3q17 35 75 35q24 0 33 -6t9 -21q0 -19 -51 -188q-52 -168 -52 -203q0 -29 25 -29q50 0 118 60q65 59 97 143l14 35q20 0 27 -5zM202 72q44 0 97 81q52 78 91 216l18 66q-5 1 -23 1q-49 0 -94.5 -26.5t-75.5 -70.5q-62 -91 -62 -191q0 -76 49 -76z" />
    <glyph glyph-name="uni1EA4" unicode="&#x1ea4;" horiz-adv-x="1060" 
d="M1110 992q-26 24 -26 47q0 31 42 63l43 28q41 27 88 67q42 -41 42 -79q0 -46 -54 -68l-39 -17q-17 -7 -41 -17t-37 -15t-18 -9zM977 927l-106 -69q-23 -15 -39 -7t-18 25q0 13 26 37l104 98q32 27 58 27q29 0 49 -29l10 -15q30 -44 44 -66q6 -9 12 -18.5t9.5 -14.5
t4.5 -7q-15 -30 -47 -30q-21 0 -62 32zM1202 300q3 -4 3 -10q0 -8 -3 -17l-7 -21q-35 -98 -121 -183q-89 -86 -192 -86q-116 0 -116 99q0 24 9 61q-4 1 -139 20q-90 -133 -179 -192.5t-187 -59.5q-76 0 -129 36q-52 37 -52 100q0 88 92 138t247 50q57 0 187 -8
q143 209 260 521l6 17q17 47 88 47q55 0 55 -32q0 -8 -8 -48l-102 -516q7 0 22 2t18 2q4 -13 4 -29q0 -51 -60 -55q-3 -20 -3 -31q0 -38 41 -38q58 0 128 64q69 63 97 139l13 35q23 0 28 -5zM674 223q56 -5 117 -6l4 15l87 414l-4 1q-103 -257 -204 -424zM337 1
q107 0 239 172q-109 15 -170 15q-72 0 -117 -30t-45 -80q0 -34 25 -55.5t68 -21.5z" />
    </font>
</defs>
</svg>
